<svg xmlns="http://www.w3.org/2000/svg" xmlns:xlink="http://www.w3.org/1999/xlink" width="286.579" height="65.039" viewBox="0 0 286.579 65.039">
  <defs>
    <clipPath id="clip-path">
      <rect id="Rectangle_979" data-name="Rectangle 979" width="78.593" height="65.039" fill="#cf9455"/>
    </clipPath>
  </defs>
  <g id="Group_717" data-name="Group 717" transform="translate(-383.454 -188.706)">
    <path id="Path_4464" data-name="Path 4464" d="M7.656-4.365a7.889,7.889,0,0,0-3.672.9l3.672-8.779,3.682,8.779A7.908,7.908,0,0,0,7.656-4.365ZM6.348-14.053.566-.029h2.3A6.027,6.027,0,0,1,4.99-1.768a5.961,5.961,0,0,1,2.666-.625,5.921,5.921,0,0,1,2.666.625A6.027,6.027,0,0,1,12.441-.029h2.3L8.975-14.053Zm19.946.039V-3.437L19.067-14.014H17.045V-.029h1.973V-10.6L26.245-.029h2.021V-14.014Zm18.452.029L41.229-4.258l-1.348-3.73,2.168-6h-2.1l-1.113,3.1-1.113-3.1h-2.1l2.168,6-1.348,3.73-3.516-9.727h-2.09L35.888,0h1.1l1.846-5.1L40.673,0h1.113l5.049-13.984ZM56.038-4.365a7.889,7.889,0,0,0-3.672.9l3.672-8.779L59.72-3.467A7.908,7.908,0,0,0,56.038-4.365ZM54.73-14.053,48.948-.029h2.3a6.027,6.027,0,0,1,2.119-1.738,5.961,5.961,0,0,1,2.666-.625,5.921,5.921,0,0,1,2.666.625A6.027,6.027,0,0,1,60.823-.029h2.3L57.357-14.053Zm12.661,8.1v-6.064h2.725a2.916,2.916,0,0,1,2.139.889,2.916,2.916,0,0,1,.889,2.139,2.927,2.927,0,0,1-.889,2.148,2.916,2.916,0,0,1-2.139.889Zm7.725-3.037a4.813,4.813,0,0,0-1.377-3.437,4.8,4.8,0,0,0-3.34-1.553h-4.98V0H67.39V-3.975a6.811,6.811,0,0,0,2.549,2.881A6.781,6.781,0,0,0,73.64-.01V-1.982A4.9,4.9,0,0,1,71.4-2.52a5.06,5.06,0,0,1-1.738-1.475h.449A4.817,4.817,0,0,0,73.65-5.459,4.817,4.817,0,0,0,75.115-8.994Zm2.553.977h5.1V-9.98h-5.1ZM97.481-4.365a7.889,7.889,0,0,0-3.672.9l3.672-8.779,3.682,8.779A7.908,7.908,0,0,0,97.481-4.365Zm-1.309-9.687L90.391-.029h2.3a6.027,6.027,0,0,1,2.119-1.738,5.961,5.961,0,0,1,2.666-.625,5.921,5.921,0,0,1,2.666.625,6.027,6.027,0,0,1,2.119,1.738h2.3L98.8-14.053Zm10.688.039V.029l8.7-.01V-1.953h-6.729V-14.014Zm14,13.086a.9.9,0,0,1-.283.674.889.889,0,0,1-.664.283.9.9,0,0,1-.674-.283.9.9,0,0,1-.283-.674.889.889,0,0,1,.283-.664.9.9,0,0,1,.674-.283.889.889,0,0,1,.664.283A.889.889,0,0,1,120.859-.928ZM125.4-5.957v-6.064h2.725a2.916,2.916,0,0,1,2.139.889,2.916,2.916,0,0,1,.889,2.139,2.927,2.927,0,0,1-.889,2.148,2.916,2.916,0,0,1-2.139.889Zm7.725-3.037a4.813,4.813,0,0,0-1.377-3.437,4.8,4.8,0,0,0-3.34-1.553h-4.98V0H125.4V-3.975a6.811,6.811,0,0,0,2.549,2.881,6.781,6.781,0,0,0,3.7,1.084V-1.982a4.9,4.9,0,0,1-2.236-.537,5.06,5.06,0,0,1-1.738-1.475h.449a4.817,4.817,0,0,0,3.535-1.465A4.817,4.817,0,0,0,133.129-8.994Zm9.2,4.629a7.889,7.889,0,0,0-3.672.9l3.672-8.779,3.682,8.779A7.908,7.908,0,0,0,142.332-4.365Zm-1.309-9.687L135.243-.029h2.3a6.027,6.027,0,0,1,2.119-1.738,5.961,5.961,0,0,1,2.666-.625A5.921,5.921,0,0,1,145-1.768a6.027,6.027,0,0,1,2.119,1.738h2.3l-5.771-14.023Zm16.1,5.117q-.166-.1-.5-.273a4.615,4.615,0,0,1-1.016-.654,1.323,1.323,0,0,1-.391-.889,1.054,1.054,0,0,1,.3-.83,1.437,1.437,0,0,1,1.045-.469,1.293,1.293,0,0,1,.947.42,1.322,1.322,0,0,1,.391.957q0,.107-.01.215h1.963a2.081,2.081,0,0,0,.02-.215,3.213,3.213,0,0,0-.967-2.344,3.241,3.241,0,0,0-2.314-1h-.059a3.3,3.3,0,0,0-2.451,1.094,2.961,2.961,0,0,0-.83,2.324,3.209,3.209,0,0,0,.938,2.09,6.245,6.245,0,0,0,1.514,1.035q.312.156.449.234l.742.381A5.213,5.213,0,0,1,158.3-5.723a1.849,1.849,0,0,1,.42,1.182,2.48,2.48,0,0,1-.742,1.807,2.468,2.468,0,0,1-1.787.771,2.49,2.49,0,0,1-1.787-.771,2.48,2.48,0,0,1-.742-1.807A2.789,2.789,0,0,1,153.7-5a1.885,1.885,0,0,1,.059-.244h-2a4.39,4.39,0,0,0-.059.7A4.392,4.392,0,0,0,153-1.357,4.39,4.39,0,0,0,156.145,0h.1a4.39,4.39,0,0,0,3.145-1.357,4.392,4.392,0,0,0,1.3-3.184,3.766,3.766,0,0,0-.918-2.49,7.2,7.2,0,0,0-1.895-1.523ZM172.5-13.984v9.258H165.2v-9.258h-1.963V0H165.2V-2.754H172.5V0h1.963V-13.984Zm6.625,12V-12.041h2.988a4.329,4.329,0,0,1,3.291,1.475,5.043,5.043,0,0,1,1.367,3.555A5.043,5.043,0,0,1,185.4-3.457a4.329,4.329,0,0,1-3.291,1.475Zm2.734-12.031H177.15V0l4.961-.01A6.225,6.225,0,0,0,186.8-2.061a6.939,6.939,0,0,0,1.943-4.951,6.961,6.961,0,0,0-1.943-4.951,6.225,6.225,0,0,0-4.687-2.051ZM191.344,0h1.973V-14.023h-1.973Z" transform="translate(476.717 227.379)" fill="#cf9455"/>
    <g id="Group_709" data-name="Group 709" transform="translate(383.454 188.706)">
      <g id="Group_708" data-name="Group 708" transform="translate(0 0)" clip-path="url(#clip-path)">
        <path id="Path_4455" data-name="Path 4455" d="M27.993,15.237A38.048,38.048,0,0,0,32.427,29.3c-4.143,4.86-7.085,10.186-7.961,16.307h-1.1V27.032a1.659,1.659,0,1,0-1.365.02V45.608H20.805A29.382,29.382,0,0,0,13,29.282a37.108,37.108,0,0,0,4.257-14.045Z" transform="translate(16.58 19.432)" fill="#cf9455" fill-rule="evenodd"/>
        <path id="Path_4456" data-name="Path 4456" d="M14.858,23.565H25.643V9.854a17.021,17.021,0,0,0-4.578-.883c-.362-.014-.883-.014-1.256,0a17.194,17.194,0,0,0-4.951.965Z" transform="translate(18.948 11.427)" fill="#cf9455" fill-rule="evenodd"/>
        <path id="Path_4457" data-name="Path 4457" d="M15.127,14.353H26.592a.747.747,0,0,1,.746.746v1.151a.747.747,0,0,1-.746.746H15.127a.748.748,0,0,1-.746-.746V15.1a.748.748,0,0,1,.746-.746" transform="translate(18.34 18.305)" fill="#cf9455" fill-rule="evenodd"/>
        <path id="Path_4458" data-name="Path 4458" d="M14.741,12.741H27.961a.75.75,0,0,1,.746.746v1.151a.748.748,0,0,1-.746.746H14.741a.748.748,0,0,1-.746-.746V13.487a.75.75,0,0,1,.746-.746" transform="translate(17.848 16.249)" fill="#cf9455" fill-rule="evenodd"/>
        <path id="Path_4459" data-name="Path 4459" d="M36.217,11.768,44.863,29.7H36.215l0-17.934Zm.783,0L36.322,10.369h-.908L25.98,29.7H25.6a.527.527,0,1,0,0,1.053h.669c.209,1.2,3.62,4.516,9.133,4.553,5.42.036,9.636-2.592,9.984-4.553h.712a.527.527,0,1,0,0-1.053ZM35.532,11.755,35.525,29.7H26.763Z" transform="translate(31.969 13.224)" fill="#cf9455" fill-rule="evenodd"/>
        <path id="Path_4460" data-name="Path 4460" d="M11.149,11.768,19.8,29.7H11.147l0-17.934Zm.783,0L11.254,10.369h-.91L.91,29.7H.528a.527.527,0,1,0,0,1.053h.667c.212,1.2,3.62,4.516,9.133,4.553,5.417.036,9.638-2.592,9.986-4.553h.71a.527.527,0,1,0,0-1.053ZM10.462,11.755l0,17.947H1.693Z" transform="translate(0 13.224)" fill="#cf9455" fill-rule="evenodd"/>
        <path id="Path_4461" data-name="Path 4461" d="M35.375,6.262a27.565,27.565,0,0,1,8.457,2.489c2.769,1.238,5.431,2.739,8.212,3.927,1.675.714,4.023,1.584,5.866,1.158a4,4,0,0,0,1.681-.846l1.547-1.274,1.365,4.02-.362.348a8.026,8.026,0,0,1-3.331,1.659c-2.824.651-5.759-.275-8.339-1.379-2.81-1.2-5.483-2.705-8.271-3.95A22.2,22.2,0,0,0,34.22,10.2c-.362-.014-.883-.014-1.254,0a21.908,21.908,0,0,0-8.118,2.218c-2.792,1.245-5.468,2.753-8.271,3.95-2.585,1.1-5.52,2.03-8.343,1.379a8,8,0,0,1-3.326-1.659l-.364-.348,1.363-4.02L7.455,12.99a3.991,3.991,0,0,0,1.681.846c1.845.425,4.191-.444,5.863-1.158,2.78-1.188,5.442-2.689,8.209-3.927a27.071,27.071,0,0,1,8.723-2.512,19.994,19.994,0,0,1,3.443.023" transform="translate(5.794 7.877)" fill="#cf9455" fill-rule="evenodd"/>
        <path id="Path_4462" data-name="Path 4462" d="M20.412,4.484v6.535H16.455V4.486a3.477,3.477,0,0,0,3.957,0" transform="translate(20.985 5.719)" fill="#cf9455" fill-rule="evenodd"/>
        <path id="Path_4463" data-name="Path 4463" d="M19.273,0c1.92,1.524,3.477,4.416,3.477,6.337a3.477,3.477,0,1,1-6.953,0c0-1.92,1.556-4.812,3.477-6.337" transform="translate(20.144 0)" fill="#cf9455" fill-rule="evenodd"/>
      </g>
    </g>
  </g>
</svg>
