<svg id="Layer_1-2" xmlns="http://www.w3.org/2000/svg" xmlns:xlink="http://www.w3.org/1999/xlink" width="125.03" height="88.813" viewBox="0 0 125.03 88.813">
  <defs>
    <clipPath id="clip-path">
      <path id="Path_8272" data-name="Path 8272" d="M126.891,26.243l-3.062,6.333C89.492,13.2,69.181,35.854,62.88,44.4,74.252,21.006,102.583,17.181,126.891,26.243Z" transform="translate(-62.88 -21.721)" fill="none"/>
    </clipPath>
    <linearGradient id="linear-gradient" x1="1.14" y1="0.379" x2="-0.017" y2="0.598" gradientUnits="objectBoundingBox">
      <stop offset="0" stop-color="#412d61"/>
      <stop offset="0.47" stop-color="#664c8e"/>
      <stop offset="1" stop-color="#493163"/>
    </linearGradient>
    <clipPath id="clip-path-2">
      <path id="Path_8273" data-name="Path 8273" d="M76.274,0,79.1,6.93c-38.887,10.2-36.5,38.79-34.5,49.265C36.415,31.237,51.8,11.668,76.274,0" transform="translate(-42.386)" fill="none"/>
    </clipPath>
    <linearGradient id="linear-gradient-2" x1="1.136" y1="-0.035" x2="-0.028" y2="0.944" gradientUnits="objectBoundingBox">
      <stop offset="0" stop-color="#cd2526"/>
      <stop offset="0.41" stop-color="#e8383b"/>
      <stop offset="1" stop-color="#c22727"/>
    </linearGradient>
    <clipPath id="clip-path-3">
      <path id="Path_8276" data-name="Path 8276" d="M100.989,85.13l.021.048q0-10.129.016-20.263c.054-3.03,1.794-3.2,4.647-3.164,3.035.038,4.109.7,4,3.868V81.988c-.193,4.34.059,8.982,0,13.365-.027,1.875-.226,4.254-1.144,5.436-1.5,1.923-3.857,1.133-5.248,1.209v2.643a17.281,17.281,0,0,0,3.2.215c7.9-.081,10.577-4.131,10.6-12.866l.027-20.171c0-2.057.156-4.733-.005-6.709-.161-3.191,1.928-3.443,4.8-3.352,3,.091,4.389.6,4.4,3.793-.081,10.357.005,20.95.016,31.35,0,1.509.134,3.5-.741,4.459-.978,1.069-2.659.833-4.152,1.058l-.016,2.509c1.085.172,23.169.011,27.192.059.666.005.779.059.849-.365l.113-1.311c.285-1.869,1.612-10.018,1.585-11.055h-2.272c-.892,3.476-2.82,8.907-6.7,9.852a20.958,20.958,0,0,1-5.168.2c-2.014-.188-2.331-1.16-2.38-3.132-.048-1.821,0-3.717,0-5.544,0-3.658-.1-7.478.032-11.109,1.762.215,5.436-.3,6.822.247,1.735.677,1.767,3.255,1.848,5.4l2.595.048.016-13.978-2.627-.038c-.167,2.149-.183,4.754-1.778,5.447-.962.419-5.549.285-6.9.226V61.816c8.165.2,11.646-1.735,13.569,9.4a11.857,11.857,0,0,0,2.288.07c.005-.312-1.467-12.135-1.676-11.759l-.306-.054c-.129-.011-.317,0-.451,0H104.234c-4.958,0-10.018-.1-14.961.005l-.027,2.262c2.611,0,4.212.247,4.335,3.008l.027,27.525c0,2.589.4,7.547-1.826,9.175-1.472,1.074-2.842.553-4.566.548-.032.575-.005,1.15-.011,1.724-.011.913-.167.929.72,1.021,7.929.784,12.866-1.751,13.048-11.474l.016-8.128Z" transform="translate(-87.188 -59.433)" fill="none"/>
    </clipPath>
    <linearGradient id="linear-gradient-3" x1="0.339" y1="-0.154" x2="0.66" y2="1.149" gradientUnits="objectBoundingBox">
      <stop offset="0" stop-color="#d76585"/>
      <stop offset="1" stop-color="#943356"/>
    </linearGradient>
  </defs>
  <g id="Group_25154" data-name="Group 25154">
    <text id="Quality_is_our_Priority" data-name="Quality is our Priority" transform="translate(60.03 87.813)" fill="#1a1a18" font-size="7" font-family="Arial"><tspan x="0" y="0">Quality is our Priority</tspan></text>
    <g id="Group_25151" data-name="Group 25151" transform="translate(33.778 11.668)" clip-path="url(#clip-path)">
      <rect id="Rectangle_1007" data-name="Rectangle 1007" width="64.011" height="31.2" transform="translate(0 -8.52)" fill="url(#linear-gradient)"/>
    </g>
    <g id="Group_25152" data-name="Group 25152" transform="translate(22.769)" clip-path="url(#clip-path-2)">
      <rect id="Rectangle_1008" data-name="Rectangle 1008" width="42.69" height="56.195" transform="translate(-5.972)" fill="url(#linear-gradient-2)"/>
    </g>
    <path id="Path_8274" data-name="Path 8274" d="M26.508,31.85l6.811,2.922c-20.628,34.933,3.6,52.4,12.275,58.446-23.12-11.952-28.97-34.45-19.086-61.368" transform="translate(-10.134 -14.741)" fill="#2c2b2a" fill-rule="evenodd"/>
    <path id="Path_8275" data-name="Path 8275" d="M0,101.795,6.967,99.27c8.5,37.3,40.531,34.922,50.952,33.424-25,7.064-47.138-5.307-57.919-30.9" transform="translate(0 -45.944)" fill="#c7c499" fill-rule="evenodd"/>
    <g id="Group_25153" data-name="Group 25153" transform="translate(46.836 31.926)" clip-path="url(#clip-path-3)">
      <rect id="Rectangle_1009" data-name="Rectangle 1009" width="64.129" height="46.37" transform="translate(-0.155 -0.286)" fill="url(#linear-gradient-3)"/>
    </g>
    <path id="Path_8277" data-name="Path 8277" d="M206.649,46.55a3.213,3.213,0,1,1-3.169,3.212A3.191,3.191,0,0,1,206.649,46.55Z" transform="translate(-94.174 -21.544)" fill="none" stroke="#2c2b2a" stroke-width="0.91"/>
    <path id="Path_8278" data-name="Path 8278" d="M207.562,50.575h.5a2.6,2.6,0,0,0,.612-.043.34.34,0,0,0,.188-.145.441.441,0,0,0,.07-.258.387.387,0,0,0-.349-.414c-.054-.005-.22-.011-.494-.011h-.532v.87Zm-.682,1.971V49.13h1.434a2.477,2.477,0,0,1,.784.091.754.754,0,0,1,.392.328,1.01,1.01,0,0,1,.15.537.929.929,0,0,1-.22.634,1.07,1.07,0,0,1-.666.317,1.689,1.689,0,0,1,.365.285,3.72,3.72,0,0,1,.387.553l.414.666H209.1l-.489-.747a5.45,5.45,0,0,0-.36-.5.481.481,0,0,0-.2-.14,1.1,1.1,0,0,0-.344-.038h-.14v1.429h-.682Z" transform="translate(-95.747 -22.738)" fill="#2c2b2a"/>
  </g>
</svg>
