<svg id="Group_21132" data-name="Group 21132" xmlns="http://www.w3.org/2000/svg" xmlns:xlink="http://www.w3.org/1999/xlink" width="2842" height="1421" viewBox="0 0 2842 1421">
  <defs>
    <clipPath id="clip-path">
      <rect id="Rectangle_1916" data-name="Rectangle 1916" width="2842" height="1421" fill="#cf9455"/>
    </clipPath>
  </defs>
  <rect id="Rectangle_1915" data-name="Rectangle 1915" width="2842" height="1421" fill="#f1f1f1"/>
  <g id="Group_21131" data-name="Group 21131" opacity="0.08">
    <g id="Group_21130" data-name="Group 21130" clip-path="url(#clip-path)">
      <path id="Path_6368" data-name="Path 6368" d="M45.344,0Q22.776,15.108,0,29.94v2.231Q24.46,16.249,48.7,0Z" fill="#cf9455"/>
      <path id="Path_6369" data-name="Path 6369" d="M85.366,0c-17.115,11.889-33.7,24.574-50.5,36.949C23.325,45.446,11.668,53.8,0,62.121v2.245c11.981-8.548,23.936-17.115,35.814-25.812C53.427,25.661,70.737,12.363,88.685,0Z" fill="#cf9455"/>
      <path id="Path_6370" data-name="Path 6370" d="M137.289,0C106.563,21.754,77.214,45.446,46.95,67.881,37.746,74.7,28.633,79.838,18.7,85.227,11.818,88.952,5.447,95.889,0,102.042v2.924c6.6-7.18,14.223-16.05,22.4-19.171C31.963,82.153,39.653,75.559,47.9,69.5,79.017,46.616,109.038,22.239,140.584,0Z" fill="#cf9455"/>
      <path id="Path_6371" data-name="Path 6371" d="M174.954,0A1311.4,1311.4,0,0,0,0,141.879v2.615A1307.787,1307.787,0,0,1,178.283,0Z" fill="#cf9455"/>
      <path id="Path_6372" data-name="Path 6372" d="M221.441,0C201.954,13.3,182.608,26.8,163.6,40.775c-26.9,19.774-52.141,41.6-77.953,62.747C53.24,130.074,26.09,161.307,0,193.6v2.8c25.5-31.745,52-62.529,83.528-88.72C129.4,69.558,176.329,33.872,225.107,0Z" fill="#cf9455"/>
      <path id="Path_6373" data-name="Path 6373" d="M256.284,0C200.707,37.306,146.841,77.9,98.608,124.245c-36.96,35.5-68.519,75.619-98.608,116.9v3.32c29.672-40.695,60.688-80.3,96.734-115.792C145.939,80.22,202.049,38.381,259.59,0Z" fill="#cf9455"/>
      <path id="Path_6374" data-name="Path 6374" d="M301.477,0c-28.645,19-57.174,38.173-84.8,58.654-38.033,28.216-72.668,59.924-105.4,94.153A591.019,591.019,0,0,0,30.623,258.181C20.723,274.706,10.73,291.243,0,307.225v3.387c9-13.274,17.461-26.945,25.765-40.705,24.55-40.695,51.322-77.965,83.886-112.659A828.97,828.97,0,0,1,217.626,60.272C245.922,39.1,275.33,19.487,304.806,0Z" fill="#cf9455"/>
      <path id="Path_6375" data-name="Path 6375" d="M339.164,0C305.281,23.776,271.2,47.251,238.591,72.784c-11.285,8.836-23.243,22.412-36.7,27.441-7.922,2.949-15.761,12.8-21.983,18.353a597.8,597.8,0,0,0-54.317,55.67c-31.118,36.081-57.6,75.932-81.886,116.879-6.371,10.731-14.165,19.464-20.294,30.355S9.587,341.338,2.856,351.664c-.935,1.459-1.9,2.891-2.856,4.326v3.26c5.043-7.307,9.992-14.628,16.34-21,2.659-2.671,4.672-8.717,6.546-12.061,4-7.122,7.552-14.595,13.369-20.432,7.515-7.553,12.164-18.966,17.691-28.068,6.418-10.581,13.081-21,19.892-31.328a729.151,729.151,0,0,1,47.875-64.64,603.216,603.216,0,0,1,50.268-53.336c17.9-16.907,37.851-29.916,56.849-45.424C265.178,53.3,303.952,26.887,342.345,0Z" fill="#cf9455"/>
      <path id="Path_6376" data-name="Path 6376" d="M373.786,0c-84.834,55.611-166.6,115.873-232.67,193.955-33.72,39.837-59.565,84.67-86.975,128.915C38.035,348.879,20.606,374.064,0,396.118v2.892C54.571,341.744,87.043,263.188,136.849,202,203.7,119.873,289.218,57.439,377.175,0Z" fill="#cf9455"/>
      <path id="Path_6377" data-name="Path 6377" d="M420.784,0c-43.191,27.626-85.715,56.087-126.973,86.674-23.847,17.681-47.149,34.935-67.387,56.813-9.262,10.013-20.964,18.179-29.649,28.493-2.973,3.527-4.73,8.292-6.672,12.432-4.175,8.858-11.171,15.312-17.613,22.48a469.277,469.277,0,0,0-53.612,72.878c-14.918,24.863-28.862,50.291-44.209,74.9C58.827,380.078,41.005,404.154,19.88,425.4A147.809,147.809,0,0,1,0,441.957v2.649a144.349,144.349,0,0,0,15.148-12.06c20.192-18.585,37.064-40.511,52.316-63.256,16.04-23.915,30-49.2,44.477-74.07a583.455,583.455,0,0,1,55.9-80.047c8.235-9.921,18.018-18.176,23.868-29.822,3.216-6.407,5.8-12.2,11.323-17.08,6.463-5.712,12.928-11.091,18.951-17.313,9.854-10.176,19.024-20.827,29.884-29.985,13.715-11.576,28.482-22.007,42.891-32.681C336.85,57.138,380.217,28.148,424.277,0Z" fill="#cf9455"/>
      <path id="Path_6378" data-name="Path 6378" d="M836.041,0c-32.311,57.948-58.285,119.2-76.185,183.245-20.816,74.473-31.8,151.318-52.954,225.71-20.259,71.258-48.245,144.378-92.315,204.292C569.511,674.525,513.079,724.03,450.526,766.679c-72.263,49.261-151.142,86.8-231.467,120.684-41.422,17.462-83.482,33.051-127.274,43.435A755.8,755.8,0,0,1,0,946.178v1.688c58.711-6.8,116.3-19.034,172.214-39.757a1488.06,1488.06,0,0,0,200.555-91.588C497.7,747.6,612.112,653.581,669.2,519.24A967.05,967.05,0,0,0,713.634,391.6c12.4-46.3,21.255-93.486,31.537-140.287C764.61,162.742,794.422,78.937,838.248,0Z" fill="#cf9455"/>
      <path id="Path_6379" data-name="Path 6379" d="M869.68,0a596.4,596.4,0,0,0-79.619,164.268c-5.319,17.313-10.71,34.589-15.276,52.119-5.125,19.729-7.97,39.862-12.953,59.614-4.592,18.179-9.033,36.392-12.687,54.791-1.629,8.224-2.681,14.814-6.9,22.052-3.526,6.072-3.768,16.827-5.342,23.7a728.413,728.413,0,0,1-80.209,202.8c-8.152,14.064-16.223,28.24-24.723,42.1-10.108,16.491-24.032,29.861-35.85,45.067-21.381,27.511-48.349,51.679-75.038,73.87a709.026,709.026,0,0,1-60.459,44.662c-10.6,7.077-21.429,13.829-32.332,20.444-4.9,2.96-9.852,5.852-14.8,8.743-5.367,3.121-9.563,8.718-15.208,11.98-45.239,26.205-91.691,50.327-139.625,71.189a960.88,960.88,0,0,1-146.876,50.3c-13.623,3.445-29.059,8.881-43.179,8.881-12.1,0-23.442,3.886-35.272,6.385Q16.78,966.436,0,968.518v1.713a484.408,484.408,0,0,0,56.26-10.639c8.348-2.1,17.2-1.2,25.706-3.008,8.708-1.874,17.369-3.908,26.02-6.014,18.41-4.486,36.646-9.691,54.756-15.333,67.4-20.955,131.911-50.258,194.036-83.656,15.587-8.4,30.989-17.114,46.312-25.995,6.847-3.955,11.829-10.016,18.77-14.087,8.592-5.063,17.08-10.29,25.5-15.609A737.039,737.039,0,0,0,528.8,736.357c26.817-22.608,52.329-47.528,73.874-75.27,9.39-12.085,20.246-22.48,28.746-35.3,9.691-14.63,17.995-30.37,26.876-45.506a716.957,716.957,0,0,0,63.245-140.863,783.556,783.556,0,0,0,20.979-79.7c1.039-4.882,2.82-8.175,5.272-12.4,2.37-4.069,2.266-11.413,3.144-16.026,2.916-15.324,6.628-30.483,10.386-45.622,6.764-27.2,11.287-54.813,18.781-81.85,7.562-27.28,16.283-54.26,26.528-80.649A588.083,588.083,0,0,1,871.97,0Z" fill="#cf9455"/>
      <path id="Path_6380" data-name="Path 6380" d="M895.779,0C815.932,103.9,791.426,235.029,758.492,359.956c-18.26,69.28-39.861,137.867-72.878,201.632-33.86,65.406-81.226,124.14-134.94,174.191a300.647,300.647,0,0,1-31.617,25.649c-9.459,6.66-19.311,11.287-27.662,19.311-20.2,19.382-43.32,35.457-66.839,50.466-47.668,30.415-99.153,56.341-150.913,78.961A953.663,953.663,0,0,1,0,984.061v1.918a949.041,949.041,0,0,0,164.58-33.766c72.125-21.556,139.476-52.918,206.005-87.841,32.958-17.3,64.908-36.451,94.641-59,13.864-10.5,25.95-24.911,40.994-33.538,14.272-8.163,27.293-18.433,39.665-29.211,52.906-46.092,98.736-103.892,133.173-164.973C731.176,485.2,755.263,380.658,781.2,278.636,806.367,179.695,835.323,81.168,898.151,0Z" fill="#cf9455"/>
      <path id="Path_6381" data-name="Path 6381" d="M922.077,0c-84.765,103.927-114.706,238.695-149.4,366.052C752.246,441.1,727.6,514.466,690.344,582.958c-36.183,66.529-87.494,125-143.7,175.255-78.392,70.126-170.442,126.351-265.765,169.947-51.381,23.5-105.708,38.255-160.476,51.369A980.562,980.562,0,0,1,0,1000.528v1.826c59.369-6.707,117.839-19.15,175.683-34.9,72.518-19.728,140.134-51.206,205.136-88.744,125.076-72.2,243.264-169.991,313.272-298.723,53-97.44,77.375-205.251,106.714-311.34C827.264,173.011,861.169,77.143,924.505,0Z" fill="#cf9455"/>
      <path id="Path_6382" data-name="Path 6382" d="M954.63,0a519.2,519.2,0,0,0-43.585,54.318c-9.979,14.338-17.5,32.806-29.779,45.133-10.659,10.7-16.487,30.659-22.19,44.51-28.6,69.5-43.1,143.36-61.717,215.891-18.989,73.977-44.106,148.6-80.776,215.717C682.3,638.315,637.067,696.034,586.6,746.371c-42.7,42.58-90.525,80.232-140.009,114.509-49.437,34.254-102.724,62.77-158.069,86.108C196.719,985.726,98.908,1008.716,0,1019.331v1.9c117.2-12.7,232.277-42.995,338.586-94.963a867.454,867.454,0,0,0,91.32-51.947c14.283-9.274,28.219-19.058,41.922-29.187,13.863-10.245,28.609-26.715,44.659-32.7,4.765-1.781,8.742-7.7,12.3-11.079,6.443-6.13,13.138-11.979,19.833-17.808,14.468-12.6,28.668-25.256,42.267-38.809a761.513,761.513,0,0,0,65.88-75.4c37.458-48.742,69.015-101.532,92.594-158.382,25.512-61.52,43.956-125.632,59.66-190.277,15.53-63.926,30.552-128.117,57.16-188.529,3.088-7.007,6.418-13.924,9.819-20.792,3.723-7.516,9.876-12.49,13.853-19.6,7.69-13.76,16.213-27.025,25.21-39.954A475.386,475.386,0,0,1,957.081,0Z" fill="#cf9455"/>
      <path id="Path_6383" data-name="Path 6383" d="M980.13,0a599.26,599.26,0,0,0-48.537,53.612c-21.519,27.2-38.67,57.843-54.708,88.523-7.83,14.964-12.4,31.592-17.439,47.644-6.141,19.507-13.08,39.04-17.914,58.919-8.881,36.439-17.75,72.876-27.487,109.095-19.8,73.584-44.176,145.951-78.867,213.9-32.38,63.416-75.341,122.08-124.639,173.241a712.277,712.277,0,0,1-61.984,56.734c-5.272,4.325-8.858,9.391-13.056,14.71-5.248,6.638-14.317,11.749-21.045,16.883-12.167,9.251-24.332,18.525-36.624,27.638a874.119,874.119,0,0,1-163.123,95.172c-99.44,44.313-206.49,70.01-314.707,80.118v1.873c131.7-12.374,260.725-47.968,377.28-111.849,33.964-18.618,66.5-38.14,97.819-61.013,14.826-10.823,29.375-22.019,43.98-33.119,6.049-4.6,12.617-8.744,17.751-14.385,6.556-7.217,12.05-13.831,19.635-20.121,52.433-43.412,97.8-94.724,136.1-150.994C762.456,543.9,799.348,425.779,829.321,306.263,845.3,242.511,858.729,175,892.693,118.08c15.866-26.6,30.644-52.025,50.64-75.952C955.66,27.373,968.958,13.462,982.686,0Z" fill="#cf9455"/>
      <path id="Path_6384" data-name="Path 6384" d="M801.474,0c-27.984,60.111-46.741,123.888-63.718,187.962-9.944,37.5-17.474,75.6-24.83,113.675-7.389,38.36-13.379,77.5-24.307,115.042-21.243,72.911-50.824,141.672-97.359,201.932-40.555,52.513-91.32,96.016-146.552,132.271-72.643,47.711-154,82.5-233.179,117.607q-30.338,13.46-60.7,26.851c-21.14,9.391-46.107,12.721-68.6,17.9C55.012,919.51,27.626,925.13,0,929.017v1.874c19.948-2.824,39.78-6.5,59.532-10.687,18.594-3.93,37.1-8.372,55.6-12.744q13.88-3.3,27.743-6.546c8.744-2.01,18.007-7.978,26.239-11.633,73.016-32.332,146.207-64.3,216.8-101.763,115.769-61.406,220.17-153.688,271.56-277.078C674.825,468.785,689.869,425.19,699.191,381c9.679-45.84,17.623-92.027,27.406-137.856C744.232,160.613,767.349,76.682,803.5,0Z" fill="#cf9455"/>
      <path id="Path_6385" data-name="Path 6385" d="M464.762,0c-18.653,10.314-37.443,20.387-55.346,31.928a1010.494,1010.494,0,0,0-84.788,61.579c-26.909,21.625-53.946,41.6-78.9,65.617a598.911,598.911,0,0,0-63.255,71.187c-36.532,48.453-62.551,104.067-97.277,153.826C61.346,418.309,33.443,449.751,0,473.714v2.392C27.209,456.9,50.869,432.73,71.455,405.934c37.318-48.591,64.182-103.555,98.144-154.3,40.082-59.9,92.467-107.522,149.087-151.1,28.759-22.134,57.437-44.209,87.666-64.367,19.96-13.3,41.214-24.538,62.238-36.171Z" fill="#cf9455"/>
      <path id="Path_6386" data-name="Path 6386" d="M1011.364,0c-19.7,17.45-38.878,35.016-55.53,56.167-21.093,26.793-38.578,56.293-53.958,86.7-32.74,64.724-48.846,135.036-67.038,204.813-17.647,67.685-38.462,134.711-67.188,198.568a728.686,728.686,0,0,1-48.4,90.061c-8.881,14.073-18.432,27.707-28.377,41.029-5.852,7.842-11.97,15.473-18.192,23.013-4.9,5.957-8.128,13.913-13.077,19.464-84.592,94.95-180.088,182.655-294.933,239.04a629.276,629.276,0,0,1-89.981,35.618c-15.228,4.765-30.667,8.744-46.208,12.282-15.877,3.607-30.081,5.965-44.558,13.646-16.515,8.788-38.959,10.291-57.127,13.992q-28.413,5.759-57,10.569-34.779,5.9-69.8,10.223v1.849q30.478-3.815,60.828-8.7c38.867-6.29,79.977-11.725,117.652-23.427,5.539-1.712,10.64-5.2,15.784-7.795,8.259-4.14,17.89-4.994,26.819-6.823,16.953-3.515,33.733-7.91,50.327-12.86A624.218,624.218,0,0,0,358.684,963.8c115.8-54.351,211.971-142.539,296.991-236.811,9.945-11.019,17.045-23.555,26.355-35.191,10.512-13.123,20.363-26.781,29.789-40.705,19.161-28.308,35.755-58.305,50.569-89.113,29.119-60.6,49.982-124.871,67.766-189.606,19.731-71.744,34.08-145.3,65.8-213.068a557.824,557.824,0,0,1,53.669-91.844C968.4,41.607,990.571,20.688,1014,0Z" fill="#cf9455"/>
      <path id="Path_6387" data-name="Path 6387" d="M1037.071,0C997.66,31.894,964.333,70.576,937.3,113.836c-16.768,26.841-30.646,55.44-42.384,84.824-14.385,36.035-20.375,75.016-29.1,112.657-2.1,9.09-4.464,18.111-7,27.084a51.562,51.562,0,0,1-6.3,14.71c-.9,1.363-3.008,4.521-3.32,6.221-1.284,7.157-.611,14.35-2.174,21.566-2.428,11.3-7.4,22.111-11.979,32.633-13.959,32.127-22.227,67.086-34.959,99.835-27.835,71.652-64.5,138.283-113.514,197.492-21.045,25.43-43.745,49.436-66.943,72.866-11.207,11.308-22.6,22.457-34.009,33.536q-9.506,9.229-19.046,18.411c-4.869,4.694-11.842,6.683-16.377,11.193a696.731,696.731,0,0,1-78.357,67.071c-27.906,20.609-57.335,41.446-88.582,56.549C262.7,1028.769,131.982,1056.568,0,1073.011v1.873c58.735-7.309,117.18-16.836,174.908-30.134,75.64-17.417,148.1-42.581,217.82-76.81,31.838-15.613,62.02-38.671,90.26-60,26.954-20.374,50.4-46.232,78.3-64.6,5.886-3.886,11.091-10.662,16.166-15.568q9.471-9.158,18.874-18.339,20.1-19.6,39.665-39.758a975.774,975.774,0,0,0,71.05-81.412c40.671-52.522,70.553-112.716,94.849-174.409,13.379-34,22.052-70.114,36.577-103.545,5.516-12.675,12.026-26.816,12.026-40.892,0-5.528.706-10.615,3.643-15.368.95-1.538,3.262-4.465,3.794-6.222,2.741-8.927,5.215-17.9,7.506-26.956,9.17-36.335,15.055-73.4,26.712-109.095,10.281-31.513,25.824-61.856,42.673-90.281A446.625,446.625,0,0,1,1040.02,0Z" fill="#cf9455"/>
      <path id="Path_6388" data-name="Path 6388" d="M1074.619,0c-42.706,31.328-80.682,68.322-111.35,112.139-20.63,29.453-36.776,65.567-48.016,99.623-12.279,37.178-22.215,74.728-32.276,112.553-10.037,37.678-20.8,75.157-33.026,112.174q-8.779,26.644-18.861,52.823c-3.354,8.779-6.88,17.474-10.477,26.159-4.059,9.831-5.873,19.936-10.639,29.639-17.23,35.063-31.975,72.265-53.311,105.026-10.406,15.97-20.2,33.466-32.529,47.968q-17.173,20.225-34.611,40.219C603.543,836.851,509.239,931.1,391.942,991.37c-66.528,34.183-140.03,54.7-212.548,71.628C120.233,1076.805,60.248,1086.726,0,1094.476v1.826c58.85-7.586,117.41-17.322,175.323-30.459C247.1,1049.584,319.379,1029.069,385.7,996.6c119.62-58.585,215.5-154.775,302.46-253.878q16.15-18.423,32-37.064c10.651-12.467,19.094-25.846,28.159-39.5,10.386-15.669,20.178-31.037,28.437-47.945,8.949-18.293,17.679-36.716,26.527-55.056q6.228-12.907,12.569-25.753c3-6.083,2.683-10.719,4.741-17.081,6.221-19.195,15.219-37.791,22.054-56.837C855.793,426.843,866.952,389.5,877.382,352c10.558-37.931,19.38-76.325,31.269-113.86,12.026-37.955,26.817-73.813,46.327-108.564C984.142,77.642,1029.033,34.819,1077.568,0Z" fill="#cf9455"/>
      <path id="Path_6389" data-name="Path 6389" d="M1102.687,0a19.45,19.45,0,0,0-2.371,1.954c-12.2,12.258-27.662,21.047-41.157,31.87a383.7,383.7,0,0,0-35.989,33.327c-5.909,6.129-11.54,12.527-17.1,18.966-5.668,6.558-9.391,14.409-15.276,20.827-9.45,10.293-15.231,25.13-22.3,37.157a455.729,455.729,0,0,0-26.009,52.513c-13.739,32.264-23.8,66-33.107,99.773-9.8,35.56-18.677,71.35-29.5,106.622-5.158,16.827-11.853,32.958-16.883,49.806-5.724,19.185-14.548,38.22-18.932,57.624-4.313,19.081-13.31,36.855-21.45,54.595-8.476,18.48-17.565,36.67-26.92,54.723-18.331,35.361-36.96,70.123-62.273,101.011-23.233,28.357-49.553,54.4-75.122,80.626q-39.67,40.693-81.086,79.583c-29.247,27.454-59.025,53.821-90.988,78.037-14.433,10.94-29.142,21.462-44.5,31.037-7.113,4.464-14.456,9.944-23.025,10.43-5.319.3-13.739,8.281-18.445,10.963-16.63,9.437-34.832,15.844-52.746,22.319-18.3,6.615-36.159,14.456-54.8,20.028-37.169,11.125-76.256,16.908-114.149,25.048C119.272,1091.631,59.834,1103.727,0,1113.6v1.874c59.995-9.9,119.6-22.042,179.058-34.807,37.99-8.164,76.741-14.456,114.151-25.072,17.311-4.9,33.756-12.374,50.64-18.524,16.7-6.061,33.36-12.074,49.366-19.824a194.254,194.254,0,0,0,23.695-13.92c3.112-2.106,4.522-.51,7.482-1.32,1.573-.44,5.61-2.916,6.5-3.4,17.185-9.459,33.258-20.86,49.01-32.517,29.961-22.158,57.8-46.072,85.215-71.327,27.894-25.674,55.068-52.133,81.748-79.053,26.9-27.177,54.559-54.351,79.365-83.469,48.579-57.034,81.978-127.611,111.281-196.221,6.5-15.231,10.049-31.213,15.9-46.708,7.238-19.114,11.24-39.34,18.953-58.27,13.644-33.431,21.614-69.731,30.864-104.573,9.344-35.179,18.907-70.312,31.317-104.553a522.526,522.526,0,0,1,22.584-52.766c8.187-16.618,18.641-31.938,26.724-48.57,3.273-6.742,8.545-11.552,12.732-17.589,5.284-7.61,10.35-15.08,16.479-22.063a415.3,415.3,0,0,1,38.068-37.931A462.052,462.052,0,0,1,1108.909,0Z" fill="#cf9455"/>
      <path id="Path_6390" data-name="Path 6390" d="M2909.611,1494.353c26.206-35.108,52.479-70.8,85.505-99.151v-2.43c-34.043,28.911-60.92,65.571-87.816,101.581Z" transform="translate(-153.118 -73.353)" fill="#cf9455"/>
      <path id="Path_6391" data-name="Path 6391" d="M1087.221,930.426c51.126,48.06,115.051,83.356,178.236,112.543,66.853,30.875,140.851,40.7,213.578,45.862,38.266,2.708,76.59,4.048,114.867,6.475,36.937,2.338,73.965,4.882,109.627,15.427,62.425,18.457,115.6,58.562,163.377,101.625,23.8,21.465,46.536,44.084,69.457,66.493,11.517,11.243,22.85,22.712,35.2,33.029,14.871,12.465,30.644,24.077,42.927,39,6.683,8.071,16.884,14.316,25.047,20.884q15.4,12.384,30.831,24.794c10.061,8.117,20.074,16.306,30.135,24.446h2.96q-35.11-28.484-70.333-56.78c-13.622-10.94-24.421-23.66-37.839-34.9-14.916-12.489-29.789-24.815-43.781-38.346-44.916-43.39-88.443-88.559-138.816-125.7-50.026-36.911-106-61.267-167.981-67.718-76.253-7.91-153.143-7.147-229.271-16.654-39.281-4.879-78.115-13.135-115.606-26.018-35.468-12.166-69.5-30.089-102.123-48.477a656.331,656.331,0,0,1-92.454-63.048c-30.09-24.562-51.091-54.511-60.713-92.651-20.121-79.768,44.361-145.314,89.553-201.643,47.712-59.464,92.952-120.87,138.4-182.077q17.071-22.985,34.218-45.922a231.273,231.273,0,0,1,21.1-24.967c6-6.025,12.849-11.633,17.173-19.046,9-15.4,24.193-27.984,36.7-40.671a443.25,443.25,0,0,1,46.708-40.868c14.57-11.169,28.251-22.781,43.956-32.4a575.16,575.16,0,0,1,52.71-28.146c36.518-17.45,74.7-29.408,113.4-40.936,74.174-22.088,149.548-39.725,223.142-63.79,33.4-10.915,66.1-23.716,97.115-40.358,21.694-11.633,53.38-27.291,33.051-54.929-10.57-14.352-28.148-22.055-44.2-28.228-5.644-2.174-11.24-4.429-16.836-6.719H1923.8c.624.266,1.271.554,1.9.822,17.485,7.32,35.454,11.922,51.3,22.733,8.858,6.025,19.266,16.237,20.121,27.582,1.064,14.177-13.37,21.856-23.591,28.113a435.48,435.48,0,0,1-51.6,26.447c-70.4,30.968-146.541,48.153-220.411,68.447-37.955,10.421-75.77,21.36-113.213,33.491-35,11.321-68.323,26.551-100.539,44.347-31.757,17.545-61.454,40.246-88.327,64.622-13.113,11.887-25.291,24.771-37.594,37.479-12.745,13.149-22.459,27.754-35.341,40.693-26.483,26.587-47.286,60.031-69.64,90.155-23.1,31.12-46.22,62.214-69.7,93.057q-36.825,48.4-75.283,95.532c-21.8,26.62-43.355,52.778-57.9,84.324-26.8,58.146-13.632,128.525,33.237,172.583" transform="translate(-54.787)" fill="#cf9455"/>
      <path id="Path_6392" data-name="Path 6392" d="M1148.34,0a71.552,71.552,0,0,0-15.669,11.958c-7.553,7.6-19.371,12.6-28.216,18.686-28.794,19.763-54.19,44.141-78.812,68.807-4.44,4.44-6.531,11.5-10.891,16.422-4.5,5.075-10.49,10.615-14.155,16.259-9.517,14.686-19.9,27.974-27.615,43.851-15.566,32.044-24.527,67.256-34.149,101.393-21.2,75.238-40.925,150.889-65.5,225.108-12.732,38.438-26.98,76.369-43.159,113.491-1.906,4.372-3.987,14.952-6.314,18.606-4.6,7.24-8.071,15.484-12.35,22.957A422.261,422.261,0,0,1,777.1,708.048c-21.659,27.615-47.725,51.74-71.709,77.318-23.245,24.77-46.222,49.8-69.65,74.4C588.59,909.265,539.1,956.792,482.8,995.764c-28.458,19.706-58.226,35.78-89.84,49.633a385,385,0,0,1-53.288,18.62q-13.045,3.606-26.181,6.844c-8.084,1.989-19.6,2.174-26.956,5.828-17.45,8.72-36.288,11.357-55.218,15.335q-30.374,6.416-60.7,13.021-57.764,12.625-115.283,26.25-13.895,3.3-27.788,6.66C18.814,1140.085,9.1,1139.114,0,1140.2v1.781a103.169,103.169,0,0,1,23.15-1.042c8.247.509,19.96-4.811,28.055-6.731q57.505-13.737,115.272-26.343c18.629-4.094,37.271-8.071,55.924-12.05,18.039-3.816,38.682-5.48,55.577-13,16.768-7.469,35.722-9.92,53.461-14.64,17.324-4.578,34.785-8.858,51.24-16.074,31.767-13.924,61.857-28.863,91-47.945,27-17.67,52.4-37.723,76.739-58.883,50.893-44.246,96.4-94.317,142.308-143.628,23.522-25.232,48.534-49.332,71.4-75.154A428,428,0,0,0,823.528,639.4c2.278-4.405,4.047-7.193,4.533-12.083.9-9.054,7.618-19.335,11.124-27.674,7.3-17.346,14.061-34.9,20.562-52.557,13.46-36.52,25.221-73.666,36.333-110.969,22.191-74.463,38.741-151.273,64.7-224.5,6.082-17.149,12.732-33.962,21.774-49.781,9.113-15.958,21.73-30.679,33.512-44.638,3.469-4.1,6.778-6.812,8.64-11.842,3.237-8.742,14.513-16.791,21.092-23.14a560.122,560.122,0,0,1,45.609-39.735c14.328-11.1,32.391-18.964,45.076-31.707A73.62,73.62,0,0,1,1150.584,0Z" fill="#cf9455"/>
      <path id="Path_6393" data-name="Path 6393" d="M1077.6,964.542c55.809,47.319,125.412,80.879,191.873,110.274,34.079,15.058,69.245,26.691,105.857,33.651,36.636,6.963,74.034,9.3,111.212,11.125,75.791,3.747,153.2,4.672,224.968,32.4,34.67,13.391,63.557,34.646,93.161,56.617,30.9,22.921,61.615,46.094,89.161,73.063,25.3,24.794,51.993,46.6,80.185,67.949,30.53,23.129,60.25,47.346,90.063,71.375h2.912q-35.49-28.517-71.1-56.849c-28.561-22.641-58.651-43.364-85.3-68.343-26.09-24.493-51.53-48.385-80.023-70.126s-56.874-44.8-88.512-61.751c-62.517-33.467-134.747-40.22-204.27-43.829-79.283-4.116-158.117-5.712-233.619-33.234-37.27-13.575-72.784-31.663-108.032-49.773-33.281-17.113-65.879-35.409-96.224-57.427-58.166-42.232-111.3-102.248-109.881-178.411.75-40.2,19.717-73.466,46.036-102.468,26.146-28.807,54.245-55.914,81.086-84.083,52.537-55.149,96.25-116.647,140.009-178.816,44.243-62.886,95.183-120.463,155.619-168.166,61.6-48.627,133.633-74.693,207.759-97.381,70.612-21.6,143.649-38.533,211.324-68.53,22.665-10.048,50.649-24.643,54.119-52.049,2.775-21.914-20.006-38.22-39.156-49.761h-4.372c2.547,1.629,5.113,3.261,7.657,4.974,17.878,12.095,38.437,26.364,32.934,50.9-4.048,18.028-23.059,29.372-38,37.467-16.214,8.8-33.813,15.647-51.045,22.191-35.661,13.542-73.292,22.944-109.836,33.825-38.161,11.356-76.391,22.564-114.206,35.039-67.628,22.3-128.466,55.173-182.506,101.834-56.606,48.871-102.481,106.4-145.106,167.565-45.738,65.614-94.641,126.847-150.288,184.287-24.934,25.741-52.837,50.547-74.23,79.434A149.507,149.507,0,0,0,988.1,805.325c-1.225,65.663,42.174,119.066,89.506,159.216" transform="translate(-52.038)" fill="#cf9455"/>
      <path id="Path_6394" data-name="Path 6394" d="M1196.621,0c-87.448,40.094-165.76,102.214-206.847,191.445-14.156,30.735-21.649,64.042-30.368,96.606C949.23,326.027,939.25,364.062,928.981,402,908.49,477.645,886.5,552.9,859.688,626.557c-6.844,18.814-13.241,37.884-23.961,54.882a432.127,432.127,0,0,1-38.658,51.6c-11.379,13.147-23.972,25.245-36.6,37.155-13.89,13.113-27.349,27.43-42.14,39.479C659.049,857.987,608.481,916.758,552.3,968.658c-28.285,26.111-57.576,50.881-89.692,72.16-32.066,21.233-67.463,32.264-103.95,43.179-37.941,11.357-75.375,22.736-114.346,30.046-38.705,7.26-77.664,13-115.906,22.525-32.091,8.027-63.869,17.486-95.752,26.274-10.79,2.96-21.741,5.9-32.656,9.021v1.642c20.065-5.805,40.406-10.847,60.271-16.351,38.035-10.546,75.919-21.348,114.706-28.794,39.087-7.517,78.484-13.253,117.249-22.458,36.993-8.766,74.067-21.718,110.205-33.559,66.922-21.926,121.33-73.734,171.428-121.307,27.834-26.459,54.789-53.8,81.966-80.926,27.037-26.968,56.016-51.368,83.609-77.62,25.545-24.329,51.76-47.667,73.341-75.767,11.193-14.582,22.457-29.64,31.325-45.783,8.986-16.341,14.317-35.34,20.631-52.826,26.587-73.673,48.072-149.084,68.494-224.667,10.269-38,20.249-76.069,30.438-114.092,9.216-34.369,17.993-68.227,34.078-100.157,28.09-55.763,73.328-100.954,124.429-135.75A507.946,507.946,0,0,1,1200.794,0Z" fill="#cf9455"/>
      <path id="Path_6395" data-name="Path 6395" d="M276.462,1436.236c61.683-.947,123.17-7.353,184.541,2.129,29.107,4.463,55.983,14.27,82.373,27.243,17.115,8.42,33.789,17.349,49.47,27.871h3.065a431,431,0,0,0-39.894-23.5c-23.2-12.279-47.206-22.781-72.67-29.3-57.567-14.686-118.786-9.343-177.4-7.145-30.692,1.156-61.442,1.942-92.03-1.181-31.755-3.259-63.175-9.344-94.143-17.022C78.972,1405.2,39.11,1391.621,0,1376.173v1.917c88.454,34.694,180.746,59.649,276.462,58.145" transform="translate(0 -72.478)" fill="#cf9455"/>
      <path id="Path_6396" data-name="Path 6396" d="M2960.667,345.421c-27.245-4.372-54.258-10.421-81.573-14.468-14.3-2.115-27.522-7.378-41.839-10.406-18.573-3.931-36.913-8.825-55.092-14.284-74.773-22.468-145.316-59.381-215.577-93.033-35.179-16.848-70.472-33.512-106.229-49.089-34.37-14.965-69.662-27.637-104.031-42.567q-23.7-10.3-46.581-22.331c-7.839-4.1-15.564-8.476-23.219-12.928-9.182-5.343-22.6-11.125-28.865-19.971-13.068-18.515,10.269-34,23.406-41.838,16.027-9.542,33.676-16.1,51.391-21.649q4.753-1.492,9.575-2.856h-6.406c-3.771,1.11-7.517,2.255-11.264,3.469a248.5,248.5,0,0,0-40.705,17.415c-9.229,4.985-24.147,11.669-28.217,22.286-10.616,27.567,18.293,38.034,37.884,49.228,30.09,17.194,61.869,31.21,93.993,44.094,73.456,29.453,144.83,62.41,216.25,96.514,67.256,32.113,134.86,64.412,207.205,83.226,7.148,1.851,14.362,3.528,21.579,5.157,8.094,1.829,18.9,2.037,26.09,6.269,11.24,6.592,25.649,5.837,38.392,8.024,21.324,3.655,42.51,8.119,63.834,11.564Z" transform="translate(-118.667)" fill="#cf9455"/>
      <path id="Path_6397" data-name="Path 6397" d="M751.356,0c-1.227,12.246-2.707,24.378-5.712,36.565-4.926,20-10.326,39.863-15.555,59.777-9.829,37.4-17.854,74.912-24.273,113.038-11.863,70.46-22.457,141.268-41.848,210.145-19.8,70.275-49.924,138.561-95.868,195.617-39.259,48.742-89.17,87.4-142.436,119.528-67.152,40.5-139.855,70.633-210.708,103.8q-13.34,6.244-26.576,12.675c-9.218,4.464-21.753,13.643-32.055,14.2-9.391.509-18.978,6.406-27.743,9.644-11.38,4.208-22.99,7.77-34.647,11.1C63.175,894.88,31.674,900.707,0,905.262v1.781c18.34-2.66,36.624-5.736,54.8-9.483,17.774-3.676,35.34-8.232,52.7-13.531,8.706-2.635,17.311-5.664,25.857-8.809,4.29-1.6,8.521-3.309,12.765-5.019,4.408-1.781,9.033-1.781,13.322-3.169,12.582-4.118,24.562-11.726,36.5-17.462,14.376-6.939,28.865-13.67,43.355-20.329,27.891-12.86,55.9-25.464,83.678-38.578C432.393,738.948,539.617,674.5,603.66,567.786c51.379-85.631,74.1-183.59,91.079-281.043,8.927-51.218,15.9-102.828,27.927-153.432,6.186-26,13.322-51.76,20.053-77.618,3.19-12.294,7.273-24.886,8.891-37.5.777-6.049,1.307-12.122,1.816-18.192Z" fill="#cf9455"/>
      <path id="Path_6398" data-name="Path 6398" d="M530.573,0C479.728,27.615,429.781,56.8,381.466,88.756c-30.31,20.041-60.606,40.544-87.783,64.781-25.267,22.539-47.9,47.944-68.622,74.716C184.69,280.4,155.457,338.9,120.278,394.337,89.843,442.293,48.939,482.849,0,510.568v2.093c42.256-23.706,78.9-56.905,107.57-96.282,20.6-28.275,36.613-59.556,54.363-89.634,17.1-28.969,35.156-57.358,54.977-84.533A582.959,582.959,0,0,1,285.853,163.3c28.2-26.874,60.468-48.788,92.734-70.389C428.9,59.232,481.253,28.782,534.471,0Z" fill="#cf9455"/>
      <path id="Path_6399" data-name="Path 6399" d="M1310.625,0c-40.138,14.108-78.891,31.87-115.328,54.491-28.472,17.682-55.08,38.012-77.364,63.209-21.024,23.775-36.832,51.425-49.993,80.2-14.594,31.892-25.14,65.463-33.86,99.392-4.473,17.417-8.372,34.982-12.187,52.548-1.123,5.169-4.834,9.355-6.06,14.826q-3.746,16.668-7.413,33.363c-8.453,38.473-16.351,77.064-23.1,115.871q-4.891,28.153-8.788,56.468c-2.07,14.849-5.7,29.015-.974,43.677.5,1.17,1.007,2.338,1.552,3.493.5,1.1,2.1.153,1.606-.947-7.619-17.16-1.573-37.513.962-55.276,2.671-18.781,5.769-37.5,9.066-56.191,6.591-37.283,14.4-74.345,22.527-111.316,1.735-7.944,3.516-15.89,5.284-23.822,1.481-6.6,4.833-11.8,6.627-17.89,4.81-16.339,7.529-33.49,11.633-50.049,8.742-35.329,19.9-69.951,34.75-103.2,12.882-28.865,29.1-55.842,49.691-79.816,22.725-26.458,51.241-46.928,80.661-65.2,36.416-22.606,75.559-40.059,116-53.83Z" transform="translate(-51.257)" fill="#cf9455"/>
      <path id="Path_6400" data-name="Path 6400" d="M1765.546,0h-3.955A131.6,131.6,0,0,1,1785,17.346c9.62,9.229,14.5,21.059,11.7,34.312-3.608,17.3-29.557,28.932-43.921,36.148-63.95,32.159-134.351,46.2-201.978,68.241-66.389,21.634-129.5,58.8-181.625,105.36-56.307,50.27-103.87,111.027-150.254,170.329-34.852,44.566-67.846,90.87-107.8,131-7.517,7.552-17.092,12.306-24.955,19.823a256.1,256.1,0,0,1-30.057,24.606,157.509,157.509,0,0,1-34.044,17.936,123.689,123.689,0,0,1-18.826,5.286c-12.511,2.659-18.906-4.869-24.32-13.8a.933.933,0,0,0-1.606.947c4.994,8.223,8.175,14.955,18.3,15.946,13.021,1.3,29.929-7.285,41.4-12.825,12.928-6.242,24.689-14.778,35.814-23.8,6.082-4.937,11.818-10.268,17.474-15.68,5.885-5.622,13.137-8.085,18.814-13.786,53.681-53.91,96.955-117.49,144.691-176.665,47.539-58.94,98.075-118.832,160.336-162.591,29.9-21.036,62.192-40.1,95.692-54.721,35.248-15.379,72.623-25.384,109.7-35.155,16.282-4.292,31.707-11.506,47.921-15.994,7.332-2.025,14.662-2.242,21.67-5.471,9.345-4.312,18.966-8.06,28.54-11.875,14.573-5.817,29.05-11.749,42.95-19.035a171.043,171.043,0,0,0,19.659-12.258c4.394-3.122,13.09-8.188,15.2-13.045,12.05-27.9-7.124-46.2-29.928-60.585" transform="translate(-51.464)" fill="#cf9455"/>
      <path id="Path_6401" data-name="Path 6401" d="M2998.343,9.274Q2985.958,4.749,2973.688,0h-5.158c9.9,3.839,19.82,7.621,29.813,11.264Z" transform="translate(-156.343)" fill="#cf9455"/>
      <path id="Path_6402" data-name="Path 6402" d="M2967.66,323.332a955.777,955.777,0,0,1-179.916-43.143,806.041,806.041,0,0,1-102.48-43.448c-15.08-7.714-29.211-17.2-44.291-24.955-16.931-8.7-34.693-16.029-52.04-23.835-64.11-28.84-127.83-58.351-184.54-100.526-41.63-30.97,5.388-64.285,34.692-78.163A236.328,236.328,0,0,1,2461.729,0h-5.989q-5.691,2.185-11.24,4.706c-21.441,9.76-48.108,21.913-56.688,46.038-10.409,29.315,25.256,45.851,45.4,59.137,30.414,20.076,62.839,36.913,95.681,52.618,32.749,15.659,66.124,30.021,99.082,45.264,32.611,15.078,62.818,34.426,95.752,49.113,67.627,30.146,139.3,50.7,212.132,63.451,10.569,1.85,21.164,3.482,31.8,4.962Z" transform="translate(-125.66)" fill="#cf9455"/>
      <path id="Path_6403" data-name="Path 6403" d="M2973.194,297.117c-6.522-1.1-13.046-2.2-19.543-3.354q-14.015-2.48-27.963-5.412c-8.694-1.816-19.449-6.662-28.237-6.695-19.106-.092-36.913-8.72-55-14.281-18.873-5.795-37.839-11.172-56.433-17.81-35.5-12.675-69.8-30.8-103.962-46.72C2649.561,187.7,2617.5,171.624,2586.811,153c-14.846-9.007-29.211-18.826-43.132-29.22-15.612-11.668-32.334-25.407-44.245-41.008-14.662-19.219.439-39.376,16.214-51.321,12.906-9.8,28.887-14.663,43.8-20.423Q2574.579,5.187,2590.144,0h-5.621q-4.234,1.438-8.466,2.9c-25.557,8.985-54.789,17.241-73.57,38.034-6.546,7.252-12.258,17.959-11.38,27.926,1.179,13.138,14.2,23.915,23.29,31.791,6.014,5.215,11.333,11.357,17.718,16.49,5.757,4.65,11.7,9.09,17.67,13.46a553.585,553.585,0,0,0,47.182,30.646c30.921,18.2,63.37,33.628,95.889,48.674q35.665,16.476,71.375,32.887c24.907,11.392,51.6,18.447,77.71,26.366,13.3,4.036,26.251,9.195,39.572,13.033,3.747,1.087,7.842,1.156,11.7,1.3,9.114.337,18.456,3.666,27.316,5.644,17.438,3.908,35.039,6.972,52.662,9.933Z" transform="translate(-131.194)" fill="#cf9455"/>
      <path id="Path_6404" data-name="Path 6404" d="M2993.994,37.559c-34.185-12.9-68.25-26.133-102.9-37.559h-5.135c36.428,11.818,72.206,25.906,108.032,39.5Z" transform="translate(-151.994)" fill="#cf9455"/>
      <path id="Path_6405" data-name="Path 6405" d="M1670.761,20.642c-9.715-9.09-20.908-14.954-33.375-19.335-1.319-.474-2.684-.89-4.024-1.307h-6.846c1.018.277,2.037.554,3.052.843,13.716,3.818,34.045,10.525,41.077,24.181,11.079,21.58-5.668,31.235-21.325,41.585-14.061,9.31-29.119,13.763-45.008,19.2q-23.695,8.086-47.158,16.735c-58.711,21.741-116.994,48.189-166.454,87.251-28.124,22.2-52.421,48.952-77.664,74.323-26.865,26.978-52.269,54.432-77.168,83.25-24.228,28.067-48.974,55.681-74.993,82.093-14.224,14.445-29.351,26.263-45.807,37.977-11.389,8.106-27.776,12.8-39.793,2.579-4.959-4.232-6.347-12.663-9.344-18.456-.416-64.355,4.013-129.216,22.412-191.179a345.227,345.227,0,0,1,39.71-87.354,292.254,292.254,0,0,1,29.848-38.67c11.794-13.045,25.2-22.691,38.8-33.618,30.135-24.214,67.58-39.815,103.534-53.3,34.126-12.789,69.386-22.421,104.806-30.828C1430.92,10.454,1456.986,5.135,1483.088,0h-9.576c-67.28,13.379-134.976,28.436-198.337,55.334-16.132,6.846-31.917,14.352-47.367,22.643-16.583,8.894-30,20.145-45.389,30.76-23.579,16.27-42.7,42.521-57.984,66.482-32.391,50.744-47.84,110.473-55.148,169.727-4.372,35.41-5.459,71.166-5.227,106.818,0,.024.012.035.012.057s.024.071.024.1a1.381,1.381,0,0,0,.081.279.03.03,0,0,1,.011.021c4.337,8.155,6.2,20.145,16.351,23.464,15.047,4.9,27.026-.623,39.18-9.274,14.236-10.141,26.783-19.946,39.179-32.309,14.27-14.237,28.044-28.969,41.607-43.874,25.813-28.356,49.056-59.856,76.116-86.951q42.931-42.967,85.724-86.061c51.658-51.843,120.072-84.21,187.477-109.929,15.588-5.956,31.34-11.52,47.113-16.976q11.794-4.078,23.615-8.062c5.6-1.895,15.448-3.213,20.029-6.856C1648,69.49,1656,64.516,1663.937,59.348c7.518-4.917,5.874-3.966,9.921-11.7,1.2-2.29,5.113-7.562,4.187-10.639-1.411-4.6-4.072-13.345-7.285-16.362" transform="translate(-56.039)" fill="#cf9455"/>
      <path id="Path_6406" data-name="Path 6406" d="M119.9,449.682c22.5-27.187,37.652-60.817,55.763-91C194.207,327.8,213.45,297.314,234.3,267.93c44.787-63.127,97.9-115.676,163.237-157.122C430.6,89.843,464.854,70.589,499.384,52.189,517.055,42.778,534.7,32.1,553.458,25.047c16.908-6.358,34.9-15.276,52.584-18.7C614.8,4.65,622.6,1.424,631.619.266c.846-.117,1.689-.186,2.534-.266h-7.148c-7.413,1.3-14.686,3.03-21.462,4.534-16.55,3.69-32.391,11.632-48.42,17.253-17.587,6.164-33.6,15.636-50.084,24.239-66.285,34.611-134.525,71.837-189.895,122.845C252.365,228.542,205.39,304.739,160.8,379.964c-11.439,19.288-21.452,39.409-34.208,57.876-14.537,21.013-33.7,38.8-53.147,55.117C51.032,511.76,26.181,527.082,0,539.768v1.816c45.6-22.25,87.078-52.271,119.9-91.9" fill="#cf9455"/>
      <path id="Path_6407" data-name="Path 6407" d="M682.412,11.091A43.6,43.6,0,0,0,662.856,0H648.677A93.555,93.555,0,0,1,659.1,1.538a49.248,49.248,0,0,1,24.585,13.414c9.852,9.634,10.3,23.683,10.615,36.52,1.031,41.9-2.913,83.111-8.845,124.557-11.264,78.811-20.827,156.949-41.008,234.138-18.56,71.05-43.236,138.678-90.79,195.514-44.973,53.753-103.812,93.532-165.679,125.125-16.051,8.188-32.53,14.595-49.077,21.6-17.44,7.4-34.23,16.607-51.334,24.794-36.392,17.416-72.912,34.578-109.282,52.04A636.326,636.326,0,0,1,0,884.724v1.969a615.451,615.451,0,0,0,162.394-47.947c36.439-16.583,72.346-34.483,108.541-51.576q26.35-12.454,52.492-25.349c17.311-8.555,35.525-14.777,52.928-23.149,61.338-29.6,119.007-67.338,165.843-117.261,45.862-48.882,72.9-106.888,92.592-170.421,23-74.231,35.906-150.207,45.957-227.121,5.272-40.427,12-80.682,14.72-121.409,1.227-18.364,1.053-36.684.6-55.057-.346-14.26-3.283-26.17-13.656-36.311" fill="#cf9455"/>
      <path id="Path_6408" data-name="Path 6408" d="M2979.516,260.525c-64.688-10.814-130.375-24.77-189.884-51.623-15.52-7.007-31.847-11.842-47.09-19.6-16.119-8.2-31.454-18.895-46.672-28.679a471.5,471.5,0,0,1-42.718-30.656c-13.066-10.617-39.063-29.7-40.311-47.946-2.452-36.332,46.071-51.516,73.524-59.346,38.531-10.975,81.134-10.7,120.2-2.776,60.317,12.211,116.011,39.572,172.953,62.445v-1.93c-56.873-22.676-112.311-49.4-172.444-62.332-33.859-7.274-69.569-7.354-103.615-1.273-27.2,4.87-59.741,15.5-80.811,34.439-8.164,7.356-10.662,16.514-11.494,27.025-1.2,15.034,9.969,24.043,19.7,34,22.874,23.383,50.512,41.595,78.057,58.839,62.146,38.866,133.151,61.913,204.293,78.15,21.97,5.007,44.1,9.239,66.309,13.054Z" transform="translate(-137.516 -0.654)" fill="#cf9455"/>
      <path id="Path_6409" data-name="Path 6409" d="M2985.869,211.1c-38.578-4.312-76.994-10.061-114.485-20.481A356.765,356.765,0,0,1,2799.5,162.1a289.262,289.262,0,0,1-30.045-18.674c-12.511-8.789-30.042-20.192-35.176-35.305-5.783-17.151,9.574-29.478,23.358-34.589,10.847-4.024,22.665-4.14,34.069-3.515,27.823,1.549,55.09,8.649,81.272,17.854,39.132,13.761,75.815,33.384,112.889,51.934v-2.011c-43.2-21.476-85.876-44.186-132.2-58.226-25.649-7.761-54.768-14.015-81.644-11.147-15.312,1.641-39.087,10.35-40.267,29-1.549,24.828,25.3,39.9,43.274,52.132,23.752,16.155,50.188,27.972,77.272,37.154,43.086,14.617,88.348,21.394,133.564,26.319Z" transform="translate(-143.869 -3.566)" fill="#cf9455"/>
      <path id="Path_6410" data-name="Path 6410" d="M646.723,185.957c-.208-30.39,1.447-60.051-17.4-85.713-16.25-22.111-47.692-24.261-72.509-20.422-34.206,5.283-67.175,22.712-97.566,38.474-30.736,15.946-59.914,34.715-86.523,56.954-5.146,4.3-11.818,6.522-16.675,10.811q-9.367,8.273-18.525,16.755c-13.045,12.086-25.556,24.725-37.63,37.783A512.638,512.638,0,0,0,240.9,317.88c-18.03,28.994-31,60.68-48.385,90.064-18.236,30.828-37.639,63.1-61.1,90.188-21.67,25.012-49.529,46.094-78.035,62.653-16.479,9.577-34.726,14.907-52.224,22.1-.393.161-.775.325-1.156.486v2.22c12.582-5,25.291-9.609,37.723-14.988,29.813-12.882,57.657-34.367,81.155-56.674,25.047-23.777,43.007-53.9,61.51-82.8,19.567-30.553,34.462-63,51.843-94.709,16.848-30.763,37.8-59.095,60.838-85.438,10.755-12.3,22.147-24.029,33.813-35.454,5.911-5.783,11.957-11.428,18.053-17.012,6.984-6.417,14.409-10.858,22.191-15.982,14.43-9.494,27.117-22.259,41.5-32.1A517.175,517.175,0,0,1,456.4,121.914c33.871-18.132,70.725-36.922,109.3-41.422,18.828-2.209,40.835,1.284,55.637,13.82,12.441,10.546,18.549,27.615,21.81,43.11,3.884,18.468,1.686,39.492,1.757,58.342a529.119,529.119,0,0,1-3.157,63.74c-2.118,17.924-1.678,35.779-3.944,53.693q-4.007,31.776-9.679,63.312c-6.767,37.41-15.729,74.913-28.889,110.611-26.4,71.619-75.652,128.654-136.248,173.741-29.268,21.773-61.428,40.58-95.669,53.229-34.52,12.766-70.251,22.62-103.718,37.979-50.663,23.243-97.533,53.493-149.3,74.494C77.388,841.529,39.131,853.37,0,860.4v1.941c54.547-9.668,107.638-28.54,157.248-52.779,33.571-16.421,65.685-35.686,99.278-52.083C292.178,740.087,330.7,729.691,367.82,715.9c62.411-23.175,121.631-65.7,165.459-115.813,22.376-25.581,42.464-53.532,56.537-84.582,14.883-32.829,24.713-67.847,32.818-102.9,8.28-35.814,13.705-72.241,18.2-108.715,1.052-8.5.567-17.185.567-25.742,0-9.319,2.337-19.162,3.3-28.448,2.186-21.149,2.174-42.51,2.023-63.741" transform="translate(0 -4.123)" fill="#cf9455"/>
      <path id="Path_6411" data-name="Path 6411" d="M1140.084,269.863c-5.39,21.473-5.656,46.986,13.343,61.752,7,5.435,24.055-.706,29.9-4.937,15.091-10.916,31.883-20.053,44.916-33.456,49.309-50.743,102.11-99,140.875-158.822,3.423-5.3,9.308-12.244,10.973-18.353.753-2.716-3.065-8.256-4.233-10.209-6.718-11.16-16.315-9.262-28.089-9.3-27.152-.057-54.109,6.373-79.144,16.619-49.438,20.237-91.646,58.952-114.289,107.627a176.235,176.235,0,0,0-14.257,49.079c-.175,1.179,1.617,1.688,1.791.5,15.138-104.043,120.417-178.967,222.62-171.3,11.231.843,14.087,16.05,9.668,23.59-3.559,6.093-7.4,12.014-11.308,17.888a484.955,484.955,0,0,1-30.7,40.718c-20.363,24.607-42.729,47.48-65.162,70.16-11.311,11.413-22.679,22.769-33.952,34.229-13.116,13.322-27.582,23.407-42.9,33.965-7.6,5.239-14.559,8.914-23.591,11.019-14.651,3.41-21.936-9.146-25.637-20.329-4.184-12.676-2.186-27.314.971-39.942a.929.929,0,0,0-1.791-.5" transform="translate(-59.877 -5.079)" fill="#cf9455"/>
      <path id="Path_6412" data-name="Path 6412" d="M1134.015,911.472c15.833,21.232,35.236,39.527,56.317,55.44,45.841,34.576,100.793,55.624,155.874,69.984,64.978,16.932,132.477,25.027,199.458,27.061,39.873,1.228,79.746,1.272,119.525,4.581a422.6,422.6,0,0,1,117.562,27.406c71.952,27.891,115.941,94.757,166.8,149.339,50.049,53.749,102.989,104.818,159.192,152.021q18.317,15.4,37.167,30.113h3.1a1662.736,1662.736,0,0,1-142.656-126.21c-26.32-26.019-51.76-52.894-76.671-80.277-24.514-26.945-47.065-56.2-73.686-81.114-52.176-48.868-126.165-67.81-195.619-73.57-39.734-3.285-79.677-3.1-119.5-4.3-39.653-1.227-78.589-5.458-117.792-11.428-115.6-17.53-242.153-59.368-304.854-166.245-21.036-35.849-24.33-75.744-6.522-113.884,15.751-33.732,37.2-64.4,59.889-93.726,21.65-28,46.05-54.247,65.4-83.922,20.676-31.731,38.739-64.584,61.207-95.16,23.775-32.347,48.177-64.227,75.157-93.983,11.922-13.149,23.985-26.158,36.4-38.843,6.278-6.418,12.731-12.664,19.255-18.838,6.117-5.8,13.714-8.547,19.856-14.12,53.264-48.349,119.734-78.106,187.292-100.228,32.979-10.812,66.538-19.785,100.052-28.747,7.33-1.956,14.71-3.758,22-5.921,5.9-1.757,11.008-5.123,17.393-6.627,19.195-4.5,38.3-9.366,57.24-14.838,17.232-4.971,34.045-9.794,51.579-13.634,5.944-1.305,10.269-1.895,15.263-5.215,8.187-5.436,22.528-6.151,32.01-8.417,39.688-9.53,79.467-18.828,120.127-22.957,78.243-7.966,155.631,13.057,229.364,37.214,76.879,25.187,150.01,60.26,224.531,91.345,17.438,7.275,34.9,14.456,52.316,21.776,19.219,8.071,37.4,18.353,56.477,26.77,6.639,2.915,14.108,3.273,20.908,6.361,7.124,3.237,14.316,6.325,21.533,9.379,18.525,7.839,37.353,14.906,56.364,21.462a821.771,821.771,0,0,0,186.506,40.822v-1.909a843.163,843.163,0,0,1-194.762-43.769c-18.9-6.639-37.538-14.064-55.947-21.962-7.056-3.041-14.132-7.216-21.441-9.6-9.644-3.167-18.988-5.365-28.308-9.9-33.443-16.283-67.466-30.495-101.788-44.847C2423.1,217.2,2349.9,182.031,2272.724,157.736c-71.906-22.619-144.944-41.32-220.9-34.405-37.606,3.434-74.588,12.062-111.245,20.783-13.9,3.306-32.034,4.358-44.084,12.339-6.5,4.325-17.691,4.67-25.256,6.347-10.338,2.3-20.191,5.158-30.3,8.28-17.277,5.319-34.76,9.843-52.293,14.144-8.141,2-16.468,3.538-24.491,5.909-1.274.381-3.494,2.1-4.557,2.823-4.372,2.9-10.8,3.571-15.773,4.9-33.583,8.963-67.119,17.948-100.261,28.378-62.979,19.811-124.108,46.2-176.609,86.95-6.672,5.183-13.09,10.686-19.4,16.283-5.274,4.685-11.356,6.257-16.515,11-14.224,13.09-27.694,27-40.913,41.11-24.955,26.656-49.448,54.247-71.038,83.738-22.9,31.245-45.068,61.972-64.853,95.3-19.9,33.512-43.585,63.244-67.952,93.507-21.486,26.691-42.242,53.97-59.8,83.469-17.275,29.026-30.308,58.979-28.377,93.44,1.641,29.441,18.792,56.478,35.906,79.443" transform="translate(-57.824 -6.419)" fill="#cf9455"/>
      <path id="Path_6413" data-name="Path 6413" d="M2867.443,1492.208c39.134-48.5,75.074-101.625,125.449-137.82v-2.338c-51.484,36.612-87.911,90.871-127.853,140.158Z" transform="translate(-150.892 -71.208)" fill="#cf9455"/>
      <path id="Path_6414" data-name="Path 6414" d="M604.029,192.387c-5.656-23.695-30.1-48.731-54.836-48.778-13.971-.024-28.993-2.082-42.533,1.816A354.247,354.247,0,0,0,459.5,163.072c-59.371,26.736-115.376,69.883-155.516,121.285-40.046,51.286-65.936,111.929-97.345,168.512-27.43,49.412-59.557,94.838-107.153,126.466-21.962,14.581-46.372,25.059-71.607,32.344-3.1.9-4.473,3.747-7.47,5.008-6.418,2.683-13.6,4.29-20.41,6.153v1.895q1.127-.328,2.255-.659C16.8,619.8,28.922,613.656,43.075,608.915A249.238,249.238,0,0,0,118.718,567.8c51.45-41.061,82.418-99.207,112.356-156.705,31.2-59.879,62.273-120.231,112.022-167.02,25.523-24,54.744-44.916,84.9-62.586a371.578,371.578,0,0,1,47.354-23.21c17.6-7.2,35.8-14.421,55.022-12.64,7.656.706,15.162-.16,22.816-.149,12.015.024,22.573,8.684,30.542,16.825,14.523,14.849,20.05,34.671,23.336,54.562,6.674,40.323,4.175,81.689-.093,122.1-3.943,37.411-9.194,74.693-19.323,110.983A344.888,344.888,0,0,1,567.8,503.1c-3.84,8.223-8.211,16.179-12.768,24.02a11.382,11.382,0,0,0-1.213,2.74c-.324,5.77-2.51,9.287-5.515,14.039A341.968,341.968,0,0,1,401.586,672.263c-36.16,16.491-75.374,23.418-113.177,34.935-17.578,5.355-33.488,13.739-50.673,19.993-17.439,6.362-32.4,14.641-48.257,24.332-36.532,22.3-73.966,43.088-113.491,59.578C51.772,821.208,26.031,827.939,0,832.957v1.436q28.1-5.657,55.763-13.415c33.247-9.414,65.754-28.193,95.739-44.962,15.83-8.858,31.361-18.248,46.834-27.731,16.827-10.314,34.289-16.107,52.189-23.993,37.225-16.4,75.964-24.517,114.74-36.323,60.064-18.308,113.247-54.631,154.24-102.078a369.243,369.243,0,0,0,26.045-34.4c8.66-12.78,12.789-25.777,19.889-39.388,16.234-31.144,26.17-65.188,32.993-99.522,14.1-70.967,22.584-149.152,5.6-220.191" transform="translate(0 -7.534)" fill="#cf9455"/>
      <path id="Path_6415" data-name="Path 6415" d="M1532.272,1037.916c64.9,2.453,130.4-.717,195.063,5.966,32.657,3.377,65.153,9.831,95.359,23.061,31.545,13.783,54.906,36.1,76.161,62.7,24.285,30.461,46.3,62.677,69.8,93.738,21.879,28.935,45.862,54.908,71.536,80.419,12.259,12.187,24.007,24.908,36.4,36.982,14.364,13.969,30.229,26.273,45.654,39.016,20.1,16.63,40.222,33.214,60.689,49.38h2.984c-22.272-17.53-44.082-35.618-65.939-53.658-28.979-23.938-54.9-49.633-81.525-76.092a777.023,777.023,0,0,1-76.232-87.68c-21.649-29.023-42.349-58.721-64.945-87.031-19.7-24.7-41.77-44.173-70.356-57.889-26.5-12.72-55.715-19.01-84.649-23.036-62.77-8.695-127.02-5.572-190.229-7.145-133.427-3.31-278.314-24.541-371.034-131.509-11.357-13.115-20.631-27.869-26.483-44.267-6.708-18.8-5.03-38.6-1.412-57.844,6.94-36.957,25.581-70.818,44.21-102.967,19.034-32.854,42.035-64.066,64.182-94.86,22.076-30.716,47.262-59.035,65.662-92.13,9.054-16.284,22.016-30.427,32.829-45.6a412.021,412.021,0,0,1,41.237-49.1c27.4-28.158,55.4-55.808,87.3-78.877,31.34-22.68,63.812-41.563,98.572-58.493,35.688-17.391,73.3-30.471,110.947-42.9,72.3-23.867,146.355-42.079,220.945-56.985,80.232-16.041,163.608-35.307,245.02-15.809,68.3,16.362,135.554,31.085,201.308,56.408,69.73,26.876,137.2,59.257,205.7,89.058,60.341,26.25,121.884,57.022,187.245,67.857,5.9.97,11.818,1.619,17.762,2.221,5.019.495,12.3-.116,16.723,2.485,1.248.729,3.145,2.395,4.577,2.81,15.127,4.486,31.734,5.7,47.367,7.539,18.087,2.142,36.1,4.292,53.936,7.982,1.272.265,2.544.507,3.816.751v-1.817c-7.333-1.376-14.641-2.994-21.88-4.173-19.2-3.157-38.625-4.708-57.891-7.437-8.28-1.179-19.428-1.493-26.737-5.793-4.578-2.683-5.644-3.334-11.055-3.575-20.4-.947-40.567-4.973-60.272-10.22-36.4-9.715-71-25.36-105.532-40.174-36.311-15.588-72.578-31.167-108.635-47.334-70.61-31.649-141.544-64.711-215.831-86.823-36.729-10.927-74.312-18.72-111.641-27.268-38.093-8.707-74.913-13.888-114.116-12.224-38.438,1.644-76.137,9.832-113.86,16.748q-56.722,10.388-112.889,23.532c-73.894,17.345-146.7,39.227-217.567,66.492A583.1,583.1,0,0,0,1438.73,378.5c-26.712,24.737-54,50.755-75.04,80.533-10.743,15.206-24.318,29.383-33.708,45.319-10.859,18.444-21.474,35.664-34.671,52.582-45.053,57.775-90.431,118.869-122.672,184.922-14.178,29.025-25.117,61.289-24.643,93.971.406,28.055,16.5,53.1,34.208,73.525,86.847,100.214,224.8,123.852,350.068,128.568" transform="translate(-60.46 -8.177)" fill="#cf9455"/>
      <path id="Path_6416" data-name="Path 6416" d="M2833.063,1490.687c25.58-29.974,49.726-61.174,75.631-90.871a623.281,623.281,0,0,1,52.569-53.749c9.091-8.188,19.267-14.849,29.813-20.979v-1.918a238.719,238.719,0,0,0-24.146,15.75c-19.706,14.918-36.845,34.229-53.335,52.525-28.864,32.055-55.021,66.446-83.029,99.243Z" transform="translate(-149.077 -69.687)" fill="#cf9455"/>
      <path id="Path_6417" data-name="Path 6417" d="M1259.814,918.331c43.6,41.029,100.643,63.95,158.382,76.069,28.98,6.058,58.539,9.182,88.062,10.778,37.119,2.011,74.425,3.816,111.638,3.676,36.752-.137,73.341-4.092,110.137-4.255,39.6-.161,79.309,2.615,118.232,10.155,33.512,6.475,58.469,29.672,76.9,57.24,9.8,14.688,20.791,28.657,29.094,44.269q12.661,23.8,25.625,47.436c16.791,30.438,34.069,60.2,55.438,87.68a708.037,708.037,0,0,0,67.444,74.541c25.44,24.586,52.478,47.576,78.936,71.005,14.434,12.789,30.09,23.543,45.887,34.114h1.549q-4.472-3.052-8.834-6.221a549.656,549.656,0,0,1-47.736-38.6c-26.876-24.377-54.63-47.643-80.372-73.269a653.39,653.39,0,0,1-70.91-83.7c-21.765-30.6-39.063-64.76-56.8-97.81-15.865-29.557-33.86-60.432-56.849-85.089-20.723-22.248-46.694-31.5-75.883-36.356-38.37-6.407-77.41-7.678-116.219-7.124-39.8.554-79.282,4.649-119.135,3.955-127.575-2.267-282.452-9.6-364.212-124.639a115.887,115.887,0,0,1-19.877-46.512c-3.714-20.559,2.5-41.213,8.441-60.709,10.257-33.747,26.215-65.442,43.944-95.788,17.126-29.339,36.335-57.415,54.825-85.9,20.422-31.477,39.584-63.395,62.6-93.1,45.446-58.664,99.105-111.814,160.44-153.537,14.409-9.8,29.3-18.838,44.43-27.43,7.586-4.3,15.288-8.373,23.014-12.384,9.412-4.869,22.6-13.923,33.28-14.5,5.643-.311,10.316-2.982,15.475-5.227,10.105-4.381,20.4-8.417,30.691-12.339,19.148-7.285,38.623-13.7,58.166-19.821,76.325-23.892,153.989-46.011,233.412-56.373,79.538-10.386,158.266-6.361,236.463,11.229,63.233,14.224,124.615,35.685,186,56.248,14.8,4.961,28.447,12.663,42.14,20.029,12.557,6.743,24.7,11.1,38.137,15.588,33.307,11.148,64.6,28.493,95.984,44.174,25.855,12.929,52.547,22.471,79.7,32.612,30.921,11.553,62.931,20.1,95.2,26.945,50.351,10.683,101.649,16.293,152.971,20.133v-1.92c-64.62-4.926-129.031-12.825-191.849-29.348-17.439-4.593-34.623-10.027-51.576-16.076-8.536-3.03-16.953-6.359-25.327-9.794-6.728-2.763-16.836-9.876-24.4-10.281-10.454-.566-20.377-7.168-29.559-11.784q-12.661-6.332-25.3-12.593-28.032-13.912-56.34-27.3c-14.388-6.79-30.624-9.009-45.032-15.948-15.5-7.481-30.157-16.512-46.071-23.21-35.271-14.835-73.5-25.128-110.021-36.415-72.437-22.4-146.725-39.365-222.8-40.219-76.6-.854-154.472,11.357-228.044,32.416-37.768,10.811-75.7,21.045-113.19,32.91q-27.023,8.569-53.588,18.677-11.24,4.284-22.317,8.984c-8.3,3.527-17.67,4.51-25.627,8.21-64.944,30.137-125.7,69.617-177.08,119.816a910.2,910.2,0,0,0-73.284,80.348c-22.007,27.386-40.624,56.758-59.369,86.406-35.56,56.26-75.2,110.241-99.728,172.654-11.5,29.256-22.135,61.242-15.058,92.768,6.638,29.6,28.332,54.374,49.761,74.519" transform="translate(-63.609 -10.037)" fill="#cf9455"/>
      <path id="Path_6418" data-name="Path 6418" d="M2794.917,1488.788c32.38-32.565,58.237-71.026,86.5-107.338,30.206-38.834,64.989-70.681,107.639-92.213v-2.127c-39.365,19.613-72.438,47.921-101,83.007-32.171,39.5-59.856,82.752-95.844,118.671Z" transform="translate(-147.056 -67.788)" fill="#cf9455"/>
      <path id="Path_6419" data-name="Path 6419" d="M1376.946,945.363c123.134,59.393,263.465,41.306,393.84,23.013,30.623-4.3,62.169-11.54,93.184-9.113,32.726,2.567,59.393,18.733,79.884,43.828,23.266,28.494,32.749,62.353,46.164,95.96a862.555,862.555,0,0,0,39.849,85.665c30.67,57.567,69.155,110.762,115.573,156.509,24.076,23.731,51.923,42.4,78.5,63.047,12.556,9.762,25.186,19.43,38.369,28.172h3.377c-19.081-12.4-36.913-26.852-54.931-40.752-14.987-11.564-30.667-22.063-45.076-34.369-14.225-12.142-27.362-25.6-40.126-39.272-50.006-53.517-88.444-117.7-118.7-184.215-26.342-57.937-39.318-134.306-101.7-165.436-25.324-12.63-53.8-12.928-81.2-9.3-34.322,4.578-68.6,9.713-102.944,14.177-68.019,8.837-136.826,14.826-205.285,7.934-70.877-7.124-147.224-30.623-202.583-77.227-26.18-22.063-44.394-53.147-47.343-87.562-3.354-39.134,12.108-78.671,27.731-113.63,15.821-35.386,35.12-68.09,54.548-101.521,4.615-7.946,8.13-17.116,15.519-22.852,5.066-3.943,7.61-8.441,11.056-13.888,10.015-15.8,20.734-31.117,31.918-46.094a723.03,723.03,0,0,1,72.923-82.787c13.448-13.229,27.187-25.06,42.846-35.582,16.05-10.766,28.678-25.06,44.82-35.793,15.544-10.326,31.27-20.374,47.438-29.706,18.918-10.918,40.589-18.539,60.711-26.912,36.983-15.391,74.5-29.476,112.286-42.717,74.219-26.007,155.886-39.191,234.1-44.406,74.937-4.983,150.171,4.036,223.05,21.521,117.607,28.2,228.462,79.285,336.377,132.918,55.276,27.477,116.911,42.243,177.371,53.288,49.586,9.054,99.776,14.281,150.056,17.485v-1.92c-67.211-4.348-134.121-12.488-199.8-27.776-38.394-8.929-79.446-19.058-114.834-36.785-33-16.526-66.169-32.7-99.66-48.189-130.7-60.447-269.327-109.582-414.527-113.526-154.752-4.2-304.714,43.574-444.756,105.362-17.23,7.6-33.074,16.756-49.008,26.852-15.68,9.956-31.569,19.4-44.707,32.6-12.167,12.2-27.314,20.446-40.833,30.992-14.583,11.379-27.582,25.985-40.382,39.3a715.106,715.106,0,0,0-65.176,78.624c-5.043,7.007-9.9,14.144-14.687,21.324-4.869,7.321-9.03,16.547-15.46,22.6-4.926,4.625-7.829,6.545-11.171,12.639-5.284,9.632-10.894,19.081-16.515,28.517-18.906,31.791-36.275,63.893-50.615,98.076-13.564,32.311-24.319,66.517-22.493,102,3.32,64.3,60.792,103.752,113.017,128.94" transform="translate(-66.556 -11.444)" fill="#cf9455"/>
      <path id="Path_6420" data-name="Path 6420" d="M2758.241,1487.529c38.765-35.686,69.084-79.677,102.066-120.8,21.116-26.32,43.921-51.437,70.725-72.045,17.325-13.3,36.291-22.155,56.088-29.464v-2.013c-17.462,6.361-34.3,13.947-50.12,24.839-26.483,18.226-48.686,42.187-69.268,66.68-37.307,44.43-69.433,93.739-112.288,132.8Z" transform="translate(-145.12 -66.529)" fill="#cf9455"/>
      <path id="Path_6421" data-name="Path 6421" d="M218.048,629.508c6.013,5.03,11.043,11.043,16.861,16.282,4.407,3.954,10.443,4.372,16.017,5.551,17.253,3.666,35.144,4.06,52.71,3.783,31.42-.485,63.268-1.863,93.426-11.231,47.17-14.674,87.46-45.643,117.457-84.578,30.471-39.551,49.529-87.287,59.173-136.078a368.193,368.193,0,0,0,6.674-75.651,351.623,351.623,0,0,0-2.58-37.536c-1.331-11.323-1.942-24.991-7.5-35.039-6.939-12.561-10.871-26.992-21.938-36.567-9.194-7.943-20.33-13.322-32.24-14.039-14.674-.89-29.869-1.5-43.667,3.7a275.463,275.463,0,0,0-34,15.762c-43.4,23.534-78.728,59.372-107.188,99.394C302.167,384.163,280.473,430,261.6,476.388c-9.575,23.522-18.283,47.4-26.748,71.35-4.279,12.084-8.464,24.193-12.652,36.312-5.226,15.079-5.423,28.806-4.429,44.8.081,1.2,1.942,1.215,1.874,0-1.132-18.179.485-33.142,6.418-50.283,4.58-13.206,9.17-26.4,13.866-39.56,9.656-27.106,19.845-54.026,31.118-80.5,22.066-51.831,49.031-102.169,85.8-145.06a312.51,312.51,0,0,1,62.77-55.982,276.192,276.192,0,0,1,34.7-19.6c7.124-3.422,14.466-6.395,21.858-9.182,10.662-4.012,23.889-2.636,35.141-2.555,40.671.3,58.758,43.284,63.824,77.989a357.512,357.512,0,0,1,1.989,81.318C570.709,462.1,539.313,538.718,482.7,591.624A230.873,230.873,0,0,1,381.16,646.4c-24.771,6.222-52.073,6.186-77.525,6.846a271.636,271.636,0,0,1-43.677-2.244c-9.218-1.249-19.347-2.613-26.587-9.123-4.879-4.372-8.95-9.471-14-13.692-.914-.777-2.242.542-1.319,1.317" transform="translate(-11.444 -11.787)" fill="#cf9455"/>
      <path id="Path_6422" data-name="Path 6422" d="M1398.154,905c11.83,7.863,22.805,11.032,35.376,17.09a270.234,270.234,0,0,0,49.159,17.461c68.1,17.671,140.977,9.206,209.3-2.751,37.744-6.615,74.8-16.792,111.618-27.384,17.854-5.158,35.661-10.432,53.54-15.567,20.491-5.873,39.549-13.9,61.221-9.388,32.285,6.728,57.8,29.673,75.166,56.826,18.432,28.771,25.208,62.052,31.663,95.079,12.812,65.8,31.662,127.622,65.477,185.7,52.522,90.224,131.066,165.2,224.205,211.717h4.184c-100.052-49.056-182.365-130.86-236.023-229.062-7.216-13.206-13.762-26.761-19.891-40.52-2.752-6.245-2.567-13.414-5.457-19.4a264.006,264.006,0,0,1-12.975-32.219c-11.47-34.578-15.958-71.119-23.913-106.575-12.074-53.7-42.372-106.829-98.388-122.487-13.369-3.723-26.759-3.053-40.012.717-19.058,5.436-38.092,11.356-57.15,16.929-36.728,10.733-73.478,21.324-110.9,29.35-73.477,15.774-152.946,25.14-227,8.235a270.85,270.85,0,0,1-52.87-18.271c-4.012-1.852-10.21-6.939-14.595-7.193-9.134-.533-16.651-7.148-24.064-12.074-29.95-19.868-57.96-45.517-66.424-81.829-8.87-38.044,1.977-78.692,15.391-114.264,13.9-36.865,33.026-71.536,53.275-105.223,18.122-30.146,41.237-58.755,63.188-86.174a559.755,559.755,0,0,1,68.218-71.859c12.581-11.012,26.92-20.006,38.694-31.838,14.152-14.2,31.43-24.769,48.2-35.605a798.459,798.459,0,0,1,90.454-50.419c64.83-30.8,134.1-49.7,204.432-62.783,39.709-7.378,78.174-15.97,118.762-16.72,40.5-.75,81.667,2.856,121.609,9.343,67.72,11,134.883,31.859,199.388,54.941,68.991,24.678,134.12,58.3,200.522,89.136,29.535,13.716,59.256,26.425,90.107,36.89,15.473,5.251,31.733,9.033,47.715,12.247,6.868,1.376,13.992,1.551,20.952,1.7,9.113.209,16.214,2.2,24.818,4.637,5.619,1.585,12.6,1.052,18.387,1.481,9.736.741,19.448,1.538,29.187,2.335,17.808,1.468,35.618,3.031,53.449,4.557,25.187,2.15,50.374,4.211,75.607,5.956v-1.874c-28.47-1.977-56.9-4.347-85.32-6.8q-29.177-2.5-58.33-4.9-14.571-1.179-29.166-2.219c-8.673-.625-15.449-5-24.33-5.007-38.068-.036-74.868-14.317-109.975-27.823-38.831-14.942-76.254-34.012-113.861-51.82-34.807-16.49-69.546-34.994-105.672-48.3q-54.052-19.911-109.073-36.484c-74.565-22.551-149.408-37.839-227.443-39.793-38.3-.959-74.4,4.279-111.754,11.853-35.966,7.3-72.024,13.739-107.593,23-65.085,16.953-127.09,43.61-185.119,77.586-14.616,8.557-28.91,17.681-43.018,27.07-7.24,4.825-14.386,9.794-21.509,14.8-8.164,5.748-13.878,14.19-22,20.052-26.322,19.082-50.177,41.354-72.1,65.35-46.152,50.5-87.077,108.2-118.533,168.952-16.259,31.409-30.516,64.689-37.929,99.406-6.349,29.7-8.13,66.008,7.089,93.459,14.352,25.881,37.849,44.731,62.041,60.784" transform="translate(-69.749 -12.775)" fill="#cf9455"/>
      <path id="Path_6423" data-name="Path 6423" d="M2709.881,1485.761c51.277-37.7,85.9-93.762,126.19-143.327,40.267-49.517,87.771-93.668,148.483-110.9v-1.9c-56.781,15.96-102.158,55.161-141.013,100.886-44.752,52.662-80.741,114.946-136.826,155.237Z" transform="translate(-142.554 -64.761)" fill="#cf9455"/>
      <path id="Path_6424" data-name="Path 6424" d="M2760.977,1399.574c33.327-42.4,59.67-90.385,98.179-128.548,33.351-33.027,77.317-51.807,122.834-61.335v-1.781a323.841,323.841,0,0,0-63.649,20.353c-28.979,12.789-53.033,32.4-74.2,55.807-46.741,51.691-77.062,115.989-129.472,162.916a232.684,232.684,0,0,1-56.641,37.63h3.887c39.641-19.15,71.813-50.375,99.058-85.042" transform="translate(-139.99 -63.617)" fill="#cf9455"/>
      <path id="Path_6425" data-name="Path 6425" d="M1573.578,920.061c73.873,4.578,145.894-15.982,211.461-49.01,13.763-6.916,27.916-10.984,41.839-17.671a286.906,286.906,0,0,1,49.541-18.248c33.722-9.042,69.733-9.2,101.926,5.3,32.1,14.477,55.092,47.157,68.39,78.912,12.792,30.531,17.209,64.09,20.678,96.768,1.666,15.612,3.005,31.271,4.672,46.881.693,6.594,1.459,13.185,2.36,19.752,1.573,11.5,5.9,22.319,6.613,33.908.949,15.24,5.158,28.886,11.379,42.763,3.912,8.744,8.974,16.7,12.628,25.6,3.077,7.563,5.783,15.172,9.345,22.5,3.816,7.863,9.713,14.57,14.153,22.087,4.349,7.354,8.071,15.1,12.375,22.5.622,1.064,4.209,4.277,5.111,5.18,9.968,10.015,1.825,3.886,5.852,10.061,4.441,6.778,10.037,12.514,13.922,19.752,3.308,6.153,10.223,11.913,14.85,17.139,5.8,6.521,11.794,12.906,17.879,19.172a524.946,524.946,0,0,0,40.959,38c36.636,30.668,78.613,56.224,123.413,73.734h8.026c-48.9-18.016-95.011-45.655-133.427-77.826-27.638-23.153-55.346-49.8-75.376-79.91-3.608-5.457-7.147-11.125-10.662-16.488-4-6.129-9.53-10.662-13.184-17.256-9.528-17.3-21.37-33.212-28.538-51.644-6.107-15.636-14.665-29.882-20.723-45.494a90.659,90.659,0,0,1-6.107-29.881c-.323-9.3-4.233-17.557-5.6-26.623-4.9-32.309-6.36-65.013-10.8-97.369-8-58.261-28.516-122.834-83.77-152.161-52.826-28.008-116.983-8.974-166.8,16.19-6.639,3.354-13.23,2.82-19.753,6.382-7.955,4.348-16.073,8.42-24.261,12.351a489.269,489.269,0,0,1-57.149,22.965c-38.324,12.836-76.6,19.15-116.96,20.169-71.882,1.781-158.323-17.786-201.725-80.485-43.156-62.354-3.249-144.876,27.361-203.7,29.489-56.688,68.727-107.882,113.884-152.843a706.717,706.717,0,0,1,75.006-64.435c12.373-9.275,25.093-18.076,38-26.588,15.079-9.921,28.794-20.374,44.846-28.678,16.468-8.5,32.841-17.2,49.31-25.708,16.72-8.638,35.778-14.246,53.54-20.964,34.37-13.021,70.336-21.417,105.928-30.265,153.294-38.092,317.9,1.042,460.137,61.37,46.188,19.579,91.312,41.574,136.688,62.946,22.549,10.616,45.216,21.046,68.067,31.025,22.3,9.739,44.939,20.435,68.39,26.969,21.627,6.013,44.683,7.285,66.886,9.54,27.872,2.834,55.831,4.372,83.795,5.6,42.163,1.838,84.372,2.752,126.511,5.135v-1.9c-70.08-3.99-140.387-3.931-210.306-10.71-19.358-1.873-38.879-3.654-57.958-7.481s-37.121-12.247-55-19.66c-37.4-15.508-74.01-32.806-110.576-50.119-68.69-32.517-137.38-65.025-209.843-88.255A989.022,989.022,0,0,0,2160.3,281.142c-36.357-7.157-72.483-10.245-109.467-11.968-75.212-3.493-148.553,11.783-220.341,33.155a507.234,507.234,0,0,0-49.24,17.474c-6.8,2.809-13.787,3.8-20.607,6.035-8.651,2.823-17.232,8.755-25.327,12.941-16.467,8.547-32.866,17.243-49.356,25.72-15.38,7.9-28.518,19.022-42.994,28.679-103.061,68.655-188.8,163.54-239.02,277.585-24.113,54.732-46.417,121.677-5.054,174.363,41.492,52.85,110.449,70.958,174.688,74.937" transform="translate(-72.462 -14.15)" fill="#cf9455"/>
      <path id="Path_6426" data-name="Path 6426" d="M2917.8,1136.478c-55.554,8.212-109.142,20.238-152.67,59.927-23.314,21.278-39.826,49.263-56.272,75.975-16.419,26.691-32.356,53.7-52.037,78.174-46,57.265-116.358,83.934-188.7,80.116-74.588-3.956-147.118-38.322-203.435-86.684-53.7-46.118-98.527-104.725-124.177-171.381-27.545-71.628-17.185-150.657-27.778-225.407a339.813,339.813,0,0,0-10.848-50.791,212.2,212.2,0,0,0-7.794-20.932c-3.791-8.972-11.147-17.69-11.7-27.566-.462-7.909-14.778-20.98-19.937-26.552a158.693,158.693,0,0,0-33.419-26.876c-50.627-31.22-112.844-28.861-167.7-11.842-67.443,20.932-125.171,64.828-193.029,84.4-69.338,20.029-155.768,14.919-204.916-44.547a102.73,102.73,0,0,1-21.279-45.862c-3.84-19.659,2.29-40,4.083-59.59,1.653-18.039,10.534-34.958,18.016-51.3,6.928-15.15,14.641-29.917,22.829-44.419,32.079-56.894,73.93-107.858,121.621-152.207,106.066-98.574,244.7-161.6,389.524-169.728,38.834-2.173,77.85.394,116.219,6.325,38.533,5.945,75.261,18.7,111.874,31.663q58.041,20.542,114.321,45.678c15.589,6.952,31.317,11.312,46.58,19.118,17.995,9.227,35.9,18.627,53.821,28.006,38.462,20.121,77.015,40.023,116.474,58.074q12.974,5.917,26.087,11.484c10.108,4.292,21.9,5.264,32.7,6.964,20.513,3.237,41.237,5.087,61.959,6.336,79.815,4.821,159.723-2.324,239.586-1.493v-1.882c-68.737-.809-137.451,4.047-206.19,2.786-41.351-.775-82.636-4.381-123.2-12.661-9.784-2-20.816-9-30-13.149-8.512-3.863-16.976-7.855-25.4-11.879-18.156-8.672-36.127-17.749-54.027-26.945-34.578-17.738-68.83-36.077-103.477-53.667-5.087-2.591-9.388-5.319-15.124-5.632-10.153-.555-22.667-8.8-31.987-12.881-17.461-7.657-35.132-14.9-52.871-21.882-36.635-14.408-73.9-28.03-111.664-39.107-35.316-10.352-72.09-14.654-108.681-17.081-139.646-9.286-282.926,41.875-393.92,125.192a676.18,676.18,0,0,0-131.623,130.524,610.392,610.392,0,0,0-51.634,80.534c-7.309,13.553-13.945,27.453-20.166,41.537-5.99,13.544-12.64,26.865-13.518,41.69-1.042,17.4-5.54,34.1-5,51.659.428,13.944,5.747,27.615,12.306,39.734,13.956,25.832,39.027,44.751,65.463,56.131,60.331,25.926,133.138,16.329,191.745-9.829,65.847-29.4,127.53-71.4,200.43-81.158,64.783-8.673,130,14.849,168.142,69.336,3.008,4.28,2.5,8.768,4.625,13.209,4.6,9.552,9.784,18.409,13.716,28.331,6.939,17.509,10.8,36.174,13.878,54.7,6.567,39.62,7.446,79.493,9.182,119.526,1.573,36.521,5.3,71.93,17.093,106.668,10.638,31.317,26.9,60.435,45.213,87.794,8.581,12.836,17.879,25.188,27.385,37.377,11.008,14.109,24.446,25.117,36.889,37.906,22.8,23.477,49.633,42.7,77.918,58.862,60.479,34.578,129.7,52.779,199.366,43.111,41.562-5.78,83.332-26.483,113.884-55.021,29.9-27.963,50.788-64.3,71.976-98.9,26.087-42.625,53.357-84.28,98.641-108.31,34.045-18.065,72.483-24.864,110.623-30.043Z" transform="translate(-75.802 -15.614)" fill="#cf9455"/>
      <path id="Path_6427" data-name="Path 6427" d="M314.421,556.985c5.828,9.736,11.115,24.642,21.6,30.563a108.248,108.248,0,0,0,43.527,13.76c26.7,2.58,52.79-8.128,74.6-22.722,42.649-28.528,69.629-77.26,81.805-126.234a221.2,221.2,0,0,0,5.135-78c-2.347-20.942-7.967-43.412-25.417-56.919-16.583-12.848-37.121-16.247-57.487-12.744-26.006,4.476-44.43,22.853-62,41.181-54.189,56.48-87.773,131.4-81.888,210.64.092,1.2,1.956,1.215,1.864,0-5.078-68.4,19.207-132.826,61.114-186.089,18.6-23.637,41.434-50.733,70.427-61.047,24.943-8.869,54.1-4.14,72.82,15.127,19.657,20.226,20.78,55.482,19.981,81.989-.891,29.616-8.348,58.953-20.085,86.049-22.528,52.037-69.444,103.3-129.079,107.093-16.157,1.018-32.148-2.948-46.754-9.62-15.022-6.859-20.585-20.666-28.552-33.976a.935.935,0,0,0-1.609.95" transform="translate(-16.518 -15.979)" fill="#cf9455"/>
      <path id="Path_6428" data-name="Path 6428" d="M2920.927,1115.779c-5.5.393-10.987.81-16.491,1.319-7.446.694-14.87,1.665-22.3,2.821-4.348.67-8.7,1.6-13,2.52-6.036,1.295-13.414-.531-19.219,1.018-31.224,8.3-63.234,15.356-89.971,34.461-12.789,9.135-22.411,22.227-32.609,34-12.352,14.248-22.6,29.559-32.219,45.772-19.428,32.795-35.225,68.3-59,98.293-45.771,57.683-115.388,76.949-186.53,70.079-68.993-6.66-133.056-43.2-182.275-90.871-48.868-47.343-84.649-107.546-101.047-173.693-4.762-19.195-6.29-38.879-8.881-58.467-2.568-19.52-4.509-38.95-3.283-58.654,1.18-18.8,4.579-37.4,5.5-56.248.855-17.715-1.5-35.457-3.932-52.964-8.952-64.367-34.762-128.293-94.849-159.585-57.011-29.7-128.177-29.64-189.536-17.125-65.57,13.378-119.735,50.937-180.725,76.333-29.3,12.211-60.528,20.354-92.444,17.81-33.907-2.708-70.657-20.192-87.609-50.768-14.548-26.251-11.507-59.161-2.024-86.477a138.991,138.991,0,0,1,9.182-20.226c3.33-6.174,2.728-12.315,5.689-18.849,7.067-15.53,14.93-30.679,23.326-45.516,32.612-57.82,75.791-109.049,125.7-152.521,54.258-47.239,116.844-84.881,184.773-108.552,36.564-12.744,74.519-20.226,112.889-24.886,42.232-5.135,82.174-2.416,123.711,6.257,38.649,8.059,75.7,18.849,112.2,33.941,37.353,15.439,73.688,33.282,109.652,51.667,34.992,17.879,70.032,35.817,104.425,54.839q22.931,12.68,45.33,26.274a230.325,230.325,0,0,1,24.263,17.322c6.868,5.5,15.08,8.7,21.324,14.987,9.481,9.518,28.631,11.216,41.073,15.391,14.919,5.019,28.172,11.148,44.222,12.387,39.226,3,79.769-4.256,118.625-9.021,41.353-5.065,82.614-10.7,124.083-14.525q31.013-2.859,62.145-3.874c6.615-.219,13.206-.289,19.821-.323v-1.9q-7.493.054-14.987.208c-20.77.438-41.515,1.826-62.216,3.586-39.849,3.387-79.514,8.777-119.2,13.748-37.977,4.766-76.786,10.987-115.132,10.883a130.45,130.45,0,0,1-49.031-9.911c-17.786-7.342-39.04-8.915-53.055-22.978-4.741-4.776-13.81-7.943-19.243-12.3a178.414,178.414,0,0,0-17.855-12.905c-16.121-10.039-32.635-19.438-49.241-28.668-34.322-19.092-69.454-36.913-104.4-54.836-68.483-35.12-137.565-67.258-213.011-83.817-38.369-8.417-74.958-13.067-114.3-10.2a546.753,546.753,0,0,0-108.424,19.23c-66.1,18.654-127.367,52.166-181.788,93.843A597.745,597.745,0,0,0,1569.8,570.172a579.675,579.675,0,0,0-48.037,85.159c-2.73,5.909-2.579,13.367-5.691,18.849a118.38,118.38,0,0,0-7.029,14.629,147.6,147.6,0,0,0-9.7,37.918c-2.683,22.943,1.978,48.581,16.572,66.993,17.995,22.665,46.833,35.293,74.8,39.85,58.863,9.62,116.683-23.105,167.031-49.1,29.813-15.4,59.533-30.412,92.1-39.028,37.189-9.852,77.018-15.877,115.5-12.235,33.789,3.19,67.533,9.909,97.878,25.73,34.462,17.947,57.264,48.916,72.09,84.232,13.971,33.258,19.591,70.264,22.3,106.044,1.388,18.688-1.132,37.56-3.306,56.108a272.671,272.671,0,0,0-.926,59.857c3.609,36.357,8.419,71.974,19.659,106.829,9.737,30.253,25.024,57.912,42.718,84.163,69.686,103.546,198.765,180.008,325.693,145.546,35.71-9.689,66.794-30.992,91.148-58.607,30-34.045,47.691-77.918,71.3-116.312a313.567,313.567,0,0,1,47.853-59.648c17.256-16.676,40.453-25.486,63-32.264,10.454-3.145,21.092-5.781,31.662-8.557,6.362-1.664,12.813.393,18.942-1.063,5.736-1.364,11.5-2.522,17.3-3.538a378.293,378.293,0,0,1,38.278-4.211Z" transform="translate(-78.927 -16.863)" fill="#cf9455"/>
      <path id="Path_6429" data-name="Path 6429" d="M2925.263,1095.733c-60.642,1.156-121.655,2.219-178.829,25-24.121,9.6-42.995,37.445-56.108,58.77-16.214,26.32-27.707,55.322-40.8,83.261-14.109,30.158-30.736,56.849-56.8,78.058A188.813,188.813,0,0,1,2487.7,1382.2c-70.24,4.834-141.451-30-191.871-77.018-52.364-48.846-87.427-115.709-96.1-186.991-4.763-39.388-3.792-78.845-.995-118.349,2.776-39.087,6.823-78.266,3.377-117.422-3.053-34.39-9.459-68.065-27.106-98.131-15.171-25.881-38.97-48.617-64.6-63.882-27.917-16.618-61.73-21.6-93.439-25.359-38.623-4.592-77.594-3.863-116.2.544-72.393,8.268-139.488,35.767-207.762,59.114-29.812,10.177-65.522,16.771-92.234-4.289-34.415-27.117-12.906-85.528,1.2-118.371,26.9-62.539,69.686-120.243,119.087-166.57a484.729,484.729,0,0,1,82.451-61.636c34.116-20.458,75.723-33.015,114.092-42.682,149.385-37.619,286.675,36.8,402.664,124.069,56.758,42.718,110.668,91.138,172.628,126.3,28.031,15.913,58.285,23,90.433,18.652,18.3-2.474,34.113-10.128,51.09-16.731,18.874-7.345,37.977-14,57.243-20.18,75.49-24.215,154.335-38.578,233.6-39.642v-1.849c-63.926.9-127.345,10.5-189.306,26.656a968.04,968.04,0,0,0-110.715,36.612c-18.686,7.366-35.246,13.182-55.507,14.7-19.776,1.481-42.095-3.193-59.878-11.52-33.538-15.681-64.042-38.531-93.345-60.931-27.57-21.059-54.723-42.672-82.269-63.776-53.332-40.89-108.678-79.642-170.2-107.153-64.829-28.991-135.093-43.179-205.91-34.647-36.984,4.453-73.155,15.752-107.917,28.887-32.981,12.478-62.631,29.535-90.916,50.535-51.092,37.908-93.44,86.43-126.952,140.411-17.971,28.923-34,59.336-43.921,92.041-8.488,28.008-14.2,63.244,8.4,85.8,17.578,17.565,43.92,18.653,66.91,14.93,32.588-5.274,63.3-21.072,94.388-31.65,73.177-24.922,149.06-41.713,226.656-38.37,38.045,1.63,78.428,6.395,113.536,21.983,31.779,14.1,59.6,42.554,77.063,72.3,20.145,34.369,25.488,77.525,26.251,116.751.786,39.5-4.071,78.937-6.291,118.348-4.071,72.229,3.586,145.061,40.5,208.524,30.462,52.406,74.8,96.1,128.825,123.551,59.762,30.391,129.311,39.224,191.086,10.222,25.786-12.1,49.795-30.182,67.164-52.963,19.057-25.027,30.806-54.884,43.8-83.356,10.2-22.3,21.071-44.291,35.179-64.388a178.007,178.007,0,0,1,26.436-29.672c13.992-12.652,30.62-18.135,48.382-23.2,48.153-13.738,98.62-14.155,148.554-14.894Z" transform="translate(-83.263 -18.394)" fill="#cf9455"/>
      <path id="Path_6430" data-name="Path 6430" d="M1720.713,613.634c5,6.374,6.66,12.294,12.464,18.122,6.107,6.139,9.645,9.552,17.579,13.021,6.128,2.684,11.379,5.457,18.063,5.85,11.309.673,22.643,1.078,33.976,1.411,40.519,1.179,81.087.208,121.606-1.352,40.684-1.573,81.343-3.92,122-5.817q29.314-1.371,58.653-2.255,14.676-.433,29.348-.638c8.56-.128,21.51,2.335,29.6-.208,13.393-4.22,29.375-5.539,40.291-15.126,9.622-8.441,21.577-19.854,23.243-33.188,3.91-31.548-11.169-61.591-24.7-88.917-6.085-12.282-12.006-23.186-20.631-33.825a224.44,224.44,0,0,0-28.424-28.8c-17.53-15.009-37.631-26.77-58.84-35.732-71.7-30.277-155.3-22.03-225.223,9.007a304.774,304.774,0,0,0-96.768,68.286c-31.57,33.179-58.675,82.35-52.525,129.484.163,1.179,2.037,1.2,1.873,0-4.971-38.081,12.721-70.589,30.739-102.656,6.129-10.915,16.768-20.952,25.441-29.881a289.775,289.775,0,0,1,31.826-27.94c41.166-31.466,90.594-51.655,141.567-59.786,51.6-8.232,105.629-2.255,153.133,20a221.613,221.613,0,0,1,63.255,45.248c23.246,23.523,37.791,53.369,49.564,84.083,7.633,19.937,14.04,46.616,1.549,65.579-15.588,23.683-43.227,32.219-70.287,32.347-48.916.23-97.807,2.728-146.655,5.191-48.709,2.463-97.416,4.9-146.194,5.436q-36.463.4-72.877-1.1c-14.131-.578-32.427-1.85-42.949-13.09-4.4-4.7-10.338-8.973-13.113-14.965a43.264,43.264,0,0,0-5.275-9.123c-.739-.95-2.058.381-1.317,1.328" transform="translate(-90.563 -20.395)" fill="#cf9455"/>
      <path id="Path_6431" data-name="Path 6431" d="M1820.147,566.6c20.976,34.679,65.475,36.613,101.855,37.767,44.313,1.411,91.358-2.37,133.728-16.237a91.17,91.17,0,0,0,41.122-26.539c7.031-7.736,15.912-19.243,16.976-29.927a77.81,77.81,0,0,0-6.615-40.153c-22.874-52.072-87.886-67.313-139.253-63.127-36.891,3.008-72.485,17.428-102.206,39.319-14.2,10.465-29.163,23.175-36.541,39.4-4,8.788-11.38,17.637-12.328,27.28-1.087,11.091-1.11,21.59,3.167,31.987.464,1.11,2.269.625,1.8-.5-14.433-35.075,13.9-71.315,39.548-92.431,23.964-19.706,52.987-32.809,83.1-39.584,60.158-13.554,143,2.624,164.928,68.576,10.222,30.784-9.3,61.67-36.171,76.392-17.164,9.391-37.562,13.471-56.6,16.894-46.533,8.387-97.14,10.8-143.764,1.781-21.578-4.173-39.227-12.152-51.137-31.847a.939.939,0,0,0-1.618.95" transform="translate(-95.657 -22.527)" fill="#cf9455"/>
      <path id="Path_6432" data-name="Path 6432" d="M414.194,484.472c4.544,7.2,9.069,14.974,17.845,16.514,5.966,1.04,11.842-.845,17.022-3.63,12.893-6.963,19.114-23.477,18.617-37.434-.566-15.544-13.158-25.58-28.341-21.22-5.367,1.549-13.727,12.881-17.012,17.313-6.43,8.682-9.712,17.1-8.256,27.984.15,1.179,2.023,1.192,1.862,0-2.07-15.543,6.639-26.495,17.022-36.809,15.844-15.716,32.276-3.2,32.948,15.241.393,10.8-4.858,21.452-12.2,29.014a27.337,27.337,0,0,1-16.42,7.817c-10.617,1.343-16.49-7.839-21.475-15.737-.647-1.018-2.255-.081-1.609.947" transform="translate(-21.79 -23.051)" fill="#cf9455"/>
      <path id="Path_6433" data-name="Path 6433" d="M2961.872,1082.087c-26.8-.9-53.633-.97-80.394-2.334-36.683-1.876-72.97-9.253-109.744-9.369a159.165,159.165,0,0,0-46.026,6.615c-15.633,4.649-25.6,12.028-36.889,23.361-8.741,8.788-11.725,22.711-14.848,34.205-4.74,17.531-8.487,35.34-12.49,53.035-7.887,34.851-17.254,69.36-35.5,100.352-19.428,33.028-47.945,54.675-84.974,63.788-70.055,17.277-140.781-15.426-189.421-64.853-25.578-25.995-46.117-56.524-58.7-90.87-12.05-32.886-15.565-68.319-15.287-103.129.324-38.878,7.124-76.855,13.461-115.085,6.591-39.78,12.928-79.63,18.316-119.6q3.575-26.54,6.43-53.149c2.314-21.278,1.6-43.945,11.148-63.508,16.952-34.728,67.949-25.432,96.767-14.4,53.288,20.434,99.985,68.909,160.881,49.321,29.56-9.508,54.306-31.421,76.879-51.959,12.074-10.984,23.823-22.3,36.079-33.084,7.239-6.373,15.588-11.323,22.783-17.854,4.184-3.782,8.139-7.842,12.118-11.832,3.447-3.481,10.013-5.308,14.546-7.724,1.852-.982,3.911-3.33,5.367-4.776,4.858-4.879,10.686-7.931,16.607-11.287a252.049,252.049,0,0,1,31.939-15.381c20.816-8.2,42.486-14.12,64.319-18.9,31.778-6.939,64.182-10.568,96.631-12.779v-1.851c-59.462,4.083-119.364,12.886-174.156,36.915-14.04,6.164-28.332,13.573-39.155,24.445-4.441,4.465-12.328,5.944-17.417,10-8.766,6.985-15.958,15.737-24.979,22.573-22.9,17.3-42.786,38.16-64.758,56.675-23.662,19.971-50.86,37.595-82.429,40.047-33.05,2.568-63.047-17.16-90.733-32.552-24.956-13.877-50.557-27.327-79.238-31.015-26.087-3.355-53.055,2.74-65.266,27.742-6.338,12.963-6.522,27.687-7.841,41.746-1.966,20.955-4.417,41.863-7.1,62.748-5.32,41.493-11.935,82.846-18.757,124.106-11.217,68.136-22.365,136.573-4.926,204.756,29.372,114.783,165.875,222.031,285.078,166.8,38.763-17.947,62.47-57.657,76.669-96.4,8.051-21.927,13.138-44.892,18.249-67.65,5.412-24.123,9.114-50.928,20.931-72.854,13.462-24.955,47.414-32.263,73.016-34.391,25.742-2.152,51.784,1.85,77.3,4.834,41.746,4.9,83.655,4.647,125.517,6.267Z" transform="translate(-119.872 -31.023)" fill="#cf9455"/>
      <path id="Path_6434" data-name="Path 6434" d="M2983.6,1062.642c-100.308-6.775-211.67-24.307-271.04-113.026-9.6-14.341-17-29.792-20.33-46.812-4.071-20.792-.371-42.556,4.394-62.862a277.889,277.889,0,0,1,41.839-95.324c41.353-60.146,102.828-101.417,172.63-120.523a379.165,379.165,0,0,1,72.507-12.038v-1.814c-57.937,4.36-115.849,19.657-164.234,52.35A323.089,323.089,0,0,0,2750.9,725.05c-18.04,21.869-37.491,49.367-45.586,76.867-9.09,30.947-20.562,64.458-15.542,97.184,4.417,28.75,20.56,53.868,39.571,75.285,34.925,39.385,84.9,60.966,134.907,73.431,39.019,9.739,79.192,14.016,119.343,16.7Z" transform="translate(-141.597 -32.139)" fill="#cf9455"/>
      <path id="Path_6435" data-name="Path 6435" d="M2987.781,1035.982c-98.272-15.427-212-61.731-217.8-174.435-3.193-61.659,30.275-119.006,75.354-158.37a244.911,244.911,0,0,1,82.96-47.2c19.267-6.466,39.317-10.28,59.486-13.113v-1.749c-20.261,2.949-40.359,6.847-59.995,13.057-29.558,9.355-56.688,25.476-80.649,45.053-47.343,38.693-79.121,96.156-79.145,158.14,0,58.353,38.557,106.714,85.784,136.549,40.126,25.349,87.055,37.654,134.005,44.269Z" transform="translate(-145.781 -33.765)" fill="#cf9455"/>
      <path id="Path_6436" data-name="Path 6436" d="M2990.293,1012.624c-79.446-18.64-164.649-64.757-172.49-153.224-4.325-48.847,22.018-95.937,55.208-129.54,17.876-18.088,39.272-32.1,62.074-43.077,17.971-8.649,36.406-12.858,55.209-16.248v-1.712c-19.058,3.55-37.7,7.9-56.156,16.341a221.088,221.088,0,0,0-65.036,45.99c-33.235,33.652-56.04,80.161-53.172,128.245,2.821,47.181,35.34,87.147,72.483,113.214,30.253,21.232,65.709,34.253,101.881,42.231Z" transform="translate(-148.293 -35.225)" fill="#cf9455"/>
      <path id="Path_6437" data-name="Path 6437" d="M2993.231,980.476c-58.583-20.074-115.409-61.776-119.781-127.021-4.811-71.973,55.831-124.9,119.781-147.014V704.4c-65.269,22.191-124.407,75.7-121.655,149.06,2.5,65.963,62.4,108.726,121.655,128.942Z" transform="translate(-151.232 -37.098)" fill="#cf9455"/>
      <path id="Path_6438" data-name="Path 6438" d="M86.233,719.9c-7.3-9.415-21.092-8.916-31.639-9.438-18.271-.9-36.463,1.3-54.594,4.164v2.234c7.633-1.179,15.287-2.291,22.965-3.156a224.007,224.007,0,0,1,36.1-1.147c7.309.361,14.548.9,21.059,4.534,12.258,6.834,11.75,20.955,6.29,31.652-10.639,20.9-36.5,35.8-56.478,46.208A228.925,228.925,0,0,1,0,807.925v1.757a264.307,264.307,0,0,0,34.7-15.1C56.548,783.2,81.411,766.235,91.263,742.7c3.308-7.934-.172-16.526-5.03-22.805" transform="translate(0 -37.407)" fill="#cf9455"/>
      <path id="Path_6439" data-name="Path 6439" d="M2995.791,947.5c-38.278-19.752-72.3-52.618-73.778-96.744-1.6-47.367,33.673-83.425,73.778-104.9v-2.209c-39.919,21.1-73.177,55.994-75.607,103.406-2.4,46.327,35.247,81.78,75.607,102.435Z" transform="translate(-153.79 -39.166)" fill="#cf9455"/>
      <path id="Path_6440" data-name="Path 6440" d="M2999.605,876.613a59.748,59.748,0,0,1-5.228-22.641,57.785,57.785,0,0,1,5.228-25.4v-3.308a70.492,70.492,0,0,0-7.077,28.7,53.1,53.1,0,0,0,7.077,27.776Z" transform="translate(-157.605 -43.464)" fill="#cf9455"/>
      <path id="Path_6441" data-name="Path 6441" d="M103.81,1345.455c41.848,16.722,88.036,25.6,132.8,28.911,54.813,4.047,109.824-.626,164.684-.278,49.585.324,96.675,9.343,142.053,29.673,34.253,15.334,65.754,36.358,94.247,60.8h2.764c-41.307-35.549-88.673-63.487-141.105-79.26-69.651-20.976-143.649-11.264-215.184-11.264-70.866,0-147.5-10.082-210.551-44.892a194.219,194.219,0,0,1-40.254-29.974c-5.272-5.042-12.732-12.049-11.286-20.374,1.064-6.153,6.868-11.243,11.3-15.058,8.616-7.4,17.405-14.57,26.644-21.185,30.242-21.625,68.1-29.443,103.442-38.74,37.317-9.806,75.19-18.133,112.761-26.967q26.662-6.245,53.588-11.147c7.958-1.435,17.729-1.411,25.164-4.512a10.2,10.2,0,0,0,2.278-1.966c4.151-3.815,11.251-3.908,16.538-5.064,64.227-14.108,118.161-48.87,167.4-91.7,49.24-42.857,92.514-92.074,140.238-136.572,12.675-11.8,25.545-23.591,39.584-33.744,6.66-4.833,13.045-10.016,19.74-14.8,6.66-4.741,15.288-7.356,21-13.068,9.551-9.621,25.21-15.588,37.052-22.181,14.016-7.816,30.343-16.166,46.694-11.447,16.157,4.672,27.108,28.632,35.04,42.184,8.788,15.034,16.479,30.715,24.759,46.05,6.894,12.744,14.3,25.442,23.164,36.938A201.512,201.512,0,0,0,944.081,973.9c5.482,5.6,8.234,13.277,13.831,19.127,22.944,24.032,50.547,42.765,78.984,59.581,32.83,19.381,65.835,38.577,99.082,57.243,63.452,35.569,127.483,67.974,200.394,77.34,73.513,9.435,147.86,6.592,221.43,16.074,10.825,1.387,21.509,2.518,31.846,6.2,9.739,3.469,19.13,7.541,29.05,10.5,20.491,6.081,39.272,12.836,57.913,23.636,38.069,22.087,73.224,50.1,108.424,76.417,63.026,47.111,124.754,95.958,186.67,144.551h3.029c-51.366-40.267-102.6-80.718-154.5-120.29-31.826-24.261-63.72-48.639-96.538-71.536-27.891-19.427-55.6-39.179-88.026-50.166-16.443-5.549-32.958-10.429-49.332-16.282-15.334-5.457-33.6-5.943-49.656-7.887-37.121-4.441-74.588-5.227-111.883-6.615-38.277-1.456-76.542-3.654-114.265-10.615-38.8-7.148-74.359-21.9-109.663-39.155-33.861-16.562-66.714-35.111-99.335-53.981-31.951-18.481-64.679-36.174-95.218-56.942a318.3,318.3,0,0,1-41.1-33.4c-6.464-6.2-10.406-12.4-15.252-19.821-4.128-6.313-10.477-11.379-15.369-17.185-22.25-26.3-35.584-59.115-52.549-88.812-10.6-18.572-24.874-48.153-50.684-44.36-12.119,1.781-22.944,7.147-33.6,12.952-6.093,3.308-12.05,6.87-18.1,10.247-5.644,3.166-12.271,5.111-16.851,9.713-6.486,6.521-15.517,10.176-23.115,15.311-6.8,4.58-13.173,9.852-19.74,14.778-12.977,9.715-25.06,20.377-37.029,31.34-24.285,22.272-47.321,45.887-70.46,69.338-46.039,46.626-93.057,93-149.814,126.443-32.415,19.127-66.055,30-102.688,37.512-4.685.973-6.811,4.905-12.19,5.691-9.262,1.364-18.48,3.006-27.672,4.718-19.37,3.606-38.577,8.027-57.74,12.627-37.469,8.975-75.237,17.162-112.415,27.27-33.49,9.111-65.766,17.462-94.375,37.929-11.3,8.074-23.857,17.047-32.2,28.195-7.818,10.476-1.77,18.248,5.724,26.088,20.732,21.648,47.123,36.775,74.7,47.783" transform="translate(-1.039 -43.565)" fill="#cf9455"/>
      <path id="Path_6442" data-name="Path 6442" d="M182.638,1304.627c9.829,9.227,24.574,13.3,37.05,17.205,16.908,5.3,34.554,7.981,52.132,9.855,38.127,4.092,77.816-1.921,116.022-3.008,40.037-1.135,79.562,2.266,117.365,16.234,33.178,12.235,64.736,28.633,94.492,47.692,34.241,21.95,65.544,48.2,94.177,77.086h2.567c-40.683-41.076-86.651-76.393-138.041-103.2-30.471-15.912-62.887-29.327-96.768-35.479-36.5-6.615-74.093-4.557-110.911-2.636-39.712,2.059-78.474,4.072-117.574-4.857-17.959-4.116-38.035-9.76-51.727-22.62-20.341-19.127,10.329-40.68,26.114-48.591,13.655-6.847,29.035-10.13,43.966-12.721,19.057-3.308,37.467-8.788,56.131-13.762,36.3-9.644,74.531-11.657,109.9-25.371,32.332-12.581,63.393-27.845,91.726-47.946,26.551-18.849,50.744-40.867,74.046-63.577,50.05-48.734,95.993-104.425,155.258-142.4,31.826-20.4,65.627-26.759,99.418-7.774,25.521,14.365,44.937,38.233,65.246,58.84,10.141,10.293,22.051,16.884,32.252,27.13,12.941,13,27.6,23.267,42.81,33.466,30.945,20.77,63.846,38.346,95.993,57.1,64.193,37.515,127.194,76.786,198.13,100.332,35.257,11.7,71.857,19.288,108.943,21.486,40.233,2.406,80.244,1.734,120.441,6.2,38.438,4.256,76.509,8.235,113.074,21.67,37.261,13.715,69.871,37.655,102.989,59.071,32.08,20.747,62.934,43.251,94.087,65.361,31.292,22.2,63.81,42.971,94.525,65.937,6.382,4.765,12.791,9.53,19.15,14.34h3.377c-50.467-38.694-104.172-73.456-155.955-110.229-31.871-22.62-64.436-44.13-97.485-65.037-30.531-19.311-61.937-34.044-97.161-42.371-35.664-8.393-73.873-10.961-110.322-13.784-40.972-3.191-82.361-.763-123.042-6.844-77.364-11.543-147.9-46.4-214.863-85.345-32.934-19.15-65.766-38.485-98.757-57.52-32.7-18.895-67.777-38.208-94.618-65.15-4.869-4.905-9.461-10.686-15.243-14.5-6.278-4.116-11.645-7.262-17.011-12.628-10.511-10.547-20.56-21.509-31.222-31.916-18.364-17.924-39.307-33.769-64.956-38.67-29.443-5.6-57.752,9.969-81.168,26.18-27.651,19.1-52.225,42.512-76.093,66.078-49.263,48.639-95.394,100.771-152.914,139.971a354.6,354.6,0,0,1-103.671,47.553c-35.825,9.737-72.518,14.362-108.287,24.283-29.765,8.281-61.728,9.762-88.789,25.928a69.417,69.417,0,0,0-24.168,25.024c-4.938,8.488,3.747,18.617,9.366,23.916" transform="translate(-9.049 -48.692)" fill="#cf9455"/>
      <path id="Path_6443" data-name="Path 6443" d="M2325.315,1171.067c9.39,87.079,102.551,180.841,194.347,160.464,23.591-5.227,43.734-19.8,59.6-37.628,4.81-5.414,7.053-13.021,10.2-19.5,2.844-5.921,9.622-14.06,10.729-20.374a354.387,354.387,0,0,0,4.65-39.251,341.792,341.792,0,0,0-28.053-157.2c-17.254-39.433-43.482-74.818-77.2-101.533-14.362-11.377-32.634-25.67-51.254-27.129-20.816-1.618-35.246,3.862-51.158,16.953-29.837,24.564-47.021,63.372-58.378,99.429-12.6,40.058-18.549,83.91-13.482,125.771.139,1.179,2.013,1.2,1.873,0-6.592-54.443,4.858-112.217,27.314-161.874,10.476-23.2,24.654-45.284,43.988-61.984,10.942-9.459,22.944-16.005,37.495-16.722,18.2-.924,31.405,6.013,46.3,15.519,49.4,31.454,83.354,82.5,102.573,137.174,9.644,27.362,15.219,56.132,17.623,85.018a349.055,349.055,0,0,1,.81,39.966c-.486,14.757.3,36.081-7.053,49.1-5.207,9.274-9.784,18.918-14.247,28.609-3.887,8.441-11.59,15.034-18.482,21.024a107.03,107.03,0,0,1-41.607,22.134c-29.6,8.324-61.2,1.108-88.166-12.167-54.49-26.783-99.959-84.464-106.551-145.8-.14-1.2-1.99-1.2-1.873,0" transform="translate(-122.371 -48.908)" fill="#cf9455"/>
      <path id="Path_6444" data-name="Path 6444" d="M573.649,1320.866c63.985,44.963,122.789,96.445,177.44,152.3H753.7c-41.69-42.788-85.772-83.217-133.023-119.805-27.835-21.533-58.4-39.872-85.539-62.193-12.616-10.361-23.569-24.284-20.168-41.538,1.769-8.95,8.741-17.6,13.784-25.025,6.718-9.875,14.4-19.106,22.006-28.308,23.754-28.773,51.149-54.189,78.106-79.862,27.082-25.766,50.881-55.9,79.862-79.4,31.061-25.211,65.95-50.467,108.193-43.206,18.4,3.147,35.907,15.082,51.992,24.124,17.3,9.715,34.2,20.121,50.988,30.692,66.538,41.839,133.031,83.26,201.377,122.139,64.828,36.868,130.778,76.047,203.435,94.874,75.478,19.567,154.971,9.992,231.456,23.568,40.544,7.192,76.186,21.533,111.963,41.678,33.7,18.963,66.472,39.547,98.736,60.873,39.548,26.134,78.15,53.632,116.588,81.388h3.145c-52.939-38.186-106.251-75.909-161.6-110.577-31.085-19.474-63.465-41.192-97.485-55.091-34.508-14.084-71.306-21.533-108.239-25.42-38.858-4.092-77.99-4.394-116.961-6.868a429.623,429.623,0,0,1-114.959-22.805c-37.663-13.089-72.924-32.725-107.963-51.552-34.393-18.5-68.309-37.861-102.03-57.543-67.42-39.364-132.1-83.191-199.54-122.418-27.072-15.749-55.843-34.947-88.628-29.419-33.72,5.668-59.369,26.042-85.251,47.021-14.328,11.633-25.788,25.694-38.429,39.04-13.239,14.039-27.222,27.361-41.19,40.636-27.026,25.744-53.949,51.414-77.757,80.254-15.659,18.968-42.279,45.033-31.27,71.722,9.517,23.061,39.237,37.306,58.34,50.719" transform="translate(-27.003 -52.166)" fill="#cf9455"/>
      <path id="Path_6445" data-name="Path 6445" d="M643.272,1288.762c11.773,25.742,32.5,46.812,51.578,67.142,9.667,10.314,18.594,21.6,28.666,31.5,13.855,13.6,28.055,26.042,41.089,40.52,15.172,16.815,31.51,32.5,46.614,49.332H813.8c-17.369-19.636-36.472-37.7-53.842-57.358-11.773-13.322-25.512-24.4-38.185-36.821-10.7-10.5-20.213-22.757-30.495-33.72-21.359-22.8-42.821-46.789-52.443-77.179-5.48-17.322-4.081-32.079,2.221-48.775,6.233-16.539,14.7-32.151,24.261-46.953,17.959-27.847,41.5-51.807,67.3-72.367,14.489-11.541,29.6-22.619,47.354-28.357,19.948-6.453,40.266-8.047,60.629-2.844,34.565,8.834,68.911,25.071,101.2,40.058,33.6,15.612,65.766,34.161,97.369,53.448,63.233,38.557,124.338,80.765,190.462,114.37,30.8,15.659,62.954,28.68,96.561,36.8a281.208,281.208,0,0,0,46.637,7.032,248.858,248.858,0,0,0,25.95.3c8.235-.253,13.97,4.441,21.8,4.789,39.688,1.757,79.493,2.52,118.693,9.6,38.048,6.871,74.267,22.134,108.889,38.971,55.67,27.084,107.108,62.055,156.762,99.012H1808c-49.24-36.635-100.076-71.1-154.982-98.688-31.755-15.958-65.152-30.021-99.775-38.3-35.733-8.512-72.786-9.991-109.339-11.493-9.241-.372-19.868.531-28.7-2.245-6.014-1.874-10.048-3.816-16.422-3.515-19.948.995-39.977-.995-59.589-4.6-36.577-6.685-71.491-20.955-104.726-37.33-66.446-32.7-127.623-75.214-190.554-114-60.688-37.374-124.069-68.92-191.34-92.443-30.206-10.547-60.664-7.863-89.61,5.805-12.408,5.875-23.973,16.19-34.68,24.725a329.461,329.461,0,0,0-36.382,34.09,271.769,271.769,0,0,0-49.7,76.369c-5.2,12.025-9.691,23.245-8.973,36.427.693,12.792,4.753,25.14,10.048,36.7" transform="translate(-33.346 -56.258)" fill="#cf9455"/>
      <path id="Path_6446" data-name="Path 6446" d="M718.2,1282.787c-9.888-39.5,5.051-73.247,31.221-102.526,22.32-24.979,53.139-41.47,86.791-42.441,18.107-.51,37.121,4.557,54.6,8.835a410.152,410.152,0,0,1,54.906,18.109c18.028,7.24,35.5,16.4,53.4,24.1,18,7.747,34.831,17.578,51.623,27.639,62.573,37.491,117.711,85.9,183.764,117.583a407.791,407.791,0,0,0,95.138,31.869c34.184,6.94,69.549,8.769,104.228,11.821,55.6,4.855,111.364,10.915,164.118,30.275,45.193,16.582,86.754,43.873,125.817,72.807h2.938c-50.513-37.053-104.217-70.08-165.227-86.222-68.506-18.111-140.274-18-210.169-27.038-72.575-9.389-138.78-42.555-198.473-83.723-31.248-21.555-61.278-44.431-93.613-64.388-15.265-9.415-30.725-18.781-46.834-26.644-17.635-8.628-36.174-15.175-53.657-24.147-28.878-14.8-61.742-23.544-93.5-29.465-27.269-5.065-52.258-3.422-77.433,8.926-24.019,11.749-43.226,32.059-57.695,54.238-16.316,25.025-21.012,51.9-13.749,80.879a.929.929,0,0,0,1.793-.486" transform="translate(-37.556 -59.858)" fill="#cf9455"/>
      <path id="Path_6447" data-name="Path 6447" d="M729.514,1322.267c6.129,10.153,12.744,20,19.531,29.72,13.286,18.989,27.892,37.028,42.939,54.628,24.076,28.172,49.713,54.956,74.669,82.337h2.555c-24.353-26.827-49.345-53.055-73.108-80.415-16.03-18.457-31.27-37.583-45.437-57.5-6.868-9.668-13.321-19.615-19.532-29.72-5.954-9.646-6.591-21.255-12.846-30.667-.66-1-2.278-.071-1.608.947,6.2,9.343,7.007,21.023,12.836,30.667" transform="translate(-37.737 -67.952)" fill="#cf9455"/>
      <path id="Path_6448" data-name="Path 6448" d="M2425.24,1207.6c11.311,19.474,33.213,49.01,58.491,36.8,19.058-9.23,21.7-31.919,17-50.351-4.578-17.947-20.1-42.557-39.99-45.24-33.627-4.533-38.831,33.029-35.617,58.329.163,1.179,2.013,1.179,1.873,0-1.432-11.171-1.849-22.063.879-33.1,4.047-16.305,21.741-29.883,38.533-21.926,15.728,7.446,26.459,23.961,31.8,40.011,5.665,16.932,3.747,36.66-11.148,48.037-24.4,18.62-49.219-14.546-60.2-33.512a.939.939,0,0,0-1.62.947" transform="translate(-127.68 -60.484)" fill="#cf9455"/>
      <path id="Path_6449" data-name="Path 6449" d="M831.014,1303.366c-2.255-20.008,5.275-37.838,19.474-51.786,13.355-13.113,33.027-16.628,50.95-16.929,37.816-.625,76.742,16.351,109.431,33.791,64.137,34.182,115.284,87.425,178.088,123.435,64.562,37.029,142.33,42.81,214.78,49.935,41.469,4.068,82.939,8.488,123.587,18.015a295.5,295.5,0,0,1,69.986,26.066h4.048a296.872,296.872,0,0,0-64.528-25.625c-37.146-9.923-75.574-14.456-113.711-18.411-78.937-8.187-162.233-12.187-233.227-51.6-30.8-17.093-58.154-39.873-86.025-61.243-29.443-22.573-59.486-44.362-92.05-62.192-46.3-25.349-129.311-59.277-170.479-7.91-10.013,12.49-13.968,28.726-12.187,44.454.128,1.2,2,1.2,1.862,0" transform="translate(-43.647 -64.893)" fill="#cf9455"/>
      <path id="Path_6450" data-name="Path 6450" d="M887.469,1410.5c14.259,17.507,28.576,35.039,44.024,51.507,8.813,9.366,17.879,18.456,26.691,27.8h2.66c-8.142-8.741-16.562-17.23-24.863-25.834-14.745-15.243-28.148-31.686-41.632-48.037-27.038-32.8-52.223-67.166-63.349-108.888a.928.928,0,0,0-1.79.485c10.4,38.995,33.084,72.092,58.259,102.968" transform="translate(-43.67 -68.802)" fill="#cf9455"/>
      <path id="Path_6451" data-name="Path 6451" d="M96.871,1439.464c51.67,12.1,103.858,18.136,156.706,21.742,54.434,3.723,109.073.393,163.483,4.809a412.223,412.223,0,0,1,82.879,15.312c11.461,3.354,22.329,8.372,32.991,13.924h3.737a241.3,241.3,0,0,0-24.159-11.356c-24.47-9.668-50.777-14.5-76.775-17.809-54.2-6.939-109.13-3.794-163.6-5.807A938.087,938.087,0,0,1,106.39,1439.7c-27.222-5.945-54.11-13.322-80.741-21.533-8.593-2.66-17.126-5.481-25.649-8.35v1.226c6.96,2.59,13.887,5.366,20.7,7.541q37.659,11.932,76.172,20.883" transform="translate(0 -74.25)" fill="#cf9455"/>
      <path id="Path_6452" data-name="Path 6452" d="M2946.425,1496.625c15.958-20.19,32.588-39.805,50.628-58.053v-2.66c-18.967,19.013-36.336,39.573-53.011,60.713Z" transform="translate(-155.053 -75.625)" fill="#cf9455"/>
      <path id="Path_6453" data-name="Path 6453" d="M2989.5,1499.079c3.237-4.533,6.5-9.021,9.829-13.483v-3.077c-4.14,5.435-8.14,10.984-12.143,16.559Z" transform="translate(-157.325 -78.079)" fill="#cf9455"/>
      <path id="Path_6454" data-name="Path 6454" d="M78.924,1466.312c44.766,12.628,89.149,21.718,135.556,25.187,46.869,3.516,93.924,3.816,140.886,5.135,4.625.139,9.263.254,13.9.393h38.128c-10.779-.763-21.637-1.227-32.555-1.642-48.556-1.828-97.173-1.945-145.7-4.789-49.726-2.891-97.161-11.493-145.117-24.794-23.037-6.406-45.887-13.623-69.168-19.079-4.926-1.158-9.884-2.2-14.858-3.169v2.034c3.305.65,6.626,1.271,9.932,1.967,23.29,4.856,46.107,12.306,68.992,18.756" transform="translate(0 -76.027)" fill="#cf9455"/>
      <path id="Path_6455" data-name="Path 6455" d="M99.427,1496.568c1.885.625,3.759,1.2,5.632,1.8h7.217c-6.835-1.966-13.668-4.072-20.56-6.383-23.314-7.841-47.274-12.4-71.166-18.134Q10.28,1471.393,0,1469.092v1.918c8.187,1.828,16.351,3.771,24.526,5.713,25.316,6.085,50.2,11.5,74.9,19.845" transform="translate(0 -77.372)" fill="#cf9455"/>
    </g>
  </g>
</svg>
