<svg id="Group_21127" data-name="Group 21127" xmlns="http://www.w3.org/2000/svg" xmlns:xlink="http://www.w3.org/1999/xlink" width="103.713" height="92" viewBox="0 0 103.713 92">
  <defs>
    <clipPath id="clip-path">
      <rect id="Rectangle_1913" data-name="Rectangle 1913" width="103.713" height="92" fill="#cf9455"/>
    </clipPath>
  </defs>
  <g id="Group_21126" data-name="Group 21126" clip-path="url(#clip-path)">
    <path id="Path_6347" data-name="Path 6347" d="M103.713,45.375c-1.077,2.229-3.195,1.471-5.064,1.672V49.5c0,2.937,0,5.874,0,8.811,0,1.2-.548,1.867-1.5,1.875s-1.527-.661-1.529-1.847c-.008-3.376,0-6.752,0-10.127v-1.15H8.3c-.018.379-.049.738-.05,1.1,0,3.274,0,6.549-.008,9.823a4.118,4.118,0,0,1-.128,1.2,1.356,1.356,0,0,1-1.564.991,1.357,1.357,0,0,1-1.295-1.209,5.909,5.909,0,0,1-.044-1.01q0-4.861,0-9.722V47c-.922,0-1.754.017-2.584,0a2.29,2.29,0,0,1-2.469-2.47q-.044-4,0-8a2.311,2.311,0,0,1,2.483-2.465c.807-.025,1.614,0,2.569,0V33.012c0-2.8.017-5.6-.018-8.406A4.932,4.932,0,0,0,4.8,23.323a7.618,7.618,0,0,1-.336-1.141,3,3,0,0,0-2.7-2.713C.39,19.278.014,18.865,0,17.515q-.01-1.418,0-2.835c.009-1.45.5-1.96,1.933-1.963,4.186-.01,8.372,0,12.558,0H31.2c0-1.638,0-3.179,0-4.72C31.21,3.1,34.285,0,39.152,0Q51.862,0,64.572,0C69.4,0,72.5,3.093,72.511,7.9q.009,5.874,0,11.748v1.162H96.392a6.24,6.24,0,0,1,3.964-4.107c.2-.069.266-.5.483-.949H77.956a7.476,7.476,0,0,1-.91-.018A1.56,1.56,0,0,1,75.6,14.19a1.529,1.529,0,0,1,1.513-1.464c.2-.017.4-.013.607-.013,7.967,0,15.934.009,23.9-.013a2.049,2.049,0,0,1,2.1,1.076v4.659a2.226,2.226,0,0,1-1.819,1.063,2.578,2.578,0,0,0-2.443,1.956,13.236,13.236,0,0,0-.835,4.673c.153,1.569.033,3.165.033,4.75v3.181c.752,0,1.389.036,2.02-.007a2.753,2.753,0,0,1,3.044,1.8ZM8.295,33.984H95.53V23.959H72.575c-.068.439-.12.835-.192,1.228a7.294,7.294,0,0,1-7.215,6.169q-13.316.063-26.632,0a7.345,7.345,0,0,1-7.326-7.381c-.031-2.3-.007-4.591-.007-6.886V15.8H2.771a6.524,6.524,0,0,0,.838,1A17.055,17.055,0,0,1,5.895,18.4a15.5,15.5,0,0,1,1.623,2.47H22.726c1.215,0,2.43-.012,3.645,0,1.1.014,1.776.594,1.788,1.5s-.664,1.5-1.75,1.532c-.236.006-.472,0-.709,0H8.295ZM51.858,3.04c-4.321,0-8.641-.007-12.962,0a4.359,4.359,0,0,0-4.649,4.611q-.017,8,0,16a4.384,4.384,0,0,0,4.7,4.677q12.912.013,25.823,0a4.387,4.387,0,0,0,4.7-4.676q.016-7.949,0-15.9a4.388,4.388,0,0,0-4.752-4.715q-6.43-.009-12.861,0m48.79,34.118H3.235V43.89h97.413Z" transform="translate(0 0)" fill="#cf9455"/>
    <path id="Path_6348" data-name="Path 6348" d="M59.937,311.539v-1.282q0-13.366,0-26.732c0-2.875,1.325-4.192,4.219-4.194q8.2,0,16.4,0c2.667,0,4.042,1.387,4.043,4.065q.005,13.417,0,26.833v1.287h31.288v-1.2q0-11.037,0-22.074c0-1.606.516-2.387,1.555-2.367,1.007.02,1.482.758,1.482,2.319q0,11.7,0,23.39c0,2.316-.726,3.051-3,3.051q-43.642,0-87.284,0c-2.3,0-3.029-.726-3.029-3.026q0-11.746,0-23.492a7.262,7.262,0,0,1,.033-.909,1.482,1.482,0,0,1,2.931-.1,6.269,6.269,0,0,1,.071,1.208q.005,10.986,0,21.973v1.247Zm21.586.02c.019-.265.041-.428.041-.592q0-13.771.017-27.542c0-.881-.355-1.073-1.151-1.069-5.367.025-10.733.012-16.1.013-1.351,0-1.354,0-1.354,1.343q0,13.366,0,26.732v1.114Z" transform="translate(-20.412 -222.638)" fill="#cf9455"/>
    <path id="Path_6349" data-name="Path 6349" d="M65.277,318.387c-2.97,0-5.941.008-8.911,0-2.359-.008-3.629-1.275-3.632-3.626q-.011-7.9,0-15.8c0-2.376,1.247-3.611,3.625-3.612q9.012-.006,18.025,0c2.307,0,3.586,1.241,3.595,3.554q.031,7.949,0,15.9a3.26,3.26,0,0,1-3.587,3.582c-3.038.014-6.076,0-9.114,0m-9.448-3.125a5.289,5.289,0,0,0,.639.082c5.869,0,11.738-.012,17.607.022.875.005.877-.445.875-1.074-.011-4.958,0-9.917-.009-14.875,0-.321-.046-.643-.072-.978H55.829Z" transform="translate(-42.027 -235.404)" fill="#cf9455"/>
    <path id="Path_6350" data-name="Path 6350" d="M346.483,295.345c3.038,0,6.076-.007,9.114,0a3.183,3.183,0,0,1,3.473,3.458q.02,8.05,0,16.1a3.21,3.21,0,0,1-3.476,3.472q-9.164.026-18.328,0a3.2,3.2,0,0,1-3.433-3.424q-.044-8.1,0-16.2c.013-2.174,1.331-3.4,3.537-3.4,3.038-.008,6.076,0,9.113,0m9.511,3.092H336.923c-.023.374-.059.7-.059,1.027,0,4.925.02,9.85-.023,14.774-.008.9.256,1.134,1.141,1.128,5.667-.039,11.334-.019,17-.022.326,0,.651-.031,1.012-.049Z" transform="translate(-266.062 -235.402)" fill="#cf9455"/>
    <path id="Path_6351" data-name="Path 6351" d="M216.013,34.391H204.558c-.872,0-1.635-.209-1.873-1.184-.256-1.047.446-1.839,1.67-1.845,3.342-.019,6.684-.008,10.026-.008.844,0,1.689-.027,2.531.01a2.367,2.367,0,0,1,2.254,3.246c-.962,2.7-1.971,5.379-3.045,8.034a3.617,3.617,0,0,1-3.576,2.35q-4.456.026-8.912,0a3.727,3.727,0,0,1-3.783-3.032c-.627-2.761-1.216-5.531-1.749-8.312-.135-.7-.426-.887-1.067-.826a4.09,4.09,0,0,1-1.211-.031,1.419,1.419,0,0,1-1.257-1.48,1.349,1.349,0,0,1,1.247-1.472,9.863,9.863,0,0,1,2.723.036,2.815,2.815,0,0,1,2.346,2.361c.6,2.835,1.225,5.667,1.781,8.512.174.89.552,1.249,1.485,1.232,2.632-.05,5.266-.044,7.9,0a1.35,1.35,0,0,0,1.511-1c.77-2.151,1.592-4.282,2.455-6.583" transform="translate(-155.078 -23.721)" fill="#cf9455"/>
    <path id="Path_6352" data-name="Path 6352" d="M232.487,114.172a1.554,1.554,0,0,1-1.671-1.5,1.592,1.592,0,0,1,1.768-1.525,1.516,1.516,0,0,1,1.646,1.521c0,.941-.673,1.527-1.743,1.508" transform="translate(-183.971 -88.585)" fill="#cf9455"/>
    <path id="Path_6353" data-name="Path 6353" d="M265.078,114.17A1.492,1.492,0,0,1,263.4,112.7a1.527,1.527,0,0,1,1.7-1.563,1.589,1.589,0,0,1,1.711,1.484,1.564,1.564,0,0,1-1.732,1.545" transform="translate(-209.938 -88.584)" fill="#cf9455"/>
    <path id="Path_6354" data-name="Path 6354" d="M215.214,357.925a7.132,7.132,0,0,1,1.746.724,1.431,1.431,0,0,1-.058,2.069,3.129,3.129,0,0,1-3.3-.006,1.439,1.439,0,0,1-.047-2.071,6.919,6.919,0,0,1,1.66-.715" transform="translate(-169.879 -285.283)" fill="#cf9455"/>
  </g>
</svg>
