<svg id="Group_21102" data-name="Group 21102" xmlns="http://www.w3.org/2000/svg" xmlns:xlink="http://www.w3.org/1999/xlink" width="78.537" height="92" viewBox="0 0 78.537 92">
  <defs>
    <clipPath id="clip-path">
      <rect id="Rectangle_1887" data-name="Rectangle 1887" width="78.537" height="92" fill="#cf9455"/>
    </clipPath>
  </defs>
  <g id="Group_21101" data-name="Group 21101" clip-path="url(#clip-path)">
    <path id="Path_6306" data-name="Path 6306" d="M38.529,92C24.838,88.593,9.29,74.108,3.642,58.3A51.362,51.362,0,0,1,.25,42.559C.007,34.324.057,26.08,0,17.841c-.008-1.209.477-1.771,1.77-2.138a157.953,157.953,0,0,0,17.8-6.156A145.94,145.94,0,0,0,37.623.506a2.864,2.864,0,0,1,3.248,0A151.491,151.491,0,0,0,76.387,15.585c1.784.5,2.122.965,2.119,2.8-.011,7.013.114,14.031-.069,21.04A55.74,55.74,0,0,1,63.128,77.068,56.369,56.369,0,0,1,46.174,89.749,63.479,63.479,0,0,1,39.968,92Zm36.1-72.838c-.361-.121-.725-.246-1.092-.364-2.562-.826-5.145-1.595-7.685-2.485A154.458,154.458,0,0,1,40.089,4.531a1.455,1.455,0,0,0-1.706.015c-1.278.777-2.6,1.486-3.918,2.193a150,150,0,0,1-29.7,12.1,1.1,1.1,0,0,0-.946,1.294c.032,5.634,0,11.269.021,16.9A56.511,56.511,0,0,0,7.162,56.595,52.512,52.512,0,0,0,19.878,76.172,52.564,52.564,0,0,0,36.191,87.285a6.652,6.652,0,0,0,5.72.153c.838-.4,1.711-.72,2.543-1.127a53.944,53.944,0,0,0,15.8-11.839A51.572,51.572,0,0,0,74.505,40.428c.277-6.913.119-13.844.155-20.767,0-.148-.019-.3-.033-.5" transform="translate(0 0)" fill="#cf9455"/>
    <path id="Path_6307" data-name="Path 6307" d="M85.64,144.331c.912-.941,1.693-1.768,2.5-2.573q8.294-8.3,16.6-16.6c2.386-2.382,5.306-2.834,8.016-1.272a6.267,6.267,0,0,1,1.741,9.208,12.361,12.361,0,0,1-.891,1.01q-11.566,11.579-23.142,23.149c-2.385,2.383-5.319,2.861-8.007,1.289a7.893,7.893,0,0,1-1.541-1.224q-5.455-5.417-10.877-10.869c-2.945-2.967-2.79-7.177.324-9.692a6.077,6.077,0,0,1,7.646.006c2.153,1.9,4.13,4,6.177,6.024.467.461.905.952,1.462,1.54m-.465,11.236a3.062,3.062,0,0,0,2.534-1.04q11.592-11.609,23.2-23.205a5.535,5.535,0,0,0,.543-.6,2.39,2.39,0,0,0-1.252-3.759,2.646,2.646,0,0,0-2.787.99q-9.941,9.954-19.9,19.895c-1.416,1.415-2.318,1.419-3.722.018-2.587-2.582-5.162-5.178-7.764-7.746a2.423,2.423,0,1,0-3.424,3.415q5.572,5.615,11.2,11.178a6.05,6.05,0,0,0,1.377.852" transform="translate(-52.615 -95.269)" fill="#cf9455"/>
    <path id="Path_6308" data-name="Path 6308" d="M33.835,88.117c0-1.137-.017-2.275,0-3.412a2.062,2.062,0,0,1,1.561-2.24q5.066-1.8,10.139-3.583a1.969,1.969,0,0,1,2.484.618,1.8,1.8,0,0,1-.1,2.313,3.567,3.567,0,0,1-1.276.785q-4.036,1.489-8.1,2.9c-.59.2-.853.444-.829,1.117.057,1.644.032,3.292.013,4.938a2,2,0,0,1-1.341,2.108,1.779,1.779,0,0,1-2.42-1.427,40.949,40.949,0,0,1-.032-4.116Z" transform="translate(-26.207 -60.968)" fill="#cf9455"/>
    <path id="Path_6309" data-name="Path 6309" d="M225.633,275.632a1.887,1.887,0,0,1,1.484,3.056c-.847,1.3-1.771,2.561-2.736,3.779a54,54,0,0,1-8.956,8.784,1.933,1.933,0,0,1-2.817-.055,1.963,1.963,0,0,1,.3-2.867c1.115-1,2.3-1.919,3.408-2.921a45.74,45.74,0,0,0,7.376-8.543,2.167,2.167,0,0,1,1.939-1.233" transform="translate(-164.326 -213.528)" fill="#cf9455"/>
    <path id="Path_6310" data-name="Path 6310" d="M190.829,346.554a2.021,2.021,0,0,1,1.97-2.026,1.956,1.956,0,0,1,1.956,1.834,2.12,2.12,0,0,1-2.043,2.087,1.91,1.91,0,0,1-1.883-1.9" transform="translate(-147.834 -266.903)" fill="#cf9455"/>
    <path id="Path_6311" data-name="Path 6311" d="M107.633,72.288a1.974,1.974,0,0,1-1.873-1.926,2.017,2.017,0,0,1,1.96-1.941,1.992,1.992,0,0,1,1.923,1.969,2.036,2.036,0,0,1-2.01,1.9" transform="translate(-81.931 -53.005)" fill="#cf9455"/>
  </g>
</svg>
