<svg id="Group_21120" data-name="Group 21120" xmlns="http://www.w3.org/2000/svg" xmlns:xlink="http://www.w3.org/1999/xlink" width="92.263" height="92" viewBox="0 0 92.263 92">
  <defs>
    <clipPath id="clip-path">
      <rect id="Rectangle_1905" data-name="Rectangle 1905" width="92.263" height="92" fill="#cf9455"/>
    </clipPath>
  </defs>
  <g id="Group_21119" data-name="Group 21119" clip-path="url(#clip-path)">
    <path id="Path_6337" data-name="Path 6337" d="M92.054,83.745a3.474,3.474,0,0,1-3.775,2.3c-2.811-.085-5.627-.01-8.441-.034a1.018,1.018,0,0,0-1.036.614,10.26,10.26,0,0,1-10.128,5.278A10.146,10.146,0,0,1,59.8,83.823,9.857,9.857,0,0,1,63.811,73.4a1.083,1.083,0,0,0,.523-1.324,2.482,2.482,0,0,1-.038-.266c-.12-.676-.243-1.351-.376-2.093-.26-.018-.521-.051-.782-.051-3.113,0-6.227.018-9.339-.018-.684-.008-.884.212-1.015.876A26.618,26.618,0,0,1,.172,67.862,26.254,26.254,0,0,1,5.56,49.091a3.4,3.4,0,0,1,.526-.609,1.231,1.231,0,0,1,1.716,0A1.19,1.19,0,0,1,8.117,50.1c-.317.539-.726,1.023-1.087,1.536C-3.039,65.951,5.482,86.154,22.763,88.937a23.93,23.93,0,1,0,7.31-47.3,23.619,23.619,0,0,0-17.993,4.7c-.12.09-.235.186-.357.273a1.361,1.361,0,0,1-2.054-.157,1.274,1.274,0,0,1,.4-1.943c1.767-1.167,3.552-2.319,5.407-3.335,1.529-.837,1.563-.744,1.307-2.531Q14.7,24.089,12.644,9.52c-.105-.756-.38-.907-1.069-.9-2.813.034-5.627.02-8.441.012A2.852,2.852,0,0,1,.031,5.5c0-.629.046-1.261-.009-1.885A3.392,3.392,0,0,1,.685,1.059,3.015,3.015,0,0,1,3.028,0h13.1a4.328,4.328,0,0,1,2.9,1.064,5.821,5.821,0,0,1,1.7,3.817c.623,5.135,1.427,10.248,2.16,15.37a5.311,5.311,0,0,0,.159.586c.742,0,1.485-.011,2.229,0,.923.017,1.5.515,1.519,1.3.025.818-.562,1.364-1.523,1.392-.595.017-1.19,0-1.892,0l.439,3.181H41.673a15.124,15.124,0,0,0-.013-1.772,1.608,1.608,0,0,0-1.786-1.4c-2.9-.01-5.808.032-8.71-.038a2.082,2.082,0,0,1-1.465-.753c-.6-.863.14-1.89,1.305-1.9,2.245-.02,4.49-.006,6.735-.006.748,0,1.5-.007,2.245,0a4.32,4.32,0,0,1,4.4,4.365c.01.477,0,.955,0,1.575.976,0,1.924-.053,2.863.012a24.2,24.2,0,0,1,4.7.483,10.117,10.117,0,0,1,7.316,9.777c.035,3.471.007,6.943.007,10.5.737.042,1.448.033,2.144.129,5.113.7,8.347,4.064,9.2,9.434.751,4.755,1.559,9.5,2.373,14.245a1.171,1.171,0,0,0,.591.758,10.917,10.917,0,0,1,5.331,4.746,1.319,1.319,0,0,0,.978.5c2.843.039,5.689.085,8.53,0,2.037-.061,3.32.79,3.844,3.1l-.209,3.281M56.584,47.561V46.7c0-3.081.009-6.163,0-9.244a7.621,7.621,0,0,0-8.029-7.982q-11.623,0-23.246,0H24.229l.456,3.252h1.1q11.309,0,22.618,0c3.193,0,4.915,1.732,4.919,4.948q.005,4.442,0,8.885v1ZM11.709,5.873c2.64.289,3.265.907,3.613,3.5.02.148.056.294.077.442Q17.055,21.409,18.709,33c.311,2.18.627,4.359.949,6.6l3.184-.661c-.214-1.513-.418-2.958-.624-4.4Q20.644,23.519,19.07,12.507q-.57-4-1.129-7.994c-.125-.9-.469-1.715-1.462-1.775-1.571-.1-3.153-.025-4.771-.025ZM69.822,74.131a7.57,7.57,0,1,0,7.587,7.587,7.582,7.582,0,0,0-7.587-7.587M48.735,50.317c.541.939,1.053,1.742,1.475,2.591a1.042,1.042,0,0,0,1.105.656c2.9-.028,5.8-.021,8.706-.011a4.314,4.314,0,0,1,4.581,3.8c.243,1.261.423,2.535.637,3.8.242,1.43.49,2.86.729,4.25h3.184a4.383,4.383,0,0,0,0-.66c-.462-2.771-.9-5.546-1.409-8.309A7.378,7.378,0,0,0,60.8,50.343c-3.975-.112-7.955-.026-12.069-.026m1.8-11.659c.285-2.115.06-3.3-2.643-3.268-7.212.085-14.426.029-21.639.029H25.079c.165,1.165.313,2.211.459,3.239Zm.092,8.949c0-1.877-.03-3.636.015-5.392.017-.682-.208-.859-.868-.854-3.526.029-7.053.013-10.579.016-.154,0-.308.035-.686.08a27.966,27.966,0,0,1,7.771,5.85,1.021,1.021,0,0,0,.631.287c1.193.026,2.386.012,3.717.012m1.18,8.646c.351,1.391.728,2.708,1,4.046.115.566.331.729.881.724,2.484-.023,4.968-.01,7.452-.01h1.343c-.223-1.278-.391-2.426-.634-3.558a1.457,1.457,0,0,0-1.5-1.189c-2.836-.031-5.673-.013-8.54-.013m11.648,10.67c-.136-.843-.308-1.6-.367-2.37-.054-.7-.371-.869-1.033-.86-2.634.035-5.268.012-7.9.017-.285,0-.57.037-.83.055v3.158ZM8.918,2.773H2.779V5.895H8.918ZM70.239,71.348l-.533-3.13H66.423l.595,3.5,3.221-.367m9.81,11.925h3.244V80.138H80.049Zm6.057-.006h3.127V80.124H86.106Z" transform="translate(0 0)" fill="#cf9455"/>
    <path id="Path_6338" data-name="Path 6338" d="M45.64,186.062a20.688,20.688,0,1,1-20.748,20.6,20.682,20.682,0,0,1,20.748-20.6m-9.1,20.655a9.065,9.065,0,1,0,18.129,0,9.065,9.065,0,0,0-18.129,0m1.733-9.407-4.306-4.3-2.111,2.079,4.333,4.342,2.084-2.117m21.083,21.1-4.329-4.336-2.116,2.057,4.337,4.328,2.109-2.049M27.68,208.318h6.135v-3.151H27.68Zm19.486,10.167H44v6.143h3.165ZM44,195.015h3.141v-6.185H44Zm13.317,13.308h6.168v-3.144H57.314Zm-2.265-8.935,4.332-4.324-2.106-2.108L52.928,197.3l2.121,2.085M36.258,214.062l-4.3,4.291,1.9,2.043,4.322-4.322-1.921-2.012m-8.231-11.757h6.617l-4.665-4.693-1.952,4.693M54.6,222.413l-4.6-4.9v6.78l4.6-1.883M50,189.164v6.526l4.638-4.6L50,189.164m11.288,8.647-4.755,4.529h6.634l-1.879-4.529m-20.094-2.124v-6.531l-4.588,1.92,4.588,4.611m15.372,15.449,4.66,4.669,1.938-4.669Zm-21.854.014H28.021l1.964,4.74,4.728-4.74m6.475,6.5-4.741,4.7,4.741,1.949Z" transform="translate(-18.919 -141.413)" fill="#cf9455"/>
    <path id="Path_6339" data-name="Path 6339" d="M277.329,322.5a4.312,4.312,0,0,1,4.283,4.366,4.319,4.319,0,0,1-8.638-.08,4.288,4.288,0,0,1,4.354-4.286m-.058,5.933a1.661,1.661,0,0,0,1.638-1.656,1.6,1.6,0,0,0-1.6-1.579,1.579,1.579,0,0,0-1.627,1.542,1.64,1.64,0,0,0,1.59,1.693" transform="translate(-207.47 -245.114)" fill="#cf9455"/>
    <path id="Path_6340" data-name="Path 6340" d="M86.956,253.787a5.811,5.811,0,1,1,5.819,5.812,5.841,5.841,0,0,1-5.819-5.812m5.812,3.117a3.117,3.117,0,1,0-3.118-3.148,3.142,3.142,0,0,0,3.118,3.148" transform="translate(-66.09 -188.468)" fill="#cf9455"/>
  </g>
</svg>
