<svg id="Group_21098" data-name="Group 21098" xmlns="http://www.w3.org/2000/svg" xmlns:xlink="http://www.w3.org/1999/xlink" width="104.674" height="92" viewBox="0 0 104.674 92">
  <defs>
    <clipPath id="clip-path">
      <rect id="Rectangle_1881" data-name="Rectangle 1881" width="104.674" height="92" fill="#cf9455"/>
    </clipPath>
  </defs>
  <g id="Group_21097" data-name="Group 21097" clip-path="url(#clip-path)">
    <path id="Path_6301" data-name="Path 6301" d="M104.638,98.165a6.888,6.888,0,0,1-4.188,4.761,35.245,35.245,0,0,0-3.183,1.733c-3.243,1.987-6.148,1.292-8.026-1.886-.1-.173-.214-.339-.471-.747-1.13.9-2.22,1.731-3.254,2.626a.874.874,0,0,0-.056.846A6.918,6.918,0,0,1,81,116.342a1.385,1.385,0,0,0-.25.119,7.426,7.426,0,0,1-1.52,4.909,7.234,7.234,0,0,1-4.476,2.561c-.532,5.785-2.786,7.591-9.154,7.351A6.9,6.9,0,0,1,59.7,136.6c-3.175.478-5.3-1.477-7.469-3.323-1.842,1.477-3.6,2.964-5.441,4.346a6.809,6.809,0,0,1-9.564-1.237,7.453,7.453,0,0,1-1.468-4.906,7.105,7.105,0,0,1-4.46-2.514,6.87,6.87,0,0,1-1.506-5.013A7.306,7.306,0,0,1,25.26,121.4a7.391,7.391,0,0,1-1.54-4.968c-.332-.1-.62-.181-.91-.26a6.819,6.819,0,0,1-3.963-10.363c.4-.616.44-1.014-.129-1.447-.99-.754-1.985-1.5-3.039-2.3-.39.622-.649,1.065-.941,1.493a5.1,5.1,0,0,1-6.47,1.654c-2.064-1.023-4.093-2.138-6.045-3.361A4.969,4.969,0,0,1,.763,95c2.641-4.721,5.313-9.424,7.97-14.136q3.711-6.578,7.42-13.157c1.741-3.075,4.5-3.847,7.6-2.142q2.011,1.1,4.016,2.218c3.348,1.868,4.082,3.507,3.2,7.276,1.58.464,3.165.938,4.759,1.383a.692.692,0,0,0,.547-.15c2.133-1.906,4.8-2.33,7.473-2.617,3.379-.363,6.772-.589,10.156-.908a12.527,12.527,0,0,1,5.41.727c2.53.892,5.042,1.837,7.6,2.656a4.934,4.934,0,0,0,2.36.111c1.421-.279,2.8-.753,4.269-1.165-.108-.364-.2-.64-.27-.917a5.181,5.181,0,0,1,2.412-5.809q2.716-1.587,5.5-3.057a5.039,5.039,0,0,1,6.886,1.982c1.054,1.788,2.061,3.6,3.063,5.42a2.049,2.049,0,1,1-3.548,2c-.972-1.677-1.906-3.378-2.868-5.061-.58-1.015-.935-1.112-1.976-.541q-2.368,1.3-4.721,2.628c-.979.553-1.081.9-.525,1.887q7.666,13.6,15.346,27.2c.538.952.962,1.076,1.912.561q2.419-1.314,4.814-2.671c.937-.53,1.03-.922.478-1.912-1.078-1.931-2.175-3.851-3.253-5.782a2.033,2.033,0,0,1,.065-2.31,1.727,1.727,0,0,1,1.957-.775,2.613,2.613,0,0,1,1.435,1c1.448,2.534,2.8,5.124,4.182,7.7a2.562,2.562,0,0,1,.211,1.534M47.264,112.241c4.054,2.89,4.711,5.416,2.7,10.3a7.022,7.022,0,0,1,3.835,6.474.765.765,0,0,0,.284.5c1.112.9,2.186,1.854,3.377,2.63a2.755,2.755,0,0,0,3.09-4.552c-.966-.806-1.977-1.56-2.927-2.385a1.976,1.976,0,0,1-.5-2.5,1.934,1.934,0,0,1,2.229-1.026,3.769,3.769,0,0,1,1.225.693c1.873,1.469,3.7,3,5.6,4.439a2.711,2.711,0,0,0,3.83-.464,2.768,2.768,0,0,0-.378-3.856c-.352-.32-.737-.6-1.109-.9-1.54-1.233-3.09-2.454-4.618-3.7a2.053,2.053,0,1,1,2.507-3.214c.3.226.588.463.88.7,1.623,1.293,3.213,2.629,4.876,3.868a2.74,2.74,0,0,0,4.455-1.885,2.869,2.869,0,0,0-1.244-2.644c-1.731-1.376-3.467-2.745-5.172-4.153a2.021,2.021,0,0,1,1.649-3.593,3.784,3.784,0,0,1,1.225.693c1.687,1.321,3.337,2.69,5.033,4a2.772,2.772,0,1,0,3.509-4.29c-.2-.182-.417-.35-.63-.519-3.273-2.606-6.5-5.266-9.832-7.8-3.731-2.844-7.531-5.6-11.334-8.346a12.207,12.207,0,0,0-9.765-2.16,32.064,32.064,0,0,1-3.323.49c-5.817.468-10.74-2.214-11.881-8.1a.942.942,0,0,0-.524-.613c-1.809-.566-3.632-1.082-5.519-1.634L17.69,98.4l4.965,3.883c1.754-1.4,3.553-2.909,5.429-4.317a6.817,6.817,0,0,1,10.539,3.048c.106.275.219.547.323.807,4.006-.723,6.369-.077,8.115,2.321,1.892,2.6,1.79,5.314.2,8.1m28.417-33.5c-1.875.528-3.611,1-5.337,1.506a7.316,7.316,0,0,1-4.789-.2c-2.477-.932-4.972-1.826-7.492-2.635a9.31,9.31,0,0,0-3.28-.566c-3.629.212-7.252.55-10.867.935a18.117,18.117,0,0,0-3.761.853c-1.335.444-1.526,1.014-1.084,2.371a5.354,5.354,0,0,0,3.809,3.647,10.279,10.279,0,0,0,5.248.091,17.379,17.379,0,0,1,14.927,3.206c2.4,1.789,4.872,3.479,7.247,5.3,3.911,3,7.769,6.06,11.536,9.007l4.942-3.843L75.681,78.74M10.659,101.8a5.454,5.454,0,0,0,.967-1Q19.32,87.224,26.973,73.623c.55-.975.444-1.343-.528-1.893q-2.35-1.329-4.721-2.619c-1.041-.568-1.4-.471-1.976.544Q12.071,83.241,4.408,96.835c-.547.97-.437,1.36.518,1.9,1.567.885,3.143,1.754,4.721,2.621.263.144.55.244,1.012.444m33.715,6.922c-.052-1.558-.526-2.381-1.478-2.883a2.572,2.572,0,0,0-2.967.246c-3.7,2.934-7.4,5.874-11.067,8.857a2.76,2.76,0,0,0,3.451,4.308c3.689-2.9,7.36-5.819,10.976-8.807a5.543,5.543,0,0,0,1.086-1.719M36.681,127.5a5.671,5.671,0,0,0,1.478-.591c2.7-2.113,5.393-4.237,8.021-6.439a2.689,2.689,0,0,0,.246-3.7,2.615,2.615,0,0,0-3.565-.611c-2.784,2.114-5.512,4.3-8.2,6.544a2.482,2.482,0,0,0-.588,3,3,3,0,0,0,2.6,1.8M24.846,112.309a3.569,3.569,0,0,0,1.211-.455c2.728-2.13,5.451-4.27,8.1-6.5a2.674,2.674,0,0,0,.19-3.7,2.642,2.642,0,0,0-3.573-.564q-4.163,3.185-8.18,6.56a2.442,2.442,0,0,0-.546,3,2.764,2.764,0,0,0,2.8,1.649M42.818,134.97a3.5,3.5,0,0,0,1.159-.4c1.7-1.3,3.408-2.6,5-4.022a2.729,2.729,0,0,0-3.47-4.145c-1.675,1.217-3.287,2.53-4.853,3.885a2.568,2.568,0,0,0-.525,3.018,2.873,2.873,0,0,0,2.689,1.667" transform="translate(0 -47.04)" fill="#cf9455"/>
    <path id="Path_6302" data-name="Path 6302" d="M188.178,7.212c0,1.669.014,3.338,0,5.007a2.048,2.048,0,1,1-4.071.013q-.021-5.007,0-10.014a2.041,2.041,0,1,1,4.069-.013c.023,1.669.005,3.338.006,5.007" transform="translate(-133.905 0)" fill="#cf9455"/>
    <path id="Path_6303" data-name="Path 6303" d="M123.794,32.741A2.07,2.07,0,0,1,122.41,34.9a1.951,1.951,0,0,1-2.38-.884c-1.15-1.768-2.258-3.564-3.382-5.35-.653-1.036-1.322-2.063-1.95-3.115a2.059,2.059,0,0,1,.576-2.954,2.009,2.009,0,0,1,2.831.741c1.8,2.807,3.567,5.635,5.327,8.467a4.4,4.4,0,0,1,.362.933" transform="translate(-83.155 -16.211)" fill="#cf9455"/>
    <path id="Path_6304" data-name="Path 6304" d="M243.488,23.616a2.345,2.345,0,0,1-.119,1.659,2.554,2.554,0,0,1-.164.314q-2.555,4.12-5.153,8.214a2.04,2.04,0,0,1-2.949.872,2.061,2.061,0,0,1-.5-3.042q2.587-4.16,5.217-8.294a1.972,1.972,0,0,1,2.453-.948,1.885,1.885,0,0,1,1.213,1.225" transform="translate(-170.325 -16.188)" fill="#cf9455"/>
    <path id="Path_6305" data-name="Path 6305" d="M337.349,122.551a1.974,1.974,0,0,1,1.969-2.035,2,2,0,0,1,2.067,1.948,2.043,2.043,0,0,1-2.032,2.107,2.013,2.013,0,0,1-2-2.02" transform="translate(-245.382 -87.661)" fill="#cf9455"/>
  </g>
</svg>
