<svg id="Group_21122" data-name="Group 21122" xmlns="http://www.w3.org/2000/svg" xmlns:xlink="http://www.w3.org/1999/xlink" width="92.035" height="92" viewBox="0 0 92.035 92">
  <defs>
    <clipPath id="clip-path">
      <rect id="Rectangle_1906" data-name="Rectangle 1906" width="92.035" height="92" fill="#cf9455"/>
    </clipPath>
  </defs>
  <g id="Group_21121" data-name="Group 21121" clip-path="url(#clip-path)">
    <path id="Path_6341" data-name="Path 6341" d="M0,177.331c1.07-3.377,3.808-3.426,6.681-3.195v-21.53a12.26,12.26,0,0,1-1.8.637,4.018,4.018,0,0,1-3.21-7.135c2.116-1.667,4.19-3.408,6.432-4.889a4.229,4.229,0,0,0,2.1-4.27c-.182-3.134-.056-6.285-.042-9.43,0-.493-.08-.808-.616-1.014a1.806,1.806,0,0,1-1.165-1.767c-.024-1.347-.05-2.7,0-4.041a1.936,1.936,0,0,1,2.076-2.011q6.424-.04,12.848,0a1.961,1.961,0,0,1,2.105,2.081c.048,1.286.023,2.575.007,3.862a1.8,1.8,0,0,1-1.078,1.82c-.673.247-.745.653-.712,1.228.025.441.005.885.005,1.533.413-.3.67-.483.919-.674q3.884-2.979,7.766-5.959a4.075,4.075,0,0,1,5.434-.018q15.22,11.662,30.424,23.345a4.046,4.046,0,0,1-4.411,6.785c-.075-.041-.158-.067-.328-.139V174.1c1.2,0,2.419,0,3.639,0,.958,0,1.918-.029,2.874.018a1.334,1.334,0,0,1,.019,2.661,7.517,7.517,0,0,1-.987.016H4.833a6.533,6.533,0,0,0-.9.016,1.336,1.336,0,0,0-.038,2.659,4.754,4.754,0,0,0,.807.02H87.275c1.379,0,2.029-.423,2.044-1.328s-.648-1.367-2-1.367H76.893c-.24,0-.481.013-.718-.009a1.327,1.327,0,0,1-1.291-1.343,1.3,1.3,0,0,1,1.3-1.33c.777-.04,1.557-.013,2.335-.013q4.582,0,9.164,0a4.042,4.042,0,0,1,1.324,7.941,1.088,1.088,0,0,0-.22.144H3.235A4.733,4.733,0,0,1,0,178.948Zm60.6-3.278c.024-.224.047-.342.048-.461,0-7.547.013-15.094-.024-22.641a1.713,1.713,0,0,0-.663-1.129q-12.124-9.356-24.275-18.679a.873.873,0,0,0-1.3.016c-2.617,2.048-5.262,4.061-7.9,6.084-1.33,1.021-2.651,2.054-4,3.051a1.315,1.315,0,0,1-1.979-.213,1.37,1.37,0,0,1,.335-1.906c.136-.117.283-.222.425-.331q6.2-4.758,12.4-9.515c1.212-.93,1.547-.929,2.75-.005l27.431,21.057c.4.31.8.633,1.215.924a1.364,1.364,0,0,0,1.93-.174,1.383,1.383,0,0,0-.319-1.976c-.136-.117-.283-.221-.426-.33L36.611,125.077c-1.458-1.119-1.663-1.122-3.107-.014L8.777,144.036C7,145.4,5.208,146.762,3.438,148.145a1.354,1.354,0,0,0-.361,1.965,1.378,1.378,0,0,0,2,.156c.245-.171.48-.358.717-.54q4.847-3.716,9.695-7.433a3.45,3.45,0,0,1,.588-.407,1.325,1.325,0,0,1,1.615,2.04,4.154,4.154,0,0,1-.675.588c-2.278,1.753-4.544,3.521-6.85,5.237a1.634,1.634,0,0,0-.742,1.487c.023,7.277.014,14.555.017,21.833,0,.318.029.635.045.975h4.983v-1.1q0-8.85,0-17.7c0-1.833.327-2.165,2.122-2.166H31.237c1.755,0,2.1.344,2.1,2.1q0,8.895,0,17.79v1.09Zm-43.364-.01H30.567V155.806H17.24ZM12.9,137.475c2.682-2.056,5.192-3.978,7.7-5.907.133-.1.3-.272.305-.412.023-1.447.014-2.9.014-4.323H12.9Zm9.763-16.025H11.136v2.612h9.3c2.513,0,2.513,0,2.221-2.612" transform="translate(0 -90.183)" fill="#cf9455"/>
    <path id="Path_6342" data-name="Path 6342" d="M192.5,37.072a20.236,20.236,0,1,1,.417-33.365,20.359,20.359,0,0,1,5.205,27.741c.75.722,1.508,1.483,2.31,2.195a.879.879,0,0,0,.707.048,2.883,2.883,0,0,1,3.125.766c3.067,3.073,6.148,6.133,9.207,9.215a2.755,2.755,0,0,1,.021,4.143q-2.289,2.347-4.638,4.637a2.755,2.755,0,0,1-4.142-.03c-3.079-3.061-6.14-6.141-9.215-9.206a2.909,2.909,0,0,1-.772-3.124,1.036,1.036,0,0,0-.169-.834c-.641-.748-1.345-1.441-2.056-2.186M181.288,2.69a17.52,17.52,0,1,0,17.479,17.586A17.551,17.551,0,0,0,181.288,2.69M211.548,45.8,202.2,36.438l-4.691,4.678,9.35,9.368,4.689-4.689M196.585,33.759l-1.881,1.6,2.061,2.182,1.849-1.818-2.028-1.964" transform="translate(-122.385 0)" fill="#cf9455"/>
    <path id="Path_6343" data-name="Path 6343" d="M163.8,275.5c-2.484,0-4.968,0-7.452,0-1.283,0-1.735-.435-1.739-1.718q-.018-5.027,0-10.055c.005-1.258.478-1.7,1.768-1.7q7.5-.006,14.995,0c1.266,0,1.736.459,1.741,1.73q.018,4.983,0,9.965c0,1.346-.443,1.776-1.771,1.778q-3.771.007-7.542,0m-6.427-2.748h5.067v-8h-5.067Zm7.868-.019h5.122V264.8h-5.122Z" transform="translate(-117.492 -199.131)" fill="#cf9455"/>
    <path id="Path_6344" data-name="Path 6344" d="M129.491,194.451a7.625,7.625,0,1,1-7.668-7.622,7.615,7.615,0,0,1,7.668,7.622m-9.029-1.314v-3.309a4.156,4.156,0,0,0-3.221,3.309Zm6.042,0a4.134,4.134,0,0,0-3.228-3.294v3.294Zm-9.361,2.771a5.123,5.123,0,0,0,3.3,3.262v-3.262Zm6.135,0v3.166a4.205,4.205,0,0,0,3.189-3.166Z" transform="translate(-86.819 -141.984)" fill="#cf9455"/>
    <path id="Path_6345" data-name="Path 6345" d="M110.869,311.68c0,.149,0,.3,0,.446-.037,1.06-.521,1.629-1.372,1.615-.815-.014-1.286-.568-1.319-1.574a10.273,10.273,0,0,1,.011-1.16,1.284,1.284,0,0,1,1.357-1.342,1.266,1.266,0,0,1,1.307,1.3c.021.236,0,.476,0,.714h.014" transform="translate(-82.203 -235.335)" fill="#cf9455"/>
    <path id="Path_6346" data-name="Path 6346" d="M198.189,51.743a14.817,14.817,0,0,1-1.836-29.524,14.51,14.51,0,0,1,9.708,2.149c.9.567,1.116,1.412.574,2.109-.468.6-1.166.688-2,.172a12.3,12.3,0,0,0-7.457-1.8,12.1,12.1,0,0,0-1.462,23.923c4.9.887,9.064-.549,12.074-4.555,2.992-3.982,3.3-8.348,1.14-12.854-.312-.652-.563-1.274-.017-1.914a1.362,1.362,0,0,1,2.287.413,14.212,14.212,0,0,1,1.75,7.778A14.709,14.709,0,0,1,200.334,51.56c-.705.119-1.429.124-2.145.182" transform="translate(-139.342 -16.796)" fill="#cf9455"/>
  </g>
</svg>
