<svg id="Group_21109" data-name="Group 21109" xmlns="http://www.w3.org/2000/svg" xmlns:xlink="http://www.w3.org/1999/xlink" width="82.754" height="92" viewBox="0 0 82.754 92">
  <defs>
    <clipPath id="clip-path">
      <rect id="Rectangle_1895" data-name="Rectangle 1895" width="82.754" height="92" fill="#cf9455"/>
    </clipPath>
  </defs>
  <g id="Group_21108" data-name="Group 21108" clip-path="url(#clip-path)">
    <path id="Path_6313" data-name="Path 6313" d="M.959,92A2.241,2.241,0,0,1,0,89.856c.3-8.244,4.486-13.919,11.637-17.59A87.077,87.077,0,0,1,26.98,66.519,1.75,1.75,0,0,0,28.328,65.2a22.314,22.314,0,0,0,1.034-9.289,1.735,1.735,0,0,0-.5-.966c-.82-.786-1.665-1.553-2.557-2.257a8.039,8.039,0,0,1-3.3-7.185c.055-.831-.173-1.208-1.039-1.5a7.55,7.55,0,0,1-3.789-11.4l.448-.668c-1.552-.794-1.861-2.162-1.785-3.717a15.229,15.229,0,0,1,.037-2.06,3.677,3.677,0,0,1,.775-2.016,3.068,3.068,0,0,0,.914-2.294C19.686,13.015,23.9,6.2,31.982,2.221c9.7-4.776,21.1-1.632,27.553,7.345a24.9,24.9,0,0,1,4.689,12.8,2.037,2.037,0,0,0,.7,1.537c1.463,1.291,1.431,6.1.016,7.443-.233.221-.5.406-.791.639a7.5,7.5,0,0,1,1.7,5.445,7.385,7.385,0,0,1-5.224,6.631c-.623.221-.938.441-.88,1.162a8.278,8.278,0,0,1-3.49,7.638c-.617.472-1.133,1.082-1.771,1.516a2.818,2.818,0,0,0-1.219,2.506A25.029,25.029,0,0,0,54.428,65.2a1.76,1.76,0,0,0,1.349,1.316,95.633,95.633,0,0,1,15.346,5.736A19.946,19.946,0,0,1,81.992,84.819a34.574,34.574,0,0,1,.749,5.485c.1.79-.417,1.249-.947,1.695ZM26.138,44.475c-.239,2.108-.066,3.963,1.61,5.407,2.765,2.382,5.5,4.8,8.246,7.2a4.544,4.544,0,0,0,3.114,1.175c1.5-.009,2.992-.012,4.488,0a4.633,4.633,0,0,0,3.2-1.2c2.724-2.383,5.437-4.781,8.179-7.143,1.695-1.46,1.9-3.322,1.633-5.443H55.585c-2.364,0-4.729-.059-7.091.015a8.279,8.279,0,0,1-7.016-2.91c-.029-.034-.11-.023-.167-.031-2.243,2.317-3.679,2.925-6.914,2.926H26.138M10.4,76.437l.107.185H72.3a6.284,6.284,0,0,0-1.529-1.1,88.236,88.236,0,0,0-16.14-6.148,1.172,1.172,0,0,0-.914.27,14.775,14.775,0,0,1-4.8,2.754A23.321,23.321,0,0,1,38.739,73.47,16.8,16.8,0,0,1,28.978,69.6a1.158,1.158,0,0,0-.931-.207,95.555,95.555,0,0,0-14.939,5.55c-.927.453-1.809.994-2.712,1.5M77.988,82.78c-.571-.851-1.052-1.528-1.489-2.231a1.682,1.682,0,0,0-1.634-.815c-9.036.028-18.073.018-27.109.018q-19.973,0-39.945.007c-.343,0-.835-.019-1,.183C6.1,80.8,5.484,81.73,4.731,82.78ZM56.648,32.264H26.132v9.091c3.3,0,6.525.077,9.748-.029a4.368,4.368,0,0,0,3.89-3.77,10.385,10.385,0,0,1,.161-1.154,1.5,1.5,0,0,1,2.894.011,8.771,8.771,0,0,1,.149,1.065,4.391,4.391,0,0,0,4,3.861c3.168.1,6.341.027,9.512.023.046,0,.092-.064.162-.117ZM32.578,58.306a27.648,27.648,0,0,1-1.524,8.5.9.9,0,0,0,.329.783,20.777,20.777,0,0,0,3.1,1.765,19.362,19.362,0,0,0,9.352,1.053A13.88,13.88,0,0,0,51.3,67.681a.864.864,0,0,0,.35-1.127,27.793,27.793,0,0,1-.99-3.714c-.27-1.478-.387-2.984-.581-4.564-.5.427-.944.814-1.4,1.194a7.466,7.466,0,0,1-4.836,1.848c-.9.011-1.8-.056-2.69.021a9.561,9.561,0,0,1-8.308-2.914c-.035-.038-.1-.046-.276-.118M61.265,85.942H21.518v2.95H61.265ZM38.282,22.955h6.19c-.319-6.662-.433-13.277-3.1-19.532-2.66,6.254-2.78,12.868-3.093,19.532m-3.051.029c.254-6.328.526-12.556,2.333-18.665-5.306,2.842-8.457,12.551-8.289,18.665ZM45.147,4.216c1.882,6.252,2.1,12.519,2.385,18.758h5.991a1.386,1.386,0,0,0,.05-.295c-.05-.656-.09-1.313-.164-1.966A27.827,27.827,0,0,0,49.235,8.26a12.355,12.355,0,0,0-4.088-4.044m11.82,18.759h4.148c.408-5.383-4.578-14.284-8.94-16.35A77.769,77.769,0,0,1,55.3,14.341a86.976,86.976,0,0,1,1.671,8.633M30.953,6.465c-4.667,2.116-9.634,10.95-9.329,16.495h4.464A31.964,31.964,0,0,1,30.953,6.465M18.345,85.88c-4.808,0-9.533,0-14.259.018a.725.725,0,0,0-.556.4c-.192.835-.308,1.688-.461,2.591H18.345Zm46.076,0v3.006H79.684c-.134-.8-.3-1.532-.368-2.271-.062-.633-.38-.749-.95-.746-4.161.02-8.321.011-12.482.011H64.421M36.826,29.086h9.089V26.118H36.826ZM22.939,41.037V32.654a4.254,4.254,0,0,0-3.011,4.036,4.4,4.4,0,0,0,3.011,4.347m36.885-8.443v8.379A4.146,4.146,0,0,0,62.8,37.2a4.449,4.449,0,0,0-2.978-4.611M33.656,26.16h-6.03v2.921h6.03Zm21.5-.025H49.124V29.07h6.034Zm-30.691.017h-4.5v2.936h4.5Zm33.816,2.918h4.5V26.137h-4.5Z" transform="translate(0 0)" fill="#cf9455"/>
    <path id="Path_6314" data-name="Path 6314" d="M157.958,198.138c.928,0,1.856-.018,2.783,0,1.077.027,1.735.628,1.726,1.532a1.537,1.537,0,0,1-1.659,1.52q-2.917.048-5.835,0a1.535,1.535,0,1,1,.023-3.053c.987-.024,1.975-.005,2.963-.005" transform="translate(-116.503 -150.584)" fill="#cf9455"/>
    <path id="Path_6315" data-name="Path 6315" d="M162.746,220.262c-.538,0-1.078.029-1.615-.006a1.478,1.478,0,0,1-1.439-1.437,1.46,1.46,0,0,1,1.3-1.565,27.038,27.038,0,0,1,3.495,0,1.463,1.463,0,0,1,1.307,1.563,1.48,1.48,0,0,1-1.437,1.44c-.536.036-1.076.007-1.615.007" transform="translate(-121.369 -165.074)" fill="#cf9455"/>
    <path id="Path_6316" data-name="Path 6316" d="M130.924,140.722c.5,0,1.01-.024,1.512,0a1.556,1.556,0,0,1,1.491,1.354,1.505,1.505,0,0,1-.876,1.555c-.3.169-.484.521-.766.726-.453.33-.936.826-1.419.841-.44.014-.914-.5-1.34-.819-.272-.206-.445-.559-.73-.727a1.691,1.691,0,0,1-.8-2.086,1.384,1.384,0,0,1,1.313-.844c.538-.022,1.077,0,1.615,0v0" transform="translate(-97.188 -106.944)" fill="#cf9455"/>
    <path id="Path_6317" data-name="Path 6317" d="M197.551,141.439a1.65,1.65,0,0,1,.019,1.474c-.078.171-.174.321-.3.349-1.2.269-1.17,2.125-2.609,1.949-.36-.044-.947-.222-1-.443-.287-1.167-1.991-1.164-1.991-2.52a1.45,1.45,0,0,1,1.4-1.552c1.1-.046,2.215-.045,3.319,0a1.376,1.376,0,0,1,1.161.741" transform="translate(-145.674 -106.906)" fill="#cf9455"/>
  </g>
</svg>
