<svg id="Group_21129" data-name="Group 21129" xmlns="http://www.w3.org/2000/svg" xmlns:xlink="http://www.w3.org/1999/xlink" width="95.572" height="93.688" viewBox="0 0 95.572 93.688">
  <defs>
    <clipPath id="clip-path">
      <rect id="Rectangle_1914" data-name="Rectangle 1914" width="95.572" height="93.688" fill="#cf9455"/>
    </clipPath>
  </defs>
  <g id="Group_21128" data-name="Group 21128" clip-path="url(#clip-path)">
    <path id="Path_6355" data-name="Path 6355" d="M95.571,50.363a.285.285,0,0,1-.005.055c-.352,1.811-.592,3.652-1.082,5.424a26.522,26.522,0,0,1-9.09,13.78,2.214,2.214,0,0,0-.921,1.952c.041,6.657.023,13.315.022,19.972,0,1.766-.376,2.142-2.129,2.142H2.105c-1.714,0-2.1-.379-2.1-2.059Q0,73.943,0,56.258c0-.249-.014-.5.01-.746A1.419,1.419,0,0,1,1.42,54.166a1.421,1.421,0,0,1,1.374,1.38c.024.278.009.56.009.84q0,16.659,0,33.318v.843a.3.3,0,0,0,.3.3H81.323a.3.3,0,0,0,.3-.3V72.8a.294.294,0,0,0-.428-.262C71.883,77.177,62.7,76.93,53.918,71.92a.3.3,0,0,0-.212-.032,11.219,11.219,0,0,1-2.2.461c-6.968.032-13.937.02-20.905.02-.187,0-.374.005-.56,0-1.007-.042-1.64-.589-1.64-1.413s.63-1.377,1.646-1.379q7.093-.015,14.186-.005h5.63a.3.3,0,0,0,.2-.512l0,0a27.069,27.069,0,0,1-7.58-10.809,1.067,1.067,0,0,0-1.222-.788c-3.671.026-7.342.03-11.012-.008a2.114,2.114,0,0,1-1.42-.479,1.556,1.556,0,0,1-.251-1.4,1.768,1.768,0,0,1,1.262-.852c1.831-.1,3.669-.042,5.5-.043h5.611a.3.3,0,0,0,.292-.349l-.352-1.944a.3.3,0,0,0-.292-.244H39.059q-4.386,0-8.773,0c-1.235,0-1.916-.526-1.889-1.424.026-.873.684-1.368,1.866-1.371q4.62-.01,9.239,0h.817a.3.3,0,0,0,.295-.3,28.138,28.138,0,0,1,2.135-11.362.3.3,0,0,0-.272-.408h-.725q-5.6,0-11.2,0c-.4,0-.913.07-1.176-.139a2.444,2.444,0,0,1-.93-1.328,1.163,1.163,0,0,1,1.089-1.285,5.425,5.425,0,0,1,.93-.041c4.293,0,8.586-.018,12.879.015a1.466,1.466,0,0,0,1.563-.847,9.9,9.9,0,0,1,.791-1.249.3.3,0,0,0-.242-.464H30.443A4.939,4.939,0,0,1,29.6,31.9,1.315,1.315,0,0,1,28.413,30.6a.348.348,0,0,1,.008-.1c.33-1.491,1.233-1.388,2.051-1.388,5.685,0,11.37.01,17.055-.026a2.653,2.653,0,0,0,1.567-.633,27.467,27.467,0,0,1,31.711-4.475c.129.068.262.129.41.195a.3.3,0,0,0,.417-.269V13.542a.3.3,0,0,0-.3-.3H64.344a4.032,4.032,0,0,1-.837-.026,1.319,1.319,0,0,1-1.167-1.36,1.314,1.314,0,0,1,1.144-1.378,4.27,4.27,0,0,1,.93-.035q8.073,0,16.146,0h.78a.3.3,0,0,0,.3-.3V3.135a.3.3,0,0,0-.3-.3H3.162a.3.3,0,0,0-.3.3v7.016a.3.3,0,0,0,.3.3H56.9a6.847,6.847,0,0,1,1.025.02,1.311,1.311,0,0,1,1.251,1.375,1.309,1.309,0,0,1-1.239,1.384,5.918,5.918,0,0,1-.932.019H3.1a.3.3,0,0,0-.3.3V48.487c0,.28.009.561,0,.84a1.4,1.4,0,1,1-2.793.043C0,49.184,0,49,0,48.81Q0,25.431,0,2.053C0,.405.4,0,2.018,0H82.466c1.618,0,2.029.412,2.029,2.052q0,11.666-.014,23.332a1.7,1.7,0,0,0,.712,1.484A27.08,27.08,0,0,1,95.414,45.581a2.273,2.273,0,0,0,.142.471.3.3,0,0,1,.015.1ZM68.1,23.666a24.666,24.666,0,1,0,24.667,24.7A24.67,24.67,0,0,0,68.1,23.666" transform="translate(0 0)" fill="#cf9455"/>
    <path id="Path_6356" data-name="Path 6356" d="M41.011,102.22c0-1.677-.011-3.355,0-5.032.01-1.177.463-1.653,1.629-1.658q5.079-.023,10.157,0c1.143.005,1.631.5,1.637,1.676q.025,5.032,0,10.064c-.006,1.151-.51,1.674-1.656,1.681q-5.078.035-10.157,0c-1.149-.008-1.6-.52-1.61-1.7-.013-1.677,0-3.355,0-5.032m2.834,3.878h7.745V98.4H43.845Z" transform="translate(-30.782 -71.7)" fill="#cf9455"/>
    <path id="Path_6357" data-name="Path 6357" d="M41.011,183.252c0-1.678-.011-3.356,0-5.033.01-1.163.487-1.65,1.639-1.654q5.08-.017,10.16,0a1.415,1.415,0,0,1,1.622,1.6q.034,5.08,0,10.16a1.46,1.46,0,0,1-1.663,1.669q-5.08.021-10.16,0c-1.087,0-1.586-.52-1.6-1.614-.018-1.709,0-3.417,0-5.126m2.839,3.885h7.717v-7.72H43.85Z" transform="translate(-30.781 -132.529)" fill="#cf9455"/>
    <path id="Path_6358" data-name="Path 6358" d="M47.683,270.981c-1.678,0-3.355.008-5.033,0-1.152-.008-1.631-.483-1.635-1.65q-.017-5.033,0-10.066c0-1.209.491-1.7,1.7-1.707q4.986-.018,9.973,0c1.242,0,1.752.512,1.757,1.767q.02,4.94,0,9.88c0,1.321-.483,1.773-1.817,1.778-1.647.005-3.293,0-4.94,0m-3.824-2.867h7.73v-7.709h-7.73Z" transform="translate(-30.781 -193.325)" fill="#cf9455"/>
    <path id="Path_6359" data-name="Path 6359" d="M126.662,303q-5.312,0-10.623,0c-.279,0-.647.094-.82-.046-.424-.344-.985-.762-1.06-1.22-.066-.4.416-.931.735-1.343.117-.152.459-.178.7-.178q11.089-.014,22.178,0a1.376,1.376,0,0,1,1.514,1.413c-.005.866-.584,1.371-1.627,1.373q-5.5.011-11,0" transform="translate(-85.688 -225.343)" fill="#cf9455"/>
    <path id="Path_6360" data-name="Path 6360" d="M119.22,260.348c-1.211,0-2.421.008-3.631,0-1.073-.009-1.725-.555-1.711-1.407.013-.824.646-1.379,1.656-1.385q3.678-.022,7.356,0c1.034.006,1.629.528,1.643,1.377.015.894-.58,1.4-1.681,1.415-1.21.011-2.421,0-3.631,0" transform="translate(-85.481 -193.322)" fill="#cf9455"/>
    <path id="Path_6361" data-name="Path 6361" d="M119.178,179.358c-1.211,0-2.422.01-3.632,0-1.013-.011-1.646-.545-1.669-1.369-.023-.854.631-1.42,1.7-1.424q3.678-.015,7.357,0c1.022.005,1.61.542,1.6,1.4s-.6,1.375-1.63,1.387c-1.242.015-2.483,0-3.725,0" transform="translate(-85.48 -132.529)" fill="#cf9455"/>
    <path id="Path_6362" data-name="Path 6362" d="M119.27,95.528c1.241,0,2.482-.018,3.723.005.995.019,1.532.517,1.543,1.359a1.356,1.356,0,0,1-1.5,1.418q-3.816.046-7.632,0a1.4,1.4,0,1,1,.05-2.777c1.272-.022,2.544-.005,3.816-.006" transform="translate(-85.486 -71.702)" fill="#cf9455"/>
    <path id="Path_6363" data-name="Path 6363" d="M162.544,23.685c-.31,0-.621.02-.929-.005a1.387,1.387,0,0,1-.012-2.773,13.531,13.531,0,0,1,1.857,0,1.369,1.369,0,0,1,1.348,1.381,1.387,1.387,0,0,1-1.427,1.4c-.278.017-.557,0-.836,0" transform="translate(-120.297 -15.669)" fill="#cf9455"/>
    <path id="Path_6364" data-name="Path 6364" d="M192.88,23.686c-.279,0-.558.017-.835,0a1.391,1.391,0,0,1,.008-2.781,14.2,14.2,0,0,1,1.763,0,1.39,1.39,0,0,1-.007,2.779c-.308.022-.619,0-.928,0" transform="translate(-143.126 -15.669)" fill="#cf9455"/>
    <path id="Path_6365" data-name="Path 6365" d="M132.259,23.662a6.456,6.456,0,0,1-.927-.007,1.3,1.3,0,0,1-1.244-1.366,1.276,1.276,0,0,1,1.218-1.386,10.707,10.707,0,0,1,1.947-.015,1.379,1.379,0,0,1,1.355,1.374,1.4,1.4,0,0,1-1.421,1.4c-.308.019-.619,0-.928,0v-.007" transform="translate(-97.649 -15.652)" fill="#cf9455"/>
    <path id="Path_6366" data-name="Path 6366" d="M234.589,136.144c-.067,9.688-7.677,18.088-17.039,19.028a19.184,19.184,0,1,1-2.122-38.245,18.889,18.889,0,0,1,12.05,4.314,4.276,4.276,0,0,1,.556.5,1.382,1.382,0,0,1-1.785,2.092c-.644-.433-1.226-.958-1.871-1.388A16.358,16.358,0,1,0,212.4,152.169c6.643,1.113,12.17-1.033,16.137-6.44,3.948-5.382,4.225-11.247,1.3-17.252-.1-.2-.205-.385-.29-.584a1.365,1.365,0,0,1,.638-1.894,1.34,1.34,0,0,1,1.825.62,17.893,17.893,0,0,1,2.224,6.191c.179,1.1.236,2.222.348,3.334" transform="translate(-147.282 -87.77)" fill="#cf9455"/>
    <path id="Path_6367" data-name="Path 6367" d="M258.223,169.375c0,.7.02,1.349,0,2a1.407,1.407,0,0,1-1.4,1.534c-.833,0-1.361-.569-1.387-1.528-.017-.645,0-1.291,0-2-.555-.024-1.014-.029-1.47-.067a2.939,2.939,0,0,1-2.676-2.949,1.29,1.29,0,0,1,1.068-1.341,1.215,1.215,0,0,1,1.564.831c.177.659.541.707,1.082.689.87-.028,1.742,0,2.613-.01,1.258-.015,1.966-.614,1.946-1.629-.019-1-.745-1.566-2.01-1.575-.56,0-1.12,0-1.68,0a4.412,4.412,0,0,1-.891-8.762l.454-.094c0-.678-.016-1.356,0-2.034a1.349,1.349,0,0,1,1.33-1.485,1.4,1.4,0,0,1,1.457,1.475c.021.341.006.684.006,1.026,0,.309,0,.619,0,1.079.437,0,.826-.009,1.215,0a2.859,2.859,0,0,1,2.721,1.914c.453,1.08.116,2.081-.746,2.364-.88.29-1.541-.186-1.943-1.464-1.331,0-2.693-.044-4.05.017a1.479,1.479,0,0,0-1.338,1.624,1.538,1.538,0,0,0,1.476,1.519c.65.048,1.306.016,1.959.018,2.672.008,4.608,1.594,4.824,3.952.226,2.458-1.324,4.345-4.12,4.9" transform="translate(-188.619 -113.309)" fill="#cf9455"/>
  </g>
</svg>
