<svg id="Group_21111" data-name="Group 21111" xmlns="http://www.w3.org/2000/svg" xmlns:xlink="http://www.w3.org/1999/xlink" width="92.056" height="92" viewBox="0 0 92.056 92">
  <defs>
    <clipPath id="clip-path">
      <rect id="Rectangle_1896" data-name="Rectangle 1896" width="92.056" height="92" fill="#cf9455"/>
    </clipPath>
  </defs>
  <g id="Group_21110" data-name="Group 21110" clip-path="url(#clip-path)">
    <path id="Path_6318" data-name="Path 6318" d="M56.4,0c1.545.163,3.1.259,4.632.5A31.767,31.767,0,0,1,80.106,10.924c.157.174.322.341.557.588.6-1.064,1.21-2.054,1.73-3.089a1.989,1.989,0,0,1,2-1.2c5.994.025,11.988,0,17.981.029a2.26,2.26,0,0,1,1.4.412,1.49,1.49,0,0,1,.36,1.266,1.906,1.906,0,0,1-.957.932,2.439,2.439,0,0,1-1.062.068c-5.544,0-11.088.012-16.633-.012a1.191,1.191,0,0,0-1.252.739c-.52,1.044-1.563,2.042-1.571,3.065-.008,1,1.018,2,1.568,3.009a31.862,31.862,0,0,1,3.683,20.134c-.02.147-.026.3-.043.5.238.113.473.222.706.337a3.933,3.933,0,0,1,2.378,3.53c.034.688.015,1.378.015,2.067q0,15.554,0,31.108c0,1.442-.377,2.022-1.314,2.035-.961.012-1.383-.619-1.383-2.08q0-16.093,0-32.186c0-1.824-.312-2.133-2.144-2.134-2.577,0-5.155-.006-7.732,0-1.376,0-1.829.459-1.829,1.838q0,23.286,0,46.571c0,.236.022.472.037.774H88.272v-1.01c0-2.488-.011-4.975.007-7.462.007-.972.559-1.585,1.349-1.59s1.332.6,1.336,1.579q.017,4.855,0,9.71c0,1.027-.46,1.519-1.473,1.524q-7.057.031-14.115,0c-1.027,0-1.49-.533-1.5-1.611-.018-1.588-.005-3.177-.005-4.765V59.186c-.382.228-.652.384-.918.549a31.907,31.907,0,0,1-16.343,4.8c-1.492.035-1.931-.4-1.932-1.906q-.005-13.89,0-27.781v-1.2H26.051c-1.987,0-2.263-.258-2.214-2.206a31.493,31.493,0,0,1,6.732-18.868c.755-.98,1.912-1.005,2.429-.073.413.745.023,1.31-.413,1.875a27.014,27.014,0,0,0-4.855,9.543c-.6,2.243-.933,4.557-1.424,7.031H54.933c2.212,0,2.437.22,2.437,2.392q0,13.666,0,27.332v1.107a27.992,27.992,0,0,0,8.453-1.6,29.991,29.991,0,0,0,7.459-3.892,1.272,1.272,0,0,0,.6-1.185c-.02-4.405-.015-8.811-.01-13.216,0-2.881,1.635-4.527,4.5-4.539,1.918-.008,3.836,0,5.754,0h1A29.631,29.631,0,0,0,80.97,16.5c-1.559,2.772-3.054,5.432-4.551,8.091a5.365,5.365,0,0,1-.413.693,1.255,1.255,0,0,1-1.739.418,1.272,1.272,0,0,1-.582-1.7,4.738,4.738,0,0,1,.375-.715c1.714-3.054,3.429-6.107,5.166-9.2a28.1,28.1,0,0,0-7.492-6.766A29.406,29.406,0,0,0,36.853,9.866c-.115.1-.228.195-.346.287a1.353,1.353,0,0,1-2.059-.069,1.3,1.3,0,0,1,.317-1.968A55.539,55.539,0,0,1,39.635,4.6,31.1,31.1,0,0,1,54.8.117c.3-.011.588-.076.882-.117Z" transform="translate(-18.106)" fill="#cf9455"/>
    <path id="Path_6319" data-name="Path 6319" d="M329.138,273.662a2.174,2.174,0,0,1-1.947.832c-4.4-.023-8.8-.009-13.2-.012-1.579,0-1.943-.374-1.943-1.97q0-13.878,0-27.756c0-2.868,1.649-4.522,4.5-4.525,2.455,0,4.915.088,7.365-.025,2.549-.117,4.349.773,5.228,3.247Zm-2.734-1.924c.018-.231.035-.35.035-.468q0-13.343,0-26.686c0-1.136-.514-1.648-1.649-1.653-2.7-.012-5.391-.005-8.087,0-1.551,0-1.96.411-1.96,1.969q0,12.939,0,25.877c0,.315.027.63.043.965Z" transform="translate(-237.082 -182.494)" fill="#cf9455"/>
    <path id="Path_6320" data-name="Path 6320" d="M21.4,184.374c-.816-.34-1.6-.626-2.352-.987-10.8-5.2-17.1-13.726-18.83-25.6A29.663,29.663,0,0,1,0,154.207a1.342,1.342,0,0,1,1.529-1.557q15.234-.012,30.469,0c1.105,0,1.57.518,1.573,1.717.01,3.535,0,7.071,0,10.606q0,9.572,0,19.144c0,1.772-.414,2.234-2.2,2.067-2.23-.209-4.452-.53-6.665-.882-.557-.089-.782-.006-1.009.5-1.23,2.727-2.514,5.429-3.739,8.157a1.749,1.749,0,0,1-1.791,1.182c-4.883-.024-9.767-.017-14.65-.006-.8,0-1.431-.207-1.656-1.052-.241-.9.464-1.641,1.6-1.647,2.756-.013,5.513,0,8.269,0,1.768,0,3.536.019,5.3-.02a1.094,1.094,0,0,0,.831-.433c1.2-2.505,2.347-5.034,3.53-7.6m9.415-.82V155.413H2.748C3.3,169.2,13.536,179.165,22.6,181.768c.538-1.157,1.073-2.323,1.621-3.484.449-.951,1.153-1.3,1.906-.974s.971,1.118.55,2.061c-.481,1.08-.979,2.152-1.538,3.378l5.678.807" transform="translate(0 -115.975)" fill="#cf9455"/>
    <path id="Path_6321" data-name="Path 6321" d="M152.362,312.835c0-2.128-.011-4.255,0-6.383a4.052,4.052,0,0,1,4.338-4.413c2.817-.033,5.634-.037,8.451,0a4.074,4.074,0,0,1,4.313,4.367c.018,4.405.009,8.811,0,13.216,0,1.387-.442,1.822-1.844,1.824q-6.743.009-13.485,0c-1.356,0-1.77-.422-1.775-1.78-.009-2.277,0-4.555,0-6.833m2.7,5.835h11.71c0-4.21.017-8.337-.012-12.464-.007-1.022-.575-1.467-1.738-1.473q-4.04-.022-8.079,0c-1.464.005-1.876.417-1.879,1.867-.007,2.932,0,5.865,0,8.8v3.275" transform="translate(-115.757 -229.462)" fill="#cf9455"/>
    <path id="Path_6322" data-name="Path 6322" d="M299.976,10.515c-2.128,0-4.256.013-6.384-.006-1.018-.009-1.676-.605-1.585-1.419a1.294,1.294,0,0,1,1.386-1.256Q300,7.812,306.61,7.84a1.29,1.29,0,0,1,1.361,1.365,1.321,1.321,0,0,1-1.432,1.3c-2.187.028-4.375.009-6.563.009Z" transform="translate(-221.853 -5.943)" fill="#cf9455"/>
    <path id="Path_6323" data-name="Path 6323" d="M14.555,296.839c-1.767,0-3.534.006-5.3,0-1.042,0-1.674-.518-1.681-1.339s.62-1.351,1.661-1.353q5.3-.01,10.6,0c1.043,0,1.641.527,1.619,1.378-.02.81-.608,1.307-1.6,1.313-1.767.011-3.534,0-5.3,0" transform="translate(-5.754 -223.479)" fill="#cf9455"/>
    <path id="Path_6324" data-name="Path 6324" d="M326.334,126.469c1.526,0,3.052-.008,4.577,0,.988.007,1.588.5,1.615,1.3.028.835-.593,1.39-1.614,1.393q-4.622.014-9.245,0c-1.032,0-1.629-.54-1.6-1.393.025-.816.6-1.291,1.6-1.3,1.556-.01,3.111,0,4.667,0" transform="translate(-243.176 -96.086)" fill="#cf9455"/>
    <path id="Path_6325" data-name="Path 6325" d="M326.257,153.275c-1.525,0-3.051.008-4.576,0-1.026-.007-1.58-.46-1.61-1.28-.031-.851.563-1.4,1.6-1.409q4.621-.021,9.242,0c1.029,0,1.647.561,1.624,1.393-.022.8-.615,1.288-1.609,1.295-1.555.011-3.11,0-4.666,0" transform="translate(-243.18 -114.402)" fill="#cf9455"/>
    <path id="Path_6326" data-name="Path 6326" d="M326.337,174.9c1.525,0,3.05-.01,4.575,0,1,.009,1.592.5,1.617,1.288.027.828-.589,1.392-1.619,1.4q-4.62.024-9.24,0c-1.046-.006-1.629-.548-1.6-1.4.024-.817.578-1.277,1.605-1.286,1.555-.013,3.11,0,4.665,0" transform="translate(-243.178 -132.883)" fill="#cf9455"/>
  </g>
</svg>
