<svg id="Group_21104" data-name="Group 21104" xmlns="http://www.w3.org/2000/svg" xmlns:xlink="http://www.w3.org/1999/xlink" width="92.037" height="92" viewBox="0 0 92.037 92">
  <defs>
    <clipPath id="clip-path">
      <rect id="Rectangle_1888" data-name="Rectangle 1888" width="92.037" height="92" fill="#cf9455"/>
    </clipPath>
  </defs>
  <g id="Group_21103" data-name="Group 21103" clip-path="url(#clip-path)">
    <path id="Path_6312" data-name="Path 6312" d="M0,78.523c.205-.776.355-1.573.626-2.326A10.93,10.93,0,0,1,7.18,69.6a5.242,5.242,0,0,1-.76-.508,10.7,10.7,0,0,1,4.955-18.162c.782-.2.933-.5.892-1.194a4.866,4.866,0,0,1,1.319-3.872,5.122,5.122,0,0,1,3.935-1.4q12.846.019,25.693.006h1.2V41.408H42.243c-1.677,0-3.354.015-5.031,0-3.166-.035-5.024-1.9-5.015-5.052.008-2.783-.122-5.582.128-8.344a10.246,10.246,0,0,1,6.345-8.7c.132-.062.263-.129.5-.244A10.765,10.765,0,0,1,35.445,8.839,10.248,10.248,0,0,1,39.382,2.3,10.694,10.694,0,0,1,53.932,3.51a10.849,10.849,0,0,1-1.06,15.553c.194.1.364.2.54.288a10.506,10.506,0,0,1,6.376,9.541c.128,2.629.063,5.269.019,7.9a4.5,4.5,0,0,1-4.463,4.576c-2.243.081-4.491.03-6.737.036H47.6v3.055h1.193q12.8,0,25.6,0a5.487,5.487,0,0,1,3.339.821,4.641,4.641,0,0,1,2.006,4.267c-.041.835.138,1.2,1.063,1.435a10.152,10.152,0,0,1,7.74,7.581A10.335,10.335,0,0,1,85.6,69.089c-.168.169-.344.328-.577.549.328.162.609.3.886.439a10.548,10.548,0,0,1,6.082,9.463c.1,2.271.021,4.55.021,6.826,0,3.278-.765,4.421-3.771,5.634H68.111c-2.812-.913-3.873-2.912-3.735-5.776.1-2.09-.01-4.19.027-6.284a10.644,10.644,0,0,1,5.51-9.548c.456-.269.945-.484,1.42-.725a.814.814,0,0,0-.109-.186,10.732,10.732,0,0,1,4.961-18.672.76.76,0,0,0,.483-.5c.343-1.942-.354-2.771-2.294-2.771q-12.842,0-25.684,0H47.546c0,.861.032,1.6-.01,2.342-.034.607.133.863.792,1.009A10.691,10.691,0,0,1,54.44,67.939c-.471.605-1.034,1.139-1.576,1.728.24.117.453.223.667.326,3.229,1.553,5.531,4.044,5.958,7.579a66.033,66.033,0,0,1,.173,10.646c-.087,2.074-1.719,3.157-3.592,3.782H35.942c-3.027-1.267-3.75-2.374-3.75-5.747,0-2.155-.055-4.312.012-6.465a10.652,10.652,0,0,1,6.356-9.839c.194-.1.385-.2.585-.3-.323-.331-.6-.6-.863-.887a10.281,10.281,0,0,1-2.748-9.6,10.45,10.45,0,0,1,8.223-8.312c.251-.064.652-.262.663-.419.063-.939.031-1.884.031-2.888H43.334q-12.842,0-25.685,0c-1.934,0-2.332.438-2.337,2.407,0,.588.169.8.769.933a10.668,10.668,0,0,1,8.2,12.674,10.944,10.944,0,0,1-3.657,6.079c.238.121.416.216.6.3a10.377,10.377,0,0,1,6.31,9.108c.18,2.832.079,5.683.055,8.526a3.856,3.856,0,0,1-1.338,3.034A16.825,16.825,0,0,1,23.9,92H3.774A5.177,5.177,0,0,1,0,88.226v-9.7M82.821,88.9c0-1.558,0-3.075,0-4.592s-.018-3.053.013-4.578A1.511,1.511,0,0,1,84.379,78.2a1.6,1.6,0,0,1,1.5,1.782c.015,2.394,0,4.788.009,7.182a1.54,1.54,0,1,0,3.053.053c.015-2.574.053-5.148-.015-7.72a7.343,7.343,0,0,0-6.369-7.241,40.765,40.765,0,0,0-8.413-.055,7.269,7.269,0,0,0-6.624,7.184c-.132,2.627-.061,5.265-.04,7.9A1.525,1.525,0,0,0,69.01,88.93a1.558,1.558,0,0,0,1.526-1.656c.017-.268.007-.538.007-.808,0-2.125-.03-4.25.024-6.374a2.094,2.094,0,0,1,.514-1.433,2.042,2.042,0,0,1,1.539-.3c.778.163.992.878.993,1.617q.007,4.457,0,8.92Zm-64.207.007a9.31,9.31,0,0,1-.184-1.242c-.02-2.633-.02-5.266-.021-7.9a1.637,1.637,0,0,1,.077-.441,1.412,1.412,0,0,1,1.452-1.109,1.394,1.394,0,0,1,1.465,1.2,5.612,5.612,0,0,1,.064,1.072c.007,2.274-.015,4.549.018,6.823a1.522,1.522,0,1,0,3.039.03c.016-2.782.085-5.571-.072-8.345a7.165,7.165,0,0,0-6.266-6.735,42.417,42.417,0,0,0-8.414-.066,7.29,7.29,0,0,0-6.648,6.891c-.174,2.652-.057,5.324-.057,7.987,0,1.125.6,1.841,1.506,1.862.948.021,1.548-.7,1.551-1.892.006-2.364-.009-4.728.008-7.092A1.587,1.587,0,0,1,7.666,78.2a1.558,1.558,0,0,1,1.52,1.742c.012,2.978,0,5.955,0,8.965Zm32.034,0c0-3.176-.025-6.283.017-9.389a1.325,1.325,0,0,1,1.369-1.3,1.388,1.388,0,0,1,1.545,1.091,4.134,4.134,0,0,1,.1,1.064c.009,2.245,0,4.489.008,6.734.006,1.139.6,1.829,1.526,1.821a1.581,1.581,0,0,0,1.529-1.752c.018-2.514.063-5.03-.013-7.542a7.45,7.45,0,0,0-6.768-7.468,41.648,41.648,0,0,0-7.889-.009,7.265,7.265,0,0,0-6.717,6.821c-.226,2.8-.076,5.621-.091,8.434a1.157,1.157,0,0,0,.042.265,1.544,1.544,0,0,0,1.539,1.249A1.5,1.5,0,0,0,38.307,87.5c.028-.3.017-.6.018-.9,0-2.245-.017-4.49.013-6.734a1.556,1.556,0,0,1,1.519-1.67,1.49,1.49,0,0,1,1.52,1.552c.027,3.04.01,6.08.01,9.153Zm-.018-50.62c0-3.106-.018-6.15.012-9.194a1.41,1.41,0,0,1,1.407-1.453A1.492,1.492,0,0,1,53.656,29a6.087,6.087,0,0,1,.031.9c0,2.245-.009,4.491.008,6.736.008,1.06.554,1.655,1.464,1.68a1.511,1.511,0,0,0,1.586-1.672c.022-2.574.085-5.152-.023-7.722a7.538,7.538,0,0,0-7.512-7.408c-2.3-.069-4.614-.081-6.914.037A7.29,7.29,0,0,0,35.424,28c-.254,2.942-.147,5.918-.132,8.879a1.44,1.44,0,0,0,1.618,1.434,1.475,1.475,0,0,0,1.407-1.556c.015-.269.007-.539.007-.808,0-2.155,0-4.311,0-6.466A1.635,1.635,0,0,1,39.4,27.7a1.513,1.513,0,0,1,1.988,1.628c.022,2.976.007,5.952.007,9,2.885,0,5.874,0,8.863,0a2.112,2.112,0,0,0,.373-.045M45.972,18.392a7.659,7.659,0,1,0-7.639-7.663,7.661,7.661,0,0,0,7.639,7.663m.018,35.3A7.652,7.652,0,1,0,53.679,61.3a7.662,7.662,0,0,0-7.689-7.608m-32.209,0a7.653,7.653,0,1,0,7.676,7.6,7.657,7.657,0,0,0-7.676-7.6m64.438,0A7.653,7.653,0,0,0,78.154,69a7.653,7.653,0,1,0,.065-15.305" transform="translate(0 0)" fill="#cf9455"/>
  </g>
</svg>
