<svg id="Group_21113" data-name="Group 21113" xmlns="http://www.w3.org/2000/svg" xmlns:xlink="http://www.w3.org/1999/xlink" width="79.383" height="92" viewBox="0 0 79.383 92">
  <defs>
    <clipPath id="clip-path">
      <rect id="Rectangle_1897" data-name="Rectangle 1897" width="79.383" height="92" fill="#cf9455"/>
    </clipPath>
  </defs>
  <g id="Group_21112" data-name="Group 21112" clip-path="url(#clip-path)">
    <path id="Path_6327" data-name="Path 6327" d="M17.438,0c3.1,1.119,4.539,3.2,4.323,6.268a4.889,4.889,0,0,1-6.044,4.61,8.071,8.071,0,0,1-4.8-2.565A15.158,15.158,0,0,0,4.533,12.2,7.154,7.154,0,0,0,2.726,16.86c-.148,4.39,1.065,8.511,2.6,12.545.878,2.311,1.956,4.546,2.958,6.846,2.338-.262,3.746.9,4.889,2.723a21.413,21.413,0,0,0,8,7.915,14.162,14.162,0,0,0,13.892.027,21.23,21.23,0,0,0,7.279-6.777c.314-.436.628-.875.9-1.338,1.039-1.768,2.468-2.824,4.658-2.544,2.726-5.543,5.121-11.151,5.616-17.378.363-4.575-1-7.189-5.932-9.659-.053-.027-.115-.038-.166-.067A2.548,2.548,0,0,0,44,9.41,7.893,7.893,0,0,1,40.144,10.9c-4.29.652-6.159-3.312-5.572-6.285A5.624,5.624,0,0,1,38.789,0h1.435a8.986,8.986,0,0,1,5.107,3.553,2.979,2.979,0,0,1,.58,1.2c.091.827.583,1.116,1.273,1.38A16.628,16.628,0,0,1,53.8,10.451c2.2,2.447,2.644,5.4,2.426,8.541A39.939,39.939,0,0,1,53.2,31.017c-.8,1.994-1.727,3.934-2.632,5.883a1.062,1.062,0,0,0,.053,1.2,3.851,3.851,0,0,1,.041,4.395A33.275,33.275,0,0,1,40.7,53.141a23.1,23.1,0,0,1-7.356,3.182c-.318.074-.634.162-.979.25a3.51,3.51,0,0,0-.078.527c.007,3.946-.058,7.9.049,11.839A15.443,15.443,0,0,0,62.88,71.286a17.181,17.181,0,0,0,.33-3.558c.032-5.98,0-11.96.03-17.939a1.165,1.165,0,0,0-.793-1.271A11.99,11.99,0,0,1,60.5,27.731a13.374,13.374,0,0,1,1.706-.983,1.318,1.318,0,0,1,1.864.488A1.265,1.265,0,0,1,63.5,29.06,10.412,10.412,0,0,0,59.367,32.8,9.312,9.312,0,1,0,68,28.307c-.179-.013-.358-.022-.536-.047-.993-.139-1.495-.674-1.409-1.5.081-.777.658-1.2,1.617-1.175A11.982,11.982,0,0,1,72.357,48.48a1.3,1.3,0,0,0-.91,1.386c.029,6.309.077,12.618-.021,18.925a22.985,22.985,0,0,1-6.2,15.358c-.68.758-1.4.88-2.039.369-.663-.533-.7-1.326.013-2.123A20.879,20.879,0,0,0,68.469,71.6a23.523,23.523,0,0,0,.293-3.566c.029-5.92.014-11.84.012-17.76,0-.205-.02-.411-.033-.664H65.916c0,.322,0,.663,0,1-.01,6.1.07,12.2-.051,18.3a18.138,18.138,0,0,1-35.91,2.8,21.442,21.442,0,0,1-.362-4.006c-.046-3.886-.019-7.773-.015-11.66,0-1.464.258-1.8,1.678-2.039,5.576-.928,9.95-3.9,13.566-8.079,1.226-1.418,2.266-3,3.351-4.538a1.466,1.466,0,0,0-.245-2.265c-.72-.451-1.52-.222-2.118.7a37.1,37.1,0,0,1-5.3,6.521,17.533,17.533,0,0,1-23.029,1.395,28.17,28.17,0,0,1-6.429-7.052c-.247-.374-.487-.755-.764-1.106a1.432,1.432,0,0,0-1.969-.435,1.407,1.407,0,0,0-.34,2.057c1.186,1.684,2.336,3.409,3.68,4.962a22.221,22.221,0,0,0,8.289,6.277,39.4,39.4,0,0,0,5.12,1.551c1.312.339,1.655.652,1.66,2.006.007,2.213.013,4.425-.008,6.638a2.8,2.8,0,0,1-.233,1.21,1.18,1.18,0,0,1-1.444.608,1.238,1.238,0,0,1-1-1.311c-.016-1.734-.011-3.468-.014-5.2,0-.415,0-.831,0-1.253-1.409-.446-2.789-.812-4.115-1.317a26.02,26.02,0,0,1-10.692-7.9c-1.244-1.484-2.337-3.1-3.441-4.7a4.145,4.145,0,0,1-.1-4.8,1.36,1.36,0,0,0-.031-1.1A63.308,63.308,0,0,1,1.041,24.848a24.453,24.453,0,0,1-.9-9.308,10.169,10.169,0,0,1,5.1-7.427C6.6,7.259,8.115,6.661,9.543,5.92c.261-.135.587-.368.655-.618.755-2.778,2.809-4.174,5.32-5.106.163-.061.323-.13.484-.2ZM16.23,8.271c1.978.034,2.893-1.022,2.869-2.6S17.918,2.653,16.7,2.7a1.393,1.393,0,0,0-.351.056A5.791,5.791,0,0,0,13.209,5c-.606.873-.534,1.585.394,2.122A20.206,20.206,0,0,0,16.23,8.271m23.158,0,.1.249a30.284,30.284,0,0,0,3.281-1.474c.844-.5.884-1.171.328-2a5.135,5.135,0,0,0-3.128-2.235,2.26,2.26,0,0,0-1.572.328,3.21,3.21,0,0,0-.883,4.017,1.825,1.825,0,0,0,1.878,1.113" transform="translate(0)" fill="#cf9455"/>
    <path id="Path_6328" data-name="Path 6328" d="M130.451,322.431a23.912,23.912,0,0,1-22.312-16.759,39.958,39.958,0,0,1-1.1-6.77,1.336,1.336,0,0,1,1.2-1.677c.792-.067,1.439.553,1.457,1.573a22.475,22.475,0,0,0,1.477,7.512,21.217,21.217,0,0,0,21.593,13.183,21.745,21.745,0,0,0,9.743-3.528c.668-.45,1.335-.712,2.025-.066a1.329,1.329,0,0,1-.291,2.138,22.145,22.145,0,0,1-8.475,3.689c-1.75.344-3.541.478-5.314.706" transform="translate(-82.969 -230.431)" fill="#cf9455"/>
    <path id="Path_6329" data-name="Path 6329" d="M286.477,148.642a5.4,5.4,0,1,1-5.389-5.439,5.424,5.424,0,0,1,5.389,5.439m-2.693-.068a2.717,2.717,0,0,0-2.7-2.679,2.725,2.725,0,0,0,0,5.449,2.722,2.722,0,0,0,2.7-2.77" transform="translate(-213.725 -111.024)" fill="#cf9455"/>
  </g>
</svg>
